<?xml version="1.0" standalone="yes"?>

<svg version="1.1" viewBox="0.0 0.0 960.0 720.0" fill="none" stroke="none" stroke-linecap="square" stroke-miterlimit="10" clip-path="url(#p.0)" xmlns="http://www.w3.org/2000/svg" xmlns:xlink="http://www.w3.org/1999/xlink"><clipPath id="p.0"><path d="m0 0l960.0 0l0 720.0l-960.0 0l0 -720.0z" clip-rule="nonzero"></path></clipPath><path fill="#000000" d="m671.3458 674.0593l-9.943298 -14.248535l3.0119019 -2.1003418l0.78686523 1.1276245l-1.6533203 1.1528931l8.360535 11.980652l1.6533813 -1.1529541l0.79577637 1.1403809l-3.0118408 2.1002808zm-4.992676 -15.529236l-0.9210205 -1.3197632l7.2156982 -5.0317383l0.7421875 1.0635376q-0.2769165 1.8693848 -0.013427734 4.485779q0.27630615 2.607544 1.0855713 4.9957886q0.56451416 1.6826782 1.6115723 3.428894l-1.40979 0.98309326q-0.89538574 -1.3376465 -1.704895 -3.5352173q-0.80566406 -2.2193604 -1.0900269 -4.5926514q-0.2715454 -2.3822632 -0.056030273 -4.285034l-5.459839 3.807312zm15.91156 3.3052979l-1.0908813 -1.5632324l1.5635986 -1.0903931l1.0908813 1.5632935q0.5991211 0.8584595 0.6581421 1.5983276q0.06793213 0.75268555 -0.38897705 1.4903564l-0.79577637 -0.32128906q0.31054688 -0.48327637 0.25628662 -0.99786377q-0.054260254 -0.5145874 -0.5114746 -1.2243652l-0.7817993 0.545166zm1.4025269 -9.969055q-1.0733032 0.29125977 -1.8858643 6.713867E-4q-0.82141113 -0.30340576 -1.3847656 -1.1106567q-0.8494873 -1.2172852 -0.55023193 -2.6451416q0.30316162 -1.4495239 1.7514038 -2.4594727q1.4611206 -1.0188599 2.935608 -0.78985596q1.4873047 0.22009277 2.336792 1.4373779q0.54541016 0.7816162 0.5376587 1.6442261q0.005065918 0.8536377 -0.6134033 1.7421265q1.2578125 -0.38183594 2.3147583 -0.014038086q1.0568848 0.36779785 1.781189 1.4057007q1.0014648 1.4351196 0.66851807 3.1149902q-0.33288574 1.6798706 -1.986206 2.8328247q-1.6533813 1.1528931 -3.345459 0.88513184q-1.7009888 -0.2805786 -2.720398 -1.741333q-0.76000977 -1.0891113 -0.7185669 -2.2037964q0.041381836 -1.114685 0.8789673 -2.098755zm-1.8876343 -2.1315918q0.5543823 0.7944336 1.4029541 0.9456177q0.86138916 0.14221191 1.6816406 -0.42974854q0.78186035 -0.545166 0.93292236 -1.3934937q0.16394043 -0.85717773 -0.336792 -1.5747681q-0.52752686 -0.75598145 -1.4107056 -0.9020996q-0.8703003 -0.1550293 -1.6521606 0.39013672q-0.7817993 0.545166 -0.94573975 1.4024048q-0.16394043 0.85723877 0.32788086 1.5619507zm3.145996 5.463867q0.41137695 0.5894165 1.0650024 0.95269775q0.65753174 0.34155273 1.4232178 0.2647705q0.7567749 -0.08959961 1.3847656 -0.52752686q0.98687744 -0.6881714 1.1895752 -1.7629395q0.19372559 -1.0875244 -0.48583984 -2.0613403q-0.6885376 -0.9866333 -1.802063 -1.1625977q-1.1096802 -0.19769287 -2.0965576 0.49053955q-0.97406006 0.6791992 -1.1677856 1.7667847q-0.1809082 1.0786133 0.48968506 2.0396118zm12.928955 0.6420288l-0.97406006 0.6791992q-0.27990723 -5.2337646 -2.8372803 -8.898376q-0.9924927 -1.4223022 -2.2965088 -2.6083374q-1.0650024 -0.9527588 -2.2595825 -1.6817017q-0.7776489 -0.48632812 -2.809204 -1.4317627l0.97406006 -0.6791992q2.7677612 0.9082031 4.788269 2.3565674q1.743103 1.2418213 3.0128174 3.0612793q1.4306641 2.050171 1.9772949 4.526306q0.5505371 2.4544067 0.42419434 4.6760254z" fill-rule="nonzero"></path><path fill="#000000" d="m383.87958 700.85034l3.00589 -17.113037l3.616333 0.63616943l-0.237854 1.3543091l-1.9851685 -0.34924316l-2.5274048 14.389099l1.9851379 0.34924316l-0.24057007 1.3696289l-3.6163635 -0.63616943zm6.056183 -5.9627686l1.5966797 0.12225342q0.0027160645 1.1586304 0.48291016 1.7666016q0.48287964 0.59265137 1.3754272 0.7496948q0.7540283 0.1326294 1.382904 -0.105773926q0.63153076 -0.25378418 1.1035767 -0.7736206q0.4720459 -0.5198364 0.89126587 -1.4614258q0.41921997 -0.94158936 0.59762573 -1.9573364q0.018920898 -0.107666016 0.0440979 -0.34124756q-0.63031006 0.6982422 -1.5785828 1.0390625q-0.9328613 0.3435669 -1.933136 0.16760254q-1.6619873 -0.2923584 -2.6052856 -1.6958008q-0.9406128 -1.4187622 -0.5946045 -3.3886108q0.3595276 -2.046814 1.7760925 -3.0667725q1.4346619 -1.0327148 3.235138 -0.7159424q1.3080444 0.23010254 2.2608948 1.1275024q0.97094727 0.8847656 1.2951965 2.2903442q0.3395996 1.4082642 -0.09289551 3.8705444q-0.45141602 2.5700073 -1.2884216 3.9934082q-0.82159424 1.4260864 -2.0701294 2.031433q-1.2304688 0.59265137 -2.7077942 0.33276367q-1.5696411 -0.27612305 -2.4158325 -1.3292847q-0.83078 -1.0504761 -0.75512695 -2.6553955zm7.7628784 -4.7265015q0.24868774 -1.4158325 -0.35940552 -2.3795166q-0.6053772 -0.97906494 -1.6672058 -1.1658325q-1.0925903 -0.1921997 -2.0676575 0.5722656q-0.9723816 0.7490845 -1.2210693 2.164917q-0.2270813 1.2927246 0.40179443 2.2283325q0.64697266 0.9229126 1.7703552 1.1205444q1.1541443 0.20306396 2.0152588 -0.45458984q0.87924194 -0.6702881 1.1279297 -2.0861206zm2.543518 9.728455l0.32980347 -1.8775024l1.8774109 0.33032227l-0.32977295 1.8775024q-0.18112183 1.0310669 -0.6612854 1.5970459q-0.48284912 0.5814209 -1.3271484 0.7819214l-0.3373108 -0.7891846q0.5610657 -0.12335205 0.88568115 -0.5263672q0.32458496 -0.4029541 0.5013428 -1.2285767l-0.9387207 -0.16516113zm3.4121704 0.60028076l7.5069275 -12.481873l1.9082031 0.33569336l3.126648 14.352539l-2.0159302 -0.35461426l-0.85601807 -4.338928l-5.601471 -0.9854126l-2.175537 3.805603l-1.8928223 -0.3330078zm4.8275757 -4.814514l4.539673 0.798645l-0.73083496 -3.9678955q-0.35168457 -1.7911377 -0.4675293 -2.9379272q-0.48867798 1.2467041 -1.1719971 2.4274292l-2.1693115 3.6797485zm9.07489 11.321716l-1.1695557 -0.20574951q3.4942017 -3.9067993 4.267273 -8.3081665q0.30004883 -1.708252 0.212677 -3.46875q-0.08258057 -1.4265137 -0.414917 -2.7858887q-0.20794678 -0.89331055 -0.9807739 -2.996521l1.1695557 0.20574951q1.3207703 2.5962524 1.730896 5.0480957q0.35916138 2.1098022 -0.024658203 4.295105q-0.43249512 2.4622803 -1.7920837 4.602844q-1.3414612 2.1278687 -2.998413 3.6132812z" fill-rule="nonzero"></path><path fill="#000000" d="m176.53249 401.02615l12.77681 -11.774689l2.487793 2.700653l-1.0111237 0.93182373l-1.3656311 -1.4825134l-10.743088 9.900513l1.3656311 1.4824829l-1.0225983 0.94241333l-2.487793 -2.7006836zm16.487381 5.283325l0.8842163 1.6286621q-2.01268 1.0899048 -3.8695374 0.8038025q-1.8453674 -0.2966919 -3.2851105 -1.8596497q-1.4926758 -1.6203918 -1.7693481 -3.23526q-0.2651825 -1.6254578 0.48876953 -3.297699q0.76542664 -1.6828003 2.2016602 -3.0064087q1.5626373 -1.4400635 3.263031 -1.9234314q1.710968 -0.4718628 3.3247375 0.08078003q1.6252441 0.5420227 2.842682 1.863617q1.3868103 1.5054932 1.5591583 3.237732q0.18385315 1.7216797 -0.8244171 3.3945618l-1.506485 -1.0127258q0.7739563 -1.350708 0.6540222 -2.4725647q-0.10845947 -1.1324463 -1.0294647 -2.1322632q-1.0586395 -1.149231 -2.330017 -1.4224243q-1.2608032 -0.26171875 -2.499405 0.28475952q-1.216507 0.5474243 -2.2046509 1.4580383q-1.2753754 1.175354 -1.890274 2.4219666q-0.5928345 1.2475281 -0.34405518 2.4631348q0.2593689 1.2271118 1.0957031 2.1349792q1.0268707 1.1147461 2.368103 1.3023376q1.3527222 0.17700195 2.8706818 -0.7119446zm-0.80207825 6.1631775l1.4017792 -1.2918396l1.2915344 1.4020386l-1.4017792 1.2918396q-0.76982117 0.70944214 -1.4949799 0.86776733q-0.73664856 0.1689148 -1.5293274 -0.18423462l0.2109375 -0.83184814q0.5207977 0.24249268 1.0233917 0.11929321q0.502594 -0.12319946 1.1442108 -0.6719971l-0.6457672 -0.7010193zm7.827011 -1.3968201q1.7809296 -1.6412659 3.1997528 -2.2688599q1.418808 -0.627594 2.661148 -0.45510864q1.2529297 0.18399048 2.2586365 1.2757568q0.7410431 0.80444336 0.98039246 1.710022q0.23936462 0.9055481 -0.02116394 1.8680725q-0.23843384 0.96343994 -0.9105377 1.9865417q-0.661499 1.0345764 -2.1551971 2.4111328q-1.7579651 1.6200867 -3.176773 2.2476807q-1.4082336 0.6390686 -2.6726532 0.46569824q-1.2423401 -0.17251587 -2.2586212 -1.2757568q-1.3338776 -1.447998 -1.0514221 -3.2169495q0.33139038 -2.1539917 3.1464386 -4.74823zm1.1644897 1.2641296q-2.458847 2.2659912 -2.7453156 3.5924072q-0.2758789 1.3379211 0.49691772 2.1768494q0.78338623 0.85040283 2.1284943 0.6732178q1.3565979 -0.18777466 3.803955 -2.4431763q2.470337 -2.2766113 2.7568054 -3.6029968q0.2864685 -1.326416 -0.5075073 -2.188324q-0.7834015 -0.85043335 -1.9624786 -0.67752075q-1.500534 0.19296265 -3.970871 2.4695435zm-0.9466553 14.769714l-0.8045654 -0.8734131q5.1484222 -0.9836731 8.43454 -4.0120544q1.2753754 -1.175354 2.2746124 -2.627411q0.80029297 -1.1837463 1.3613586 -2.4657593q0.37696838 -0.8360901 1.039505 -2.976532l0.8045654 0.87338257q-0.52633667 2.8648682 -1.6887512 5.062256q-0.995224 1.8945923 -2.6268005 3.3981934q-1.8383789 1.6942139 -4.218231 2.5700073q-2.3577576 0.876709 -4.576233 1.0513306z" fill-rule="nonzero"></path><path fill="#000000" d="m782.5209 296.84784l12.286011 -12.28598l2.5963745 2.596405l-0.97229004 0.9722595l-1.4252319 -1.4252625l-10.330383 10.330383l1.4252319 1.4252625l-0.98327637 0.9833374l-2.5964355 -2.596405zm9.763977 4.416443l2.2980957 -2.2980957l-4.1763916 -4.176361l1.0827637 -1.0827332l10.628723 -1.8340759l0.96118164 0.9612427l-6.2313843 6.2313538l1.303772 1.3037415l-1.0827637 1.0827637l-1.3037109 -1.3037415l-2.2980957 2.2980957l-1.18219 -1.18219zm3.3807983 -3.3808594l4.342102 -4.3420715l-7.34729 1.3368835l3.005188 3.005188zm0.8070679 7.568756l1.3479614 -1.3479004l1.3479004 1.3479004l-1.3479004 1.3479309q-0.7402954 0.7402649 -1.458435 0.92807007q-0.729187 0.19888306 -1.5357666 -0.121520996l0.17681885 -0.83969116q0.5303345 0.22097778 1.0274658 0.07733154q0.49719238 -0.14361572 1.1159058 -0.71813965l-0.6739502 -0.6739807zm10.062256 -0.3675537q-0.47509766 -1.0054321 -0.3314209 -1.8561707q0.15466309 -0.8617859 0.850708 -1.5578308q1.0496216 -1.0496216 2.5079956 -1.0054321q1.4805298 0.044189453 2.729004 1.2926941q1.2595215 1.2595215 1.2926636 2.751068q0.04425049 1.5026245 -1.0053711 2.5522156q-0.6739502 0.6739807 -1.5247192 0.81759644q-0.83966064 0.1546936 -1.822998 -0.29830933q0.59661865 1.1711426 0.41986084 2.276001q-0.17681885 1.1048584 -1.0717163 1.9997864q-1.2374268 1.2374573 -2.9499512 1.2042847q-1.7125244 -0.03314209 -3.1378174 -1.4584045q-1.4252319 -1.4252625 -1.458374 -3.1377869q-0.022155762 -1.7235718 1.2374268 -2.9830933q0.9390869 -0.93911743 2.0439453 -1.093811q1.1048584 -0.1546936 2.2207642 0.49719238zm1.7677612 -2.2318115q-0.68499756 0.68499756 -0.68499756 1.5467834q0.011047363 0.87283325 0.71813965 1.579956q0.6739502 0.6739502 1.5357666 0.6739502q0.87286377 0.011047363 1.4915771 -0.607666q0.65185547 -0.65185547 0.6408081 -1.5467834q0 -0.8838806 -0.6739502 -1.5578613q-0.67401123 -0.6739502 -1.546814 -0.68499756q-0.87286377 -0.011047363 -1.4805298 0.59661865zm-4.828186 4.0548096q-0.50823975 0.50823975 -0.7513428 1.215332q-0.22094727 0.7071228 -0.011047363 1.4473572q0.2210083 0.7292175 0.76239014 1.2705994q0.850708 0.8507385 1.944519 0.8617859q1.1048584 0 1.9445801 -0.83969116q0.850708 -0.8507385 0.8286133 -1.9776917q0 -1.1269531 -0.850708 -1.9776917q-0.8397217 -0.83969116 -1.9445801 -0.83969116q-1.093811 0.011047363 -1.9224243 0.83969116zm1.6356812 12.838928l-0.8397217 -0.83969116q5.104431 -1.1932373 8.264343 -4.353119q1.2263794 -1.2264099 2.1655273 -2.7179565q0.75128174 -1.215332 1.2595215 -2.5190735q0.3425293 -0.8507385 0.9170532 -3.0162354l0.83966064 0.83969116q-0.40881348 2.883667 -1.4805298 5.126526q-0.9169922 1.9334717 -2.4859009 3.5023804q-1.7677612 1.7677612 -4.1100464 2.7400208q-2.3201904 0.97229004 -4.529907 1.2374573z" fill-rule="nonzero"></path><path fill="#000000" d="m652.24286 90.829445l6.760376 -16.00589l3.3825073 1.4286652l-0.53497314 1.266655l-1.8568115 -0.78424835l-5.684265 13.458191l1.8568115 0.78424835l-0.54107666 1.281044l-3.3825684 -1.4286652zm14.486633 0.2668991l-0.6262207 1.4825592l-8.276428 -3.4956665q0.22271729 -0.5674362 0.6226196 -0.9921875q0.675354 -0.7154846 1.7127686 -1.2441254q1.0518188 -0.5225525 2.817627 -1.0488586q2.7491455 -0.8063965 3.8822021 -1.4812012q1.1331177 -0.6748123 1.5039673 -1.5528336q0.3829956 -0.90680695 -0.01159668 -1.8197861q-0.38024902 -0.9068985 -1.4310303 -1.3507004q-1.1082764 -0.46811676 -2.0705566 -0.07733917q-0.94177246 0.38246155 -1.4402466 1.5627518l-1.5164795 -0.82707214q0.9061279 -1.7035599 2.3603516 -2.1748886q1.4603271 -0.48571777 3.2451172 0.26813507q1.7992554 0.75992584 2.4244385 2.2112885q0.6312256 1.4369736 0.005065918 2.9195328q-0.31610107 0.7484741 -0.94281006 1.3488159q-0.6062622 0.5920181 -1.6663818 1.094101q-1.0396729 0.49376678 -3.2907715 1.2052231q-1.8742065 0.58226776 -2.4535522 0.8294678q-0.5588379 0.23887634 -0.9942627 0.5468674l6.146179 2.5959167zm1.6774902 2.4555511l0.7416992 -1.7560425l1.7560425 0.7416916l-0.7416992 1.7560425q-0.40734863 0.96437836 -1.0020752 1.4086227q-0.60076904 0.45863342 -1.4685669 0.46524048l-0.15216064 -0.8444977q0.5744629 0.0051879883 0.9810791 -0.31495667q0.4066162 -0.32015228 0.7636719 -1.0852585l-0.8779907 -0.37084198zm8.877075 3.7493744l1.2645264 -2.9939117l-5.440857 -2.2980194l0.59576416 -1.4105911l9.157532 -5.6984863l1.2522583 0.5289078l-3.428772 8.118103l1.6984863 0.7173691l-0.5958252 1.4105911l-1.6984253 -0.7173691l-1.2645264 2.993904l-1.5401611 -0.65049744zm1.8602905 -4.404503l2.3892212 -5.6567535l-6.3043213 4.003151l3.9151 1.6536026zm2.6437988 10.649033l-1.0938721 -0.46203613q4.2803345 -3.0261765 6.019043 -7.1427994q0.6748047 -1.5977097 0.9837036 -3.3330078q0.23876953 -1.4087219 0.21911621 -2.807869q-0.002746582 -0.91709137 -0.28527832 -3.1396408l1.0939331 0.46203613q0.7062988 2.8255692 0.557251 5.3068466q-0.12213135 2.1364594 -0.9854126 4.180374q-0.9727173 2.303009 -2.7770386 4.0851517q-1.7838745 1.7738266 -3.7314453 2.8509445z" fill-rule="nonzero"></path><path fill="#000000" d="m839.50323 469.78848l-17.040161 -3.3943787l0.7178955 -3.6009827l1.3485107 0.26861572l-0.394104 1.9767151l14.327881 2.8540955l0.394104 -1.9767151l1.3638306 0.27166748l-0.71795654 3.6009827zm-6.289551 -6.0122375l0.19195557 -1.762085q1.2932129 0.06643677 2.0743408 -0.49493408q0.7687988 -0.5797119 0.96435547 -1.5604248q0.23522949 -1.1799011 -0.49163818 -2.1690674q-0.7238159 -1.0045166 -2.210266 -1.3005981q-1.3944702 -0.277771 -2.3654785 0.35723877q-0.9680176 0.61972046 -1.2215576 1.891571q-0.15582275 0.78149414 0.083618164 1.4983215q0.22723389 0.6984863 0.73620605 1.1822205l-0.5078125 1.5079956l-6.6054077 -2.6700134l1.322876 -6.6350403l1.5783691 0.3144226l-1.0631714 5.33255l3.42688 1.431427q-0.58618164 -1.3753967 -0.3234253 -2.6932068q0.3482666 -1.7468567 1.7971802 -2.7009583q1.4519653 -0.96939087 3.3521118 -0.59088135q1.8082275 0.36019897 2.9152832 1.6800232q1.3676758 1.6107483 0.92474365 3.8326416q-0.36358643 1.8234863 -1.604126 2.7712708q-1.2557983 0.94473267 -2.9750366 0.77752686zm5.699768 -10.368256l-1.8695068 -0.372406l0.3727417 -1.8694458l1.8695068 0.372406q1.0266724 0.20452881 1.581665 0.6974182q0.57025146 0.49597168 0.7515869 1.344635l-0.7965698 0.3192749q-0.11065674 -0.5637207 -0.50616455 -0.8974304q-0.3955078 -0.3336792 -1.216919 -0.5291748l-0.18634033 0.9347229zm-7.5359497 -14.704468l-0.20123291 1.6486816q-1.0081787 0.022247314 -1.5197754 0.35049438q-0.8362427 0.51849365 -1.0287476 1.4838562q-0.15881348 0.7968445 0.15411377 1.4645996q0.41119385 0.8944397 1.4105835 1.555542q0.9840698 0.65805054 2.9884644 1.0732422q-0.78497314 -0.77770996 -1.0460205 -1.7059631q-0.2732544 -0.94662476 -0.08691406 -1.8813782q0.3269043 -1.6395874 1.7666016 -2.547699q1.4397583 -0.9081116 3.3399048 -0.52960205q1.2565918 0.25030518 2.2376099 1.0033569q0.9657593 0.75 1.3586426 1.81604q0.37756348 1.0629883 0.13928223 2.2582092q-0.4093628 2.0533447 -2.1677246 3.0413818q-1.7737427 0.98495483 -5.2216187 0.29815674q-3.8769531 -0.77230835 -5.3397217 -2.5453491q-1.2849731 -1.5464478 -0.8633423 -3.6610718q0.31463623 -1.5783081 1.4020386 -2.3973083q1.0750732 -0.8373413 2.6778564 -0.7251892zm4.4144287 7.8256836q0.8428345 0.1678772 1.6946411 -0.028869629q0.83947754 -0.21514893 1.3815308 -0.77630615q0.52679443 -0.564209 0.66729736 -1.269104q0.20776367 -1.0419922 -0.4730835 -1.9423523q-0.69311523 -0.9187317 -2.133606 -1.205658q-1.3791504 -0.27471924 -2.3226318 0.302063q-0.94348145 0.57681274 -1.1665039 1.695404q-0.2199707 1.103302 0.42108154 2.043518q0.644104 0.92489624 1.9312744 1.1813049zm10.214966 -8.242065l-0.23217773 1.1645813q-3.826538 -3.5821838 -8.2092285 -4.4552q-1.7009277 -0.33883667 -3.4629517 -0.29153442q-1.4279785 0.05014038 -2.7945557 0.35147095q-0.8977051 0.18759155 -3.0178833 0.91238403l0.23217773 -1.1645813q2.6254883 -1.2614136 5.0859985 -1.6156616q2.1173096 -0.3111267 4.293274 0.12234497q2.4518433 0.48840332 4.561035 1.8963013q2.0969238 1.3895569 3.5443115 3.079895z" fill-rule="nonzero"></path><path fill="#000000" d="m315.5147 79.39862l-10.368469 -13.94223l2.9442139 -2.1941223l0.8205261 1.1033401l-1.6161804 1.2044373l8.718079 11.723007l1.6162109 -1.2044296l0.829834 1.1158752l-2.9442139 2.1941223zm2.112671 -6.290184l-8.11203 -10.908039l7.354309 -5.480629l0.9510803 1.2788734l-5.913513 4.40691l2.517517 3.38525l5.1116943 -3.8093605l0.9603882 1.2914124l-5.1116943 3.8093605l3.6830444 4.952507l-1.4407959 1.0737152zm9.237915 -6.8843307l-1.1375427 -1.5296326l1.5284729 -1.1390762l1.1375427 1.5296326q0.62472534 0.8400421 0.70632935 1.578186q0.09094238 0.7506714 -0.3428955 1.5026779l-0.80477905 -0.29664612q0.29544067 -0.49298096 0.22549438 -1.0059662q-0.06994629 -0.51299286 -0.54837036 -1.2087097l-0.7642517 0.5695343zm-0.57058716 -7.934536q-1.4452515 -1.9433861 -1.9208069 -3.4207306q-0.47555542 -1.4773445 -0.1743164 -2.6956558q0.31378174 -1.2276459 1.5039978 -2.1146317q0.87701416 -0.65356827 1.8020935 -0.797348q0.92510986 -0.14377975 1.8545837 0.21582413q0.9326782 0.3377304 1.879364 1.1132164q0.9592285 0.76615524 2.1713562 2.3960915q1.4266052 1.9183121 1.9021606 3.3956528q0.48806763 1.46801 0.18362427 2.7081947q-0.301239 1.2183113 -1.5039978 2.1146317q-1.5786133 1.1764221 -3.307312 0.710907q-2.1063232 -0.554348 -4.390747 -3.626152zm1.3781433 -1.0270348q1.9953918 2.6831284 3.2838135 3.106491q1.3009949 0.41402435 2.2155762 -0.26755142q0.927124 -0.69091415 0.8915405 -2.047947q-0.044921875 -1.3695679 -2.0309448 -4.0401573q-2.0046997 -2.6956635 -3.2931519 -3.1190262q-1.2884521 -0.42336273 -2.2280884 0.276886q-0.927124 0.69091415 -0.8784485 1.8822861q0.035003662 1.5133553 2.0397034 4.2090187zm14.58136 2.4818993l-0.95217896 0.7095871q-0.43981934 -5.225918 -3.1065063 -8.811779q-1.0350037 -1.391716 -2.3738708 -2.5374756q-1.0929565 -0.91981125 -2.3085632 -1.611805q-0.7916565 -0.46230698 -2.8499146 -1.3447723l0.95217896 -0.7095909q2.792511 0.82245255 4.855133 2.2083054q1.7791443 1.187912 3.10318 2.9683037q1.4918518 2.0060768 2.1137085 4.4656487q0.62506104 2.4376945 0.5668335 4.663578z" fill-rule="nonzero"></path><path fill="#000000" d="m231.09201 207.55673l-16.062271 -6.6252594l1.3967285 -3.3958588l1.2711182 0.52430725l-0.76672363 1.8641052l13.505615 5.570694l0.7667084 -1.8641052l1.2855682 0.53027344l-1.3967438 3.3958435zm-1.44664 -6.42334l-12.566711 -5.183441l3.7444305 -9.103775l1.4733429 0.6077118l-3.0609283 7.441971l3.8566895 1.5907898l2.8647919 -6.9651184l1.4733276 0.6077118l-2.8647766 6.9651184l4.2755585 1.7635498l3.1797943 -7.7309723l1.487793 0.6136627l-3.8633118 9.392792zm4.8047028 -11.681564l-1.7622375 -0.72688293l0.7251129 -1.7629547l1.7622375 0.72688293q0.96777344 0.39918518 1.4173584 0.9902649q0.46401978 0.5970459 0.47868347 1.4650879l-0.8427582 0.15945435q-1.373291E-4 -0.5747223 -0.3239441 -0.978714q-0.3237915 -0.4039917 -1.0919037 -0.7546234l-0.36254883 0.881485zm-4.569763 -6.511505q-2.2388916 -0.92349243 -3.406479 -1.9459534q-1.1675873 -1.0224609 -1.5357666 -2.2222443q-0.3622284 -1.2142334 0.20240784 -2.5870361q0.4160614 -1.0115204 1.1355133 -1.6105652q0.7194519 -0.59906006 1.7015381 -0.76864624q0.9735718 -0.18998718 2.1842804 -0.011734009q1.2166595 0.16378784 3.0944366 0.938324q2.2100067 0.9115753 3.3776093 1.9340363q1.173523 1.0080109 1.5502014 2.2282104q0.36816406 1.1997833 -0.2024231 2.5870209q-0.7488861 1.820755 -2.470871 2.3105164q-2.0915375 0.6077728 -5.6304474 -0.8519287zm0.65379333 -1.5895538q3.0911255 1.2750092 4.413864 0.9754944q1.3286743 -0.31394958 1.762558 -1.3688354q0.43981934 -1.0693359 -0.28855896 -2.214859q-0.74282837 -1.1515045 -3.8195038 -2.4205475q-3.1055756 -1.2809601 -4.428314 -0.9814606q-1.3227386 0.2994995 -1.7684937 1.3832855q-0.43981934 1.0693359 0.21459961 2.0660553q0.8082886 1.2799072 3.9138489 2.5608673zm13.78183 -5.370041l-0.45170593 1.0982361q-3.064682 -4.2557526 -7.195801 -5.959732q-1.6033478 -0.6613312 -3.3408203 -0.95544434q-1.4103851 -0.22680664 -2.808792 -0.19514465q-0.9167023 0.010635376 -3.1357574 0.31227112l0.45170593 -1.0982208q2.8179016 -0.7307129 5.299591 -0.60289q2.136734 0.10385132 4.187866 0.94989014q2.3111115 0.9532776 4.1092834 2.7428894q1.7896729 1.7692261 2.88443 3.7081451z" fill-rule="nonzero"></path><path fill="#000000" d="m170.12744 294.67404l-17.098923 -3.0851135l0.6489258 -3.6140747l1.3531494 0.24414062l-0.35621643 1.9839172l14.377243 2.5940247l0.35621643 -1.9838867l1.3685303 0.24691772l-0.6489258 3.6140747zm-2.774765 -5.9422913l-13.377747 -2.4136963l0.8284149 -4.6137085q0.27890015 -1.5532837 0.6125488 -2.3504639q0.46574402 -1.0908813 1.3040466 -1.7811279q1.0977631 -0.89746094 2.5909271 -1.1678772q1.4777985 -0.27319336 3.2615051 0.048614502q1.5222931 0.2746582 2.6427917 0.8420105q1.1051178 0.5645752 1.789917 1.2597046q0.66941833 0.6923828 0.99661255 1.4341125q0.3117981 0.73898315 0.37400818 1.7187195q0.062210083 0.9797363 -0.15594482 2.1947021l-0.8670807 4.82901zm-1.2662354 -2.0543518l0.5136261 -2.8605042q0.23747253 -1.3226013 0.12675476 -2.1205444q-0.11071777 -0.79797363 -0.4765625 -1.3244324q-0.5172272 -0.7442932 -1.5147095 -1.2894287q-0.9974823 -0.545166 -2.5197754 -0.8198242q-2.0912476 -0.37728882 -3.3380127 0.112213135q-1.2621307 0.48675537 -1.823288 1.4016724q-0.40379333 0.6575012 -0.68821716 2.2415466l-0.5053406 2.8143616l10.225525 1.8449402zm3.6859589 -11.421814l-1.8759613 -0.33847046l0.3368988 -1.8762512l1.8759613 0.33847046q1.0302429 0.18588257 1.5944061 0.6687317q0.5795593 0.48562622 0.77700806 1.3309937l-0.7901764 0.33374023q-0.12138367 -0.56173706 -0.52311707 -0.8882446q-0.40174866 -0.3265381 -1.2265625 -0.5071106l-0.16845703 0.93814087zm0.88290405 -4.9171753l-13.377747 -2.4136963l1.739685 -9.688812l1.5684204 0.2829895l-1.4221191 7.920227l4.105591 0.7407532l1.3309937 -7.4127197l1.5684204 0.2829895l-1.3309937 7.412689l4.5515137 0.821228l1.4773407 -8.227783l1.5838013 0.28573608l-1.7949066 9.996399zm6.2847137 -12.36795l-0.20986938 1.1688232q-3.8936005 -3.5127869 -8.291351 -4.306259q-1.7068176 -0.30795288 -3.4672852 -0.22865295q-1.4265137 0.076034546 -2.7868195 0.40219116q-0.89385986 0.2039032 -2.9993896 0.9671631l0.20986938 -1.168808q2.6004028 -1.3090668 5.0532684 -1.7080078q2.1106262 -0.34954834 4.294113 0.044418335q2.4602814 0.44389343 4.595581 1.8135529q2.1226807 1.3515167 3.601883 3.0155792z" fill-rule="nonzero"></path><path fill="#000000" d="m215.14684 507.83536l14.17775 -10.043976l2.1238098 2.9953308l-1.1219788 0.79486084l-1.1658325 -1.6442566l-11.921036 8.445251l1.1658325 1.6442566l-1.1347351 0.80389404l-2.1238098 -2.9953613zm6.1376953 2.1189575l11.0923 -7.8581543l2.9552612 4.1679688q0.89471436 1.2618713 1.1054688 2.2615051q0.21980286 1.0123291 -0.17416382 1.9425049q-0.39396667 0.93014526 -1.1589508 1.4720764q-0.71398926 0.50582886 -1.6226044 0.5750427q-0.89585876 0.060180664 -1.8386841 -0.45910645q0.42071533 1.2147217 0.08630371 2.2558594q-0.32536316 1.053894 -1.2943573 1.7403564q-0.7777252 0.55096436 -1.688446 0.6983032q-0.8889313 0.15100098 -1.6020966 -0.07141113q-0.70040894 -0.23144531 -1.4158325 -0.8352051q-0.69363403 -0.60009766 -1.4437561 -1.65802l-3.0004425 -4.23172zm7.477951 -3.0955505l1.6990509 2.3962708q0.6958771 0.98147583 1.1216125 1.3117676q0.56340027 0.4434204 1.1447144 0.45285034q0.59036255 0.02218628 1.1768494 -0.39331055q0.5482483 -0.3883667 0.7792053 -0.95410156q0.23094177 -0.5657654 0.03147888 -1.1712341q-0.17767334 -0.6017761 -1.0272064 -1.7999268l-1.5725098 -2.2178345l-3.3531952 2.3755188zm-5.125412 3.631012l1.9611359 2.7658997q0.5061035 0.71380615 0.7559204 0.95806885q0.45074463 0.44665527 0.89875793 0.64630127q0.4607544 0.19055176 1.0223846 0.1182251q0.56163025 -0.072387695 1.0843811 -0.442688q0.6247406 -0.44256592 0.8577881 -1.0864258q0.23306274 -0.6437988 0.013900757 -1.3310547q-0.20640564 -0.6963501 -0.95651245 -1.7542725l-1.8255768 -2.5747375l-3.8121796 2.7006836zm5.0165253 9.8576355l1.555481 -1.1019897l1.1025696 1.5550537l-1.5554657 1.1019287q-0.8542328 0.6051636 -1.5938873 0.6696167q-0.7523804 0.07342529 -1.4937897 -0.3779297l0.31536865 -0.79785156q0.48576355 0.30688477 1.0001068 0.24890137q0.51434326 -0.0579834 1.2209167 -0.5202637l-0.55130005 -0.7774658zm12.372467 9.210327l0.6695709 1.7277222q-2.1358185 0.82373047 -3.941574 0.30303955q-1.7930145 -0.5297241 -3.02211 -2.2632446q-1.274292 -1.7971802 -1.3428497 -3.4337158q-0.05581665 -1.6455078 0.9054413 -3.2073364q0.973999 -1.5708618 2.5677185 -2.6998901q1.7339783 -1.2283936 3.4826202 -1.4906616q1.7576752 -0.24945068 3.2882538 0.5045166q1.543335 0.7449341 2.5826569 2.2106934q1.1839142 1.6697388 1.134018 3.4093628q-0.03715515 1.7305298 -1.250824 3.260498l-1.3654785 -1.1964111q0.94010925 -1.2404785 0.96417236 -2.368164q0.036819458 -1.1366577 -0.7494507 -2.2456055q-0.90374756 -1.2745972 -2.1302795 -1.7077637q-1.2174988 -0.4204712 -2.516037 -0.03668213q-1.2767487 0.38745117 -2.37323 1.1642456q-1.4152222 1.0026245 -2.1842499 2.1601562q-0.7472534 1.1612549 -0.6554413 2.3983765q0.10084534 1.2497559 0.81481934 2.2567139q0.8766327 1.2363892 2.1833801 1.5936279q1.3195038 0.34814453 2.9388733 -0.33947754zm-4.4660645 8.85614l-0.6868439 -0.96868896q5.233322 -0.31817627 8.879761 -2.9014282q1.4152222 -1.0025635 2.5917664 -2.3147583q0.94493103 -1.0715942 1.6650696 -2.2711182q0.48062134 -0.7808838 1.4109039 -2.8186035l0.6868439 0.96868896q-0.8875122 2.7733765 -2.3209991 4.803772q-1.2289886 1.7515259 -3.0394592 3.0341187q-2.0399628 1.4451904 -4.5127563 2.0097656q-2.451004 0.56829834 -4.674286 0.45825195z" fill-rule="nonzero"></path><path stroke="#000000" stroke-width="2.0" stroke-linejoin="round" stroke-linecap="butt" d="m807.296 232.62767l0 0c70.34454 169.94716 -10.399292 364.74207 -180.34644 435.0866l0 0c-81.61151 33.78064 -173.29974 33.75769 -254.89432 -0.06384277c-81.59454 -33.821533 -146.41168 -98.67114 -180.19232 -180.28262l0 0c-70.34455 -169.94717 10.399307 -364.74207 180.34647 -435.0866l0 0c169.94714 -70.34455 364.74207 10.399307 435.0866 180.34647z" fill-rule="nonzero"></path><path stroke="#f1c232" stroke-width="2.0" stroke-linejoin="round" stroke-linecap="butt" d="m510.21838 36.82994l91.19037 15.84483" fill-rule="evenodd"></path><path fill="#f1c232" stroke="#f1c232" stroke-width="2.0" stroke-linecap="butt" d="m600.8432 55.92947l9.507751 -1.7009392l-8.376709 -4.8084564z" fill-rule="evenodd"></path><path stroke="#f1c232" stroke-width="2.0" stroke-linejoin="round" stroke-linecap="butt" d="m510.75772 39.66968l196.54587 77.128235" fill-rule="evenodd"></path><path fill="#f1c232" stroke="#f1c232" stroke-width="2.0" stroke-linecap="butt" d="m706.0968 119.87307l9.655701 0.24036407l-7.2421875 -6.390686z" fill-rule="evenodd"></path><path stroke="#f1c232" stroke-width="2.0" stroke-linejoin="round" stroke-linecap="butt" d="m499.56168 41.244095l0 624.07874" fill-rule="evenodd"></path><path fill="#f1c232" stroke="#f1c232" stroke-width="2.0" stroke-linecap="butt" d="m496.2582 665.3228l3.3034668 9.076233l3.3034668 -9.076233z" fill-rule="evenodd"></path><path stroke="#f1c232" stroke-width="2.0" stroke-linejoin="round" stroke-linecap="butt" d="m509.76062 40.676865l305.82764 291.09674" fill-rule="evenodd"></path><path fill="#f1c232" stroke="#f1c232" stroke-width="2.0" stroke-linecap="butt" d="m813.31067 334.16638l8.851807 3.864746l-4.296692 -8.65036z" fill-rule="evenodd"></path><path fill="#000000" d="m570.7948 33.300697l2.7010498 -17.163765l3.6273804 0.5701599l-0.21380615 1.358284l-1.9911499 -0.31298065l-2.2711182 14.431763l1.9911499 0.31298065l-0.21618652 1.3737183l-3.6273193 -0.5701599zm11.419373 -2.03273l-1.6516113 -0.2596054l1.6541748 -10.511263q-0.6763916 0.4789009 -1.7387085 0.8971462q-1.0598755 0.40281105 -1.8778076 0.57476616l0.2526245 -1.6052456q1.4912109 -0.42991257 2.6711426 -1.1934586q1.1798706 -0.763546 1.7481079 -1.5599747l1.0650635 0.16740799l-2.1229858 13.490227zm4.9246216 0.77407074l0.29632568 -1.8830738l1.8831787 0.29599762l-0.29638672 1.8830738q-0.16271973 1.0341492 -0.63275146 1.608757q-0.47247314 0.5900421 -1.3131104 0.8058777l-0.35131836 -0.78279877q0.55877686 -0.13359833 0.8762207 -0.54239655q0.3173828 -0.40879822 0.47943115 -1.2374382l-0.94158936 -0.14799881zm13.1501465 0.43785477l-0.25024414 1.5898056l-8.875366 -1.3950691q0.07928467 -0.604393 0.36499023 -1.1130791q0.48284912 -0.85729027 1.3622437 -1.6206303q0.8947754 -0.76091194 2.4815674 -1.6977558q2.4736328 -1.4459419 3.4105835 -2.3742142q0.9369507 -0.92827225 1.085083 -1.8698101q0.15307617 -0.9724083 -0.45013428 -1.763155q-0.5877075 -0.78832054 -1.7144775 -0.965435q-1.1885376 -0.18681717 -2.0281982 0.4245968q-0.8217163 0.59840584 -1.020935 1.8640804l-1.6711426 -0.4366684q0.46850586 -1.8718224 1.7662354 -2.6801262q1.3001099 -0.8237381 3.2141113 -0.5228882q1.9294434 0.30327797 2.8861694 1.5608425q0.9591675 1.2421322 0.7089844 2.8319416q-0.12628174 0.80262184 -0.5897217 1.5364323q-0.44561768 0.7208023 -1.3533936 1.4638538q-0.8899536 0.7300434 -2.9030762 1.9636631q-1.6785889 1.0173206 -2.1812134 1.3970032q-0.4847412 0.36667442 -0.83306885 0.77061844l6.5910034 1.0359936zm2.246643 6.0313835l-1.1730957 -0.18439102q3.4243164 -3.9695473 4.1190186 -8.38397q0.26965332 -1.7132893 0.15093994 -3.4717999q-0.10797119 -1.4246674 -0.46447754 -2.7776852q-0.22381592 -0.8892956 -1.0339966 -2.9779282l1.1730957 0.18439293q1.3668823 2.571556 1.8206177 5.015402q0.39666748 2.102726 0.051757812 4.2945023q-0.38867188 2.4696064 -1.710022 4.6344357q-1.3034668 2.151825 -2.933838 3.6670418z" fill-rule="nonzero"></path><path stroke="#6aa84f" stroke-width="2.0" stroke-linejoin="round" stroke-linecap="butt" d="m730.8944 135.86035l56.01422 74.20203" fill-rule="evenodd"></path><path fill="#6aa84f" stroke="#6aa84f" stroke-width="2.0" stroke-linecap="butt" d="m784.27203 212.0527l8.104919 5.253601l-2.831787 -9.234238z" fill-rule="evenodd"></path><path stroke="#6aa84f" stroke-width="2.0" stroke-linejoin="round" stroke-linecap="butt" d="m825.1102 362.99213l-18.000916 91.59531" fill-rule="evenodd"></path><path fill="#6aa84f" stroke="#6aa84f" stroke-width="2.0" stroke-linecap="butt" d="m803.86786 453.9504l1.4912109 9.542877l4.991699 -8.268829z" fill-rule="evenodd"></path><path stroke="#6aa84f" stroke-width="2.0" stroke-linejoin="round" stroke-linecap="butt" d="m823.1522 369.90552l-86.7948 199.07874" fill-rule="evenodd"></path><path fill="#6aa84f" stroke="#6aa84f" stroke-width="2.0" stroke-linecap="butt" d="m733.3293 567.664l-0.5991211 9.640076l6.6555176 -6.999634z" fill-rule="evenodd"></path><path fill="#000000" d="m783.5733 178.2048l14.046387 -10.226929l2.1608887 2.9687042l-1.1115723 0.8093262l-1.1862183 -1.6296234l-11.810547 8.599091l1.1861572 1.6296234l-1.1242065 0.8185272l-2.1608887 -2.9687195zm8.718262 -0.5544739l1.1607056 1.2229462q-0.98394775 1.0643158 -1.0845947 1.9880371q-0.0914917 0.93634033 0.48779297 1.7322083q0.69885254 0.96009827 1.8338623 1.1387634q1.147644 0.16947937 2.1202393 -0.53868103q0.92211914 -0.6713867 1.0778809 -1.731842q0.16491699 -1.047821 -0.5155029 -1.9826508q-0.2758789 -0.37898254 -0.84124756 -0.83709717l1.2977295 -0.7129059q0.0793457 0.13552856 0.14367676 0.22395325q0.6253052 0.85902405 1.5639648 1.2192993q0.9604492 0.36372375 1.8952026 -0.31684875q0.74523926 -0.5426178 0.8574219 -1.3974152q0.1340332 -0.8513489 -0.44525146 -1.6472168q-0.5701294 -0.78323364 -1.4489746 -0.95513916q-0.8696289 -0.15925598 -1.9778442 0.4156952l-0.7438965 -1.5264435q1.5389404 -0.75323486 2.9186401 -0.42419434q1.388977 0.3416748 2.3452759 1.6554871q0.65283203 0.8969269 0.8129883 1.9400024q0.17272949 1.0338745 -0.21166992 1.9129333q-0.37524414 0.89167786 -1.1204834 1.4342957q-0.72003174 0.5242157 -1.5769043 0.56829834q-0.8569336 0.044067383 -1.7623291 -0.45639038q0.50250244 1.1417084 0.16870117 2.1965027q-0.31201172 1.0582428 -1.3730469 1.83078q-1.4400024 1.0484467 -3.2011108 0.7264862q-1.7611084 -0.3219757 -2.928894 -1.9263458q-1.0574341 -1.4527588 -0.89733887 -3.0382538q0.16931152 -1.5728455 1.4450073 -2.714264zm3.7249146 11.224106l1.5410767 -1.1220093l1.1218262 1.5411987l-1.5410767 1.1220245q-0.8463135 0.6161804 -1.5848999 0.69007874q-0.7512207 0.08306885 -1.4980469 -0.35887146l0.30517578 -0.8020325q0.48950195 0.30075073 1.0029297 0.23617554q0.51342773 -0.064590454 1.2139282 -0.5359497l-0.5609131 -0.7706146zm5.6710205 7.7910614l2.6273804 -1.9129639l-3.47583 -4.7751923l1.237915 -0.9012909l10.783936 -0.15919495l0.7999878 1.09906l-7.1242065 5.187042l1.085022 1.4906616l-1.237915 0.90130615l-1.085022 -1.4906769l-2.6273804 1.9129486l-0.9838867 -1.3516998zm3.8652954 -2.8142548l4.9642334 -3.61438l-7.465393 0.17825317l2.5011597 3.4361267zm-3.227356 10.48764l-0.69885254 -0.960083q5.2276 -0.38511658 8.84021 -3.0154266q1.4020996 -1.0208435 2.5617065 -2.3483276q0.93115234 -1.0838165 1.6358643 -2.2927399q0.4706421 -0.78718567 1.3748779 -2.8371582l0.69885254 0.960083q-0.8522339 2.7852173 -2.2596436 4.8342896q-1.2064819 1.7675018 -3.000183 3.073471q-2.0210571 1.4714966 -4.485901 2.0677948q-2.4429932 0.59973145 -4.666931 0.5180969z" fill-rule="nonzero"></path><path fill="#000000" d="m736.9551 558.9516l-15.929138 -6.939087l1.4666138 -3.366272l1.2606201 0.5491333l-0.80511475 1.8479004l13.393677 5.8345947l0.80511475 -1.8479004l1.2749023 0.5554199l-1.4666748 3.366211zm-7.5497437 -17.839172l-0.5469971 1.5683594q-0.9898071 -0.19262695 -1.5594482 0.01940918q-0.9273071 0.32891846 -1.3204956 1.2313232q-0.32452393 0.74487305 -0.1605835 1.4639282q0.21173096 0.9614258 1.0477905 1.8199463q0.82177734 0.85217285 2.6920776 1.68396q-0.60180664 -0.92681885 -0.65960693 -1.8893433q-0.06591797 -0.9831543 0.3147583 -1.8569336q0.6678467 -1.5327148 2.2675781 -2.1140747q1.5997314 -0.58135986 3.3759766 0.19244385q1.1746826 0.5116577 1.9732666 1.4560547q0.78430176 0.9381714 0.9417114 2.0634155q0.1430664 1.1190186 -0.34375 2.2363281q-0.8363037 1.9194946 -2.7643433 2.5111694q-1.9424438 0.58551025 -5.1655273 -0.8185425q-3.6241455 -1.5787964 -4.676758 -3.6223145q-0.92700195 -1.7843018 -0.06573486 -3.7611084q0.6428833 -1.4754028 1.8793945 -2.0445557q1.2283936 -0.5897217 2.770691 -0.13946533zm2.6506958 8.585571q0.7878418 0.34320068 1.6619263 0.3319702q0.86602783 -0.03173828 1.5149536 -0.4649048q0.6345825 -0.4393921 0.92163086 -1.0983276q0.42443848 -0.97406006 -0.049560547 -1.9985962q-0.48205566 -1.045105 -1.8285522 -1.6316528q-1.2892456 -0.5616455 -2.3337402 -0.19854736q-1.0444336 0.36309814 -1.500061 1.4087524q-0.44934082 1.0313721 -0.022766113 2.0864258q0.43286133 1.0407104 1.6361694 1.5648804zm7.8032227 -6.87854l-1.7476196 -0.76135254l0.7614136 -1.7475586l1.7476196 0.7612915q0.95977783 0.41809082 1.3972778 1.0177612q0.4519043 0.60583496 0.44873047 1.4736938l-0.8461914 0.1427002q0.011657715 -0.57440186 -0.30389404 -0.9845581q-0.31555176 -0.41015625 -1.0765991 -0.7758179l-0.3807373 0.87384033zm-4.0231323 -9.22998q-0.7619629 0.8099365 -1.6062622 0.9875488q-0.8587036 0.17132568 -1.7611694 -0.22180176q-1.3608398 -0.5928345 -1.8532104 -1.9662476q-0.5004883 -1.394043 0.20477295 -3.0126953q0.7114868 -1.6329956 2.0875244 -2.2094727q1.3823242 -0.59088135 2.743164 0.001953125q0.87384033 0.38061523 1.3187256 1.119812q0.45117188 0.7248535 0.38928223 1.8057251q0.8717041 -0.9837036 1.9647217 -1.2233887q1.0929565 -0.23968506 2.2532349 0.26574707q1.6043701 0.6989136 2.2000122 2.3048096q0.5956421 1.605896 -0.20947266 3.4537354q-0.8050537 1.8478394 -2.3867798 2.505249q-1.5960693 0.65112305 -3.229126 -0.060302734q-1.2175903 -0.5303955 -1.7657471 -1.5020142q-0.54815674 -0.9716797 -0.3496704 -2.2486572zm-2.723877 -0.8286743q0.8881836 0.38690186 1.6902466 0.07159424q0.8082886 -0.32958984 1.2077026 -1.2463379q0.3807373 -0.8737793 0.06542969 -1.6758423q-0.309021 -0.8163452 -1.111206 -1.1657715q-0.8451538 -0.36816406 -1.6740112 -0.030517578q-0.82263184 0.3234253 -1.2033691 1.1972046q-0.38067627 0.8737793 -0.07165527 1.6901245q0.309021 0.8163452 1.0968628 1.1595459zm5.540161 3.0099487q0.65893555 0.28704834 1.4059448 0.2545166q0.73895264 -0.05303955 1.3511353 -0.5192261q0.59783936 -0.4724121 0.9036255 -1.1743164q0.48059082 -1.1029663 0.09069824 -2.124939q-0.4041748 -1.0282593 -1.4928589 -1.5025024q-1.1030273 -0.4805298 -2.1437988 -0.047668457q-1.0488281 0.41229248 -1.529419 1.5153198q-0.4743042 1.088623 -0.070129395 2.1168823q0.41046143 1.013916 1.4848022 1.4819336zm11.350891 -6.2194214l-0.47436523 1.0886841q-2.9778442 -4.313904 -7.074768 -6.098572q-1.5900269 -0.692688 -3.3218384 -1.0209961q-1.4059448 -0.25457764 -2.8052368 -0.25061035q-0.91711426 -0.007507324 -3.1427612 0.25012207l0.47436523 -1.0886841q2.833374 -0.67456055 5.312866 -0.4977417q2.1350098 0.14611816 4.1691284 1.0322266q2.2919922 0.9984131 4.053772 2.8225708q1.7536621 1.8035889 2.808838 3.7630005z" fill-rule="nonzero"></path><path stroke="#6aa84f" stroke-width="2.0" stroke-linejoin="round" stroke-linecap="butt" d="m488.90497 681.737l-92.01013 -12.98053" fill-rule="evenodd"></path><path fill="#6aa84f" stroke="#6aa84f" stroke-width="2.0" stroke-linecap="butt" d="m397.35632 665.4854l-9.448669 2.0031738l8.525726 4.5390015z" fill-rule="evenodd"></path><path stroke="#6aa84f" stroke-width="2.0" stroke-linejoin="round" stroke-linecap="butt" d="m488.92914 682.2992l-200.55911 -82.6709" fill-rule="evenodd"></path><path fill="#6aa84f" stroke="#6aa84f" stroke-width="2.0" stroke-linecap="butt" d="m289.62897 596.5741l-9.6502075 -0.40472412l7.132324 6.5130615z" fill-rule="evenodd"></path><path stroke="#6aa84f" stroke-width="2.0" stroke-linejoin="round" stroke-linecap="butt" d="m488.90497 681.737l-302.7307 -303.94836" fill-rule="evenodd"></path><path fill="#6aa84f" stroke="#6aa84f" stroke-width="2.0" stroke-linecap="butt" d="m188.51486 375.45743l-8.745544 -4.099518l4.0643616 8.761932z" fill-rule="evenodd"></path><path fill="#000000" d="m296.43747 600.30804l6.2738647 -16.202759l3.4243164 1.3253784l-0.49649048 1.2822876l-1.8797302 -0.7276001l-5.275238 13.623718l1.8797302 0.7276001l-0.50213623 1.2967529l-3.4243164 -1.3253784zm4.9606323 -2.1345825l9.789978 -10.787231l1.8068848 0.6993408l0.2789917 14.684448l-1.908905 -0.73883057l0.0032043457 -4.421936l-5.304077 -2.0529785l-2.8737793 3.310913l-1.7922974 -0.6937256zm5.6716614 -3.7861328l4.2986145 1.6637573l0.053894043 -4.0336914q0.0029907227 -1.8251343 0.11212158 -2.9724731q-0.72164917 1.1281128 -1.6214294 2.1536865l-2.8432007 3.1887207zm7.535858 8.898132l0.688324 -1.7776489l1.7777405 0.68811035l-0.688324 1.7775879q-0.37802124 0.9762573 -0.9590454 1.4382935q-0.58670044 0.47662354 -1.4539795 0.5095825l-0.1776123 -0.83947754q0.5744324 -0.012207031 0.9711914 -0.34454346q0.39675903 -0.33233643 0.7305603 -1.1078491l-0.888855 -0.34405518zm15.399628 0.85028076l1.5121155 1.071167q-1.3257446 1.8660278 -3.1186218 2.428711q-1.7872314 0.54803467 -3.768982 -0.21899414q-2.054596 -0.79522705 -3.0152893 -2.1220703q-0.9550781 -1.3414307 -1.0160217 -3.1744995q-0.05532837 -1.8476562 0.64990234 -3.6690063q0.767334 -1.9816284 2.0803223 -3.1656494q1.3275452 -1.1784058 3.019806 -1.3946533q1.6979065 -0.23077393 3.3736267 0.41778564q1.9088745 0.73883057 2.8277588 2.217041q0.9244995 1.463623 0.7574463 3.409546l-1.7989197 -0.24389648q0.098846436 -1.5534668 -0.5036926 -2.50708q-0.5969238 -0.9682617 -1.8646545 -1.4589233q-1.4571533 -0.5640259 -2.7188416 -0.24810791q-1.2471008 0.32147217 -2.1177368 1.3583984q-0.85043335 1.0279541 -1.3356628 2.281067q-0.6262512 1.6173096 -0.62823486 3.0072021q0.018218994 1.3809204 0.777771 2.3618164q0.7741089 0.98657227 1.9252625 1.4321289q1.4134521 0.5470581 2.7000427 0.123535156q1.2922668 -0.43804932 2.2626038 -1.9055176zm1.1665344 9.85083l-1.1074524 -0.4286499q4.187134 -3.154419 5.8007507 -7.3216553q0.6262512 -1.6173706 0.88256836 -3.361145q0.19613647 -1.4152222 0.13421631 -2.8131104q-0.03048706 -0.9165039 -0.3800354 -3.1293945l1.1074219 0.4286499q0.79138184 2.8027344 0.7173767 5.2872925q-0.057525635 2.139038 -0.8586731 4.20813q-0.90270996 2.3312988 -2.6524658 4.1672363q-1.7295227 1.8270264 -3.6437073 2.9626465z" fill-rule="nonzero"></path><path fill="#000000" d="m503.68393 623.82806l17.37503 0l-8.544922E-4 3.671875l-1.375 0l4.8828125E-4 -2.015625l-14.6094055 0l-4.272461E-4 2.015625l-1.390625 0l7.9345703E-4 -3.671875zm11.154694 7.2457886q0.3751831 -1.046875 1.0784302 -1.546875q0.7188721 -0.5 1.7032471 -0.5q1.484375 0 2.4841309 1.0625q1.0153809 1.078125 1.0150146 2.84375q-3.6621094E-4 1.78125 -1.0318604 2.859375q-1.0314941 1.09375 -2.5158691 1.09375q-0.953125 0 -1.6561279 -0.5q-0.70306396 -0.484375 -1.0778198 -1.5q-0.40649414 1.25 -1.3129272 1.90625q-0.9063721 0.65625 -2.171997 0.65625q-1.75 0 -2.9372559 -1.234375q-1.1872253 -1.234375 -1.1867676 -3.25q4.272461E-4 -2.015625 1.1882019 -3.25q1.2033997 -1.234375 2.9846497 -1.234375q1.328125 0 2.218628 0.671875q0.8904419 0.671875 1.2183228 1.921875zm2.828186 -0.328125q-0.96875 0 -1.5782471 0.609375q-0.6095581 0.625 -0.6097412 1.625q-2.4414062E-4 0.953125 0.6090088 1.5625q0.6092529 0.625 1.4842529 0.625q0.921875 0 1.5469971 -0.640625q0.6251831 -0.625 0.6253662 -1.578125q1.8310547E-4 -0.953125 -0.6090088 -1.578125q-0.6092529 -0.625 -1.4686279 -0.625zm-6.281128 -0.546875q-0.71875 0 -1.3907166 0.328125q-0.65631104 0.34375 -1.0314636 1.015625q-0.3595276 0.671875 -0.35968018 1.4375q-2.746582E-4 1.203125 0.76516724 1.984375q0.7810974 0.78125 1.9685974 0.78125q1.203125 0 1.9845581 -0.8125q0.7970581 -0.796875 0.79730225 -2.0q2.4414062E-4 -1.1875 -0.78082275 -1.96875q-0.7810669 -0.765625 -1.9529419 -0.765625zm-3.9239807 9.578857l1.90625 0l-4.272461E-4 1.90625l-1.90625 0q-1.046875 0 -1.6874084 -0.375q-0.65615845 -0.375 -0.99975586 -1.171875l0.7188721 -0.46875q0.21862793 0.53125 0.6716919 0.78125q0.45306396 0.25 1.296814 0.28125l2.1362305E-4 -0.953125zm6.702179 4.2770386q2.421875 0 3.890503 0.5q1.468689 0.5 2.2653198 1.46875q0.7966919 0.984375 0.7963257 2.46875q-2.4414062E-4 1.09375 -0.43792725 1.921875q-0.4376831 0.828125 -1.2815552 1.359375q-0.82818604 0.546875 -2.015808 0.84375q-1.187561 0.3125 -3.218811 0.3125q-2.3905945 0 -3.859253 -0.5q-1.4686279 -0.484375 -2.2809143 -1.46875q-0.7966614 -0.96875 -0.7963562 -2.46875q4.5776367E-4 -1.96875 1.4069519 -3.078125q1.7033997 -1.359375 5.5315247 -1.359375zm-3.6621094E-4 1.71875q-3.34375 0 -4.453308 0.78125q-1.1095276 0.796875 -1.1098022 1.9375q-2.4414062E-4 1.15625 1.1089783 1.9375q1.1248169 0.78125 4.4529114 0.78125q3.359375 0 4.468933 -0.78125q1.1095581 -0.78125 1.1098022 -1.953125q2.4414062E-4 -1.15625 -0.98394775 -1.828125q-1.2341919 -0.875 -4.593567 -0.875zm-10.705353 10.219482l2.4414062E-4 -1.1875q4.4525146 2.765625 8.921295 2.765625q1.734375 0 3.453186 -0.390625q1.390686 -0.328125 2.672058 -0.890625q0.8438721 -0.359375 2.7816162 -1.484375l-3.0517578E-4 1.1875q-2.3284912 1.75 -4.6724243 2.578125q-2.015747 0.71875 -4.234497 0.71875q-2.5000305 0 -4.843567 -0.96875q-2.3279114 -0.953125 -4.077606 -2.328125z" fill-rule="nonzero"></path><path stroke="#3c78d8" stroke-width="2.0" stroke-linejoin="round" stroke-linecap="butt" d="m262.8084 580.1522l-51.67578 -74.42645" fill-rule="evenodd"></path><path fill="#3c78d8" stroke="#3c78d8" stroke-width="2.0" stroke-linecap="butt" d="m213.84616 503.84174l-7.889923 -5.571289l2.4628754 9.339386z" fill-rule="evenodd"></path><path stroke="#3c78d8" stroke-width="2.0" stroke-linejoin="round" stroke-linecap="butt" d="m171.58005 358.02887l18.978027 -100.86835" fill-rule="evenodd"></path><path fill="#3c78d8" stroke="#3c78d8" stroke-width="2.0" stroke-linecap="butt" d="m193.80458 257.77136l-1.5682983 -9.530518l-4.924713 8.308868z" fill-rule="evenodd"></path><path stroke="#3c78d8" stroke-width="2.0" stroke-linejoin="round" stroke-linecap="butt" d="m170.55118 358.01614l87.07004 -210.6736" fill-rule="evenodd"></path><path fill="#3c78d8" stroke="#3c78d8" stroke-width="2.0" stroke-linecap="butt" d="m260.67422 148.60432l0.4137268 -9.649826l-6.5197144 7.126251z" fill-rule="evenodd"></path><path stroke="#a64d79" stroke-width="2.0" stroke-linejoin="round" stroke-linecap="butt" d="m279.6629 121.00781l69.7847 -48.7499" fill-rule="evenodd"></path><path fill="#a64d79" stroke="#a64d79" stroke-width="2.0" stroke-linecap="butt" d="m351.33942 74.96603l5.548645 -7.9058533l-9.332306 2.489624z" fill-rule="evenodd"></path><path stroke="#3c78d8" stroke-width="2.0" stroke-linejoin="round" stroke-linecap="butt" d="m719.0083 600.0l-71.19049 49.553894" fill-rule="evenodd"></path><path fill="#3c78d8" stroke="#3c78d8" stroke-width="2.0" stroke-linecap="butt" d="m645.93054 646.8426l-5.5619507 7.8964844l9.336487 -2.473938z" fill-rule="evenodd"></path><path fill="#00ffff" stroke="#000000" stroke-width="2.0" stroke-linejoin="round" stroke-linecap="butt" d="m484.4908 26.17323l0 0c0 -8.32341 6.747467 -15.070867 15.070862 -15.070867l0 0c3.9970398 0 7.8303833 1.5878181 10.656708 4.414154c2.826355 2.8263369 4.4141846 6.659669 4.4141846 10.656713l0 0c0 8.32341 -6.747467 15.070866 -15.070892 15.070866l0 0c-8.323395 0 -15.070862 -6.7474556 -15.070862 -15.070866z" fill-rule="nonzero"></path><path fill="#000000" d="m495.15506 25.634167q0 -2.421875 0.5 -3.890625q0.5 -1.46875 1.46875 -2.265625q0.984375 -0.796875 2.46875 -0.796875q1.09375 0 1.921875 0.4375q0.828125 0.4375 1.359375 1.28125q0.546875 0.828125 0.84375 2.015625q0.3125 1.1875 0.3125 3.21875q0 2.390625 -0.5 3.859375q-0.484375 1.46875 -1.46875 2.28125q-0.96875 0.796875 -2.46875 0.796875q-1.96875 0 -3.078125 -1.40625q-1.359375 -1.703125 -1.359375 -5.53125zm1.71875 0q0 3.34375 0.78125 4.453125q0.796875 1.109375 1.9375 1.109375q1.15625 0 1.9375 -1.109375q0.78125 -1.125 0.78125 -4.453125q0 -3.359375 -0.78125 -4.46875q-0.78125 -1.109375 -1.953125 -1.109375q-1.15625 0 -1.828125 0.984375q-0.875 1.234375 -0.875 4.59375z" fill-rule="nonzero"></path><path fill="#cfe2f3" stroke="#000000" stroke-width="2.0" stroke-linejoin="round" stroke-linecap="butt" d="m484.4908 692.3937l0 0c0 -8.323364 6.747467 -15.070862 15.070862 -15.070862l0 0c3.9970398 0 7.8303833 1.5878296 10.656708 4.4141846c2.826355 2.826355 4.4141846 6.659668 4.4141846 10.656677l0 0c0 8.323425 -6.747467 15.070862 -15.070892 15.070862l0 0c-8.323395 0 -15.070862 -6.7474365 -15.070862 -15.070862z" fill-rule="nonzero"></path><path fill="#000000" d="m497.7332 691.18274q-1.046875 -0.375 -1.546875 -1.078125q-0.5 -0.71875 -0.5 -1.703125q0 -1.484375 1.0625 -2.484375q1.078125 -1.015625 2.84375 -1.015625q1.78125 0 2.859375 1.03125q1.09375 1.03125 1.09375 2.515625q0 0.953125 -0.5 1.65625q-0.484375 0.703125 -1.5 1.078125q1.25 0.40625 1.90625 1.3125q0.65625 0.90625 0.65625 2.171875q0 1.75 -1.234375 2.9375q-1.234375 1.1875 -3.25 1.1875q-2.015625 0 -3.25 -1.1875q-1.234375 -1.203125 -1.234375 -2.984375q0 -1.328125 0.671875 -2.21875q0.671875 -0.890625 1.921875 -1.21875zm-0.328125 -2.828125q0 0.96875 0.609375 1.578125q0.625 0.609375 1.625 0.609375q0.953125 0 1.5625 -0.609375q0.625 -0.609375 0.625 -1.484375q0 -0.921875 -0.640625 -1.546875q-0.625 -0.625 -1.578125 -0.625q-0.953125 0 -1.578125 0.609375q-0.625 0.609375 -0.625 1.46875zm-0.546875 6.28125q0 0.71875 0.328125 1.390625q0.34375 0.65625 1.015625 1.03125q0.671875 0.359375 1.4375 0.359375q1.203125 0 1.984375 -0.765625q0.78125 -0.78125 0.78125 -1.96875q0 -1.203125 -0.8125 -1.984375q-0.796875 -0.796875 -2.0 -0.796875q-1.1875 0 -1.96875 0.78125q-0.765625 0.78125 -0.765625 1.953125z" fill-rule="nonzero"></path><path fill="#cfe2f3" stroke="#000000" stroke-width="2.0" stroke-linejoin="round" stroke-linecap="butt" d="m354.8708 667.0802l0 0c0 -8.323425 6.7474365 -15.070862 15.070862 -15.070862l0 0c3.9970398 0 7.8303833 1.5877686 10.656708 4.4141235c2.8263245 2.826355 4.414154 6.659668 4.414154 10.656738l0 0c0 8.323364 -6.747467 15.070862 -15.070862 15.070862l0 0c-8.323425 0 -15.070862 -6.7474976 -15.070862 -15.070862z" fill-rule="nonzero"></path><path fill="#000000" d="m365.80066 670.10364l1.59375 -0.15625q0.203125 1.140625 0.78125 1.65625q0.578125 0.5 1.484375 0.5q0.765625 0 1.34375 -0.34375q0.578125 -0.359375 0.953125 -0.953125q0.375 -0.59375 0.625 -1.59375q0.25 -1.0 0.25 -2.03125q0 -0.109375 -0.015625 -0.34375q-0.5 0.796875 -1.375 1.296875q-0.859375 0.5 -1.875 0.5q-1.6875 0 -2.859375 -1.21875q-1.171875 -1.234375 -1.171875 -3.234375q0 -2.078125 1.21875 -3.328125q1.234375 -1.265625 3.0625 -1.265625q1.328125 0 2.421875 0.71875q1.109375 0.703125 1.671875 2.03125q0.578125 1.328125 0.578125 3.828125q0 2.609375 -0.578125 4.15625q-0.5625 1.546875 -1.6875 2.359375q-1.109375 0.796875 -2.609375 0.796875q-1.59375 0 -2.609375 -0.890625q-1.0 -0.890625 -1.203125 -2.484375zm6.828125 -6.0q0 -1.4375 -0.765625 -2.28125q-0.765625 -0.859375 -1.84375 -0.859375q-1.109375 0 -1.9375 0.921875q-0.828125 0.90625 -0.828125 2.34375q0 1.3125 0.78125 2.125q0.796875 0.796875 1.9375 0.796875q1.171875 0 1.90625 -0.796875q0.75 -0.8125 0.75 -2.25z" fill-rule="nonzero"></path><path fill="#cfe2f3" stroke="#000000" stroke-width="2.0" stroke-linejoin="round" stroke-linecap="butt" d="m247.13387 595.0551l0 0c0 -8.323425 6.747452 -15.070862 15.070847 -15.070862l0 0c3.9970703 0 7.8303833 1.5878296 10.656738 4.4141235c2.8263245 2.826355 4.414154 6.659729 4.414154 10.656738l0 0c0 8.323425 -6.747467 15.070862 -15.070892 15.070862l0 0c-8.323395 0 -15.070847 -6.7474365 -15.070847 -15.070862z" fill-rule="nonzero"></path><path fill="#000000" d="m255.95169 601.2192l5.234375 -13.59375l1.9375 0l5.5625 13.59375l-2.046875 0l-1.59375 -4.125l-5.6875 0l-1.484375 4.125l-1.921875 0zm3.921875 -5.578125l4.609375 0l-1.40625 -3.78125q-0.65625 -1.703125 -0.96875 -2.8125q-0.265625 1.3125 -0.734375 2.59375l-1.5 4.0z" fill-rule="nonzero"></path><path fill="#cfe2f3" stroke="#000000" stroke-width="2.0" stroke-linejoin="round" stroke-linecap="butt" d="m789.7244 230.29659l0 0c0 -8.32341 6.7474365 -15.070862 15.070862 -15.070862l0 0c3.9970093 0 7.8303833 1.5878143 10.656677 4.414154c2.826355 2.8263397 4.4141846 6.659668 4.4141846 10.656708l0 0c0 8.32341 -6.7474365 15.070877 -15.070862 15.070877l0 0c-8.323425 0 -15.070862 -6.747467 -15.070862 -15.070877z" fill-rule="nonzero"></path><path fill="#000000" d="m800.4043 232.8669l1.671875 -0.21875q0.28125 1.421875 0.96875 2.046875q0.703125 0.625 1.6875 0.625q1.1875 0 2.0 -0.8125q0.8125 -0.828125 0.8125 -2.03125q0 -1.140625 -0.765625 -1.890625q-0.75 -0.75 -1.90625 -0.75q-0.46875 0 -1.171875 0.1875l0.1875 -1.46875q0.15625 0.015625 0.265625 0.015625q1.0625 0 1.90625 -0.546875q0.859375 -0.5625 0.859375 -1.71875q0 -0.921875 -0.625 -1.515625q-0.609375 -0.609375 -1.59375 -0.609375q-0.96875 0 -1.625 0.609375q-0.640625 0.609375 -0.828125 1.84375l-1.671875 -0.296875q0.296875 -1.6875 1.375 -2.609375q1.09375 -0.921875 2.71875 -0.921875q1.109375 0 2.046875 0.484375q0.9375 0.46875 1.421875 1.296875q0.5 0.828125 0.5 1.75q0 0.890625 -0.46875 1.609375q-0.46875 0.71875 -1.40625 1.15625q1.21875 0.265625 1.875 1.15625q0.671875 0.875 0.671875 2.1875q0 1.78125 -1.296875 3.015625q-1.296875 1.234375 -3.28125 1.234375q-1.796875 0 -2.984375 -1.0625q-1.171875 -1.0625 -1.34375 -2.765625z" fill-rule="nonzero"></path><path fill="#cfe2f3" stroke="#000000" stroke-width="2.0" stroke-linejoin="round" stroke-linecap="butt" d="m177.70604 488.93964l0 0c0 -8.323425 6.747452 -15.070862 15.070862 -15.070862l0 0c3.9970398 0 7.8303833 1.5877991 10.656708 4.414154c2.8263397 2.8263245 4.414154 6.659668 4.414154 10.656708l0 0c0 8.323395 -6.747452 15.070862 -15.070862 15.070862l0 0c-8.32341 0 -15.070862 -6.747467 -15.070862 -15.070862z" fill-rule="nonzero"></path><path fill="#000000" d="m187.94574 495.1037l0 -13.59375l5.109375 0q1.546875 0 2.484375 0.40625q0.953125 0.40625 1.484375 1.265625q0.53125 0.859375 0.53125 1.796875q0 0.875 -0.46875 1.65625q-0.46875 0.765625 -1.4375 1.234375q1.234375 0.359375 1.890625 1.234375q0.671875 0.875 0.671875 2.0625q0 0.953125 -0.40625 1.78125q-0.390625 0.8125 -0.984375 1.265625q-0.59375 0.4375 -1.5 0.671875q-0.890625 0.21875 -2.1875 0.21875l-5.1875 0zm1.796875 -7.890625l2.9375 0q1.203125 0 1.71875 -0.15625q0.6875 -0.203125 1.03125 -0.671875q0.359375 -0.46875 0.359375 -1.1875q0 -0.671875 -0.328125 -1.1875q-0.328125 -0.515625 -0.9375 -0.703125q-0.59375 -0.203125 -2.0625 -0.203125l-2.71875 0l0 4.109375zm0 6.28125l3.390625 0q0.875 0 1.21875 -0.0625q0.625 -0.109375 1.046875 -0.359375q0.421875 -0.265625 0.6875 -0.765625q0.265625 -0.5 0.265625 -1.140625q0 -0.765625 -0.390625 -1.328125q-0.390625 -0.5625 -1.078125 -0.78125q-0.6875 -0.234375 -1.984375 -0.234375l-3.15625 0l0 4.671875z" fill-rule="nonzero"></path><path fill="#cfe2f3" stroke="#000000" stroke-width="2.0" stroke-linejoin="round" stroke-linecap="butt" d="m789.7244 481.43307l0 0c0 -8.323425 6.7474365 -15.070862 15.070862 -15.070862l0 0c3.9970093 0 7.8303833 1.5877991 10.656677 4.414154c2.826355 2.8263245 4.4141846 6.659668 4.4141846 10.656708l0 0c0 8.323395 -6.7474365 15.070862 -15.070862 15.070862l0 0c-8.323425 0 -15.070862 -6.747467 -15.070862 -15.070862z" fill-rule="nonzero"></path><path fill="#000000" d="m800.3887 484.03464l1.765625 -0.15625q0.1875 1.28125 0.890625 1.9375q0.71875 0.640625 1.71875 0.640625q1.203125 0 2.03125 -0.90625q0.84375 -0.90625 0.84375 -2.421875q0 -1.421875 -0.8125 -2.25q-0.796875 -0.828125 -2.09375 -0.828125q-0.796875 0 -1.453125 0.375q-0.640625 0.359375 -1.015625 0.953125l-1.578125 -0.203125l1.328125 -7.0l6.765625 0l0 1.609375l-5.4375 0l-0.734375 3.640625q1.234375 -0.84375 2.578125 -0.84375q1.78125 0 3.0 1.234375q1.234375 1.234375 1.234375 3.171875q0 1.84375 -1.078125 3.1875q-1.3125 1.65625 -3.578125 1.65625q-1.859375 0 -3.03125 -1.03125q-1.171875 -1.046875 -1.34375 -2.765625z" fill-rule="nonzero"></path><path fill="#cfe2f3" stroke="#000000" stroke-width="2.0" stroke-linejoin="round" stroke-linecap="butt" d="m177.70604 230.29659l0 0c0 -8.32341 6.747452 -15.070862 15.070862 -15.070862l0 0c3.9970398 0 7.8303833 1.5878143 10.656708 4.414154c2.8263397 2.8263397 4.414154 6.659668 4.414154 10.656708l0 0c0 8.32341 -6.747452 15.070877 -15.070862 15.070877l0 0c-8.32341 0 -15.070862 -6.747467 -15.070862 -15.070877z" fill-rule="nonzero"></path><path fill="#000000" d="m187.50919 236.46065l0 -13.59375l4.6875 0q1.578125 0 2.421875 0.1875q1.15625 0.265625 1.984375 0.96875q1.078125 0.921875 1.609375 2.34375q0.53125 1.40625 0.53125 3.21875q0 1.546875 -0.359375 2.75q-0.359375 1.1875 -0.921875 1.984375q-0.5625 0.78125 -1.234375 1.234375q-0.671875 0.4375 -1.625 0.671875q-0.953125 0.234375 -2.1875 0.234375l-4.90625 0zm1.796875 -1.609375l2.90625 0q1.34375 0 2.109375 -0.25q0.765625 -0.25 1.21875 -0.703125q0.640625 -0.640625 1.0 -1.71875q0.359375 -1.078125 0.359375 -2.625q0 -2.125 -0.703125 -3.265625q-0.703125 -1.15625 -1.703125 -1.546875q-0.71875 -0.28125 -2.328125 -0.28125l-2.859375 0l0 10.390625z" fill-rule="nonzero"></path><path fill="#cfe2f3" stroke="#000000" stroke-width="2.0" stroke-linejoin="round" stroke-linecap="butt" d="m716.4908 595.0551l0 0c0 -8.323425 6.7474976 -15.070862 15.070923 -15.070862l0 0c3.9970093 0 7.8303223 1.5878296 10.656677 4.4141235c2.826355 2.826355 4.4141846 6.659729 4.4141846 10.656738l0 0c0 8.323425 -6.7474976 15.070862 -15.070862 15.070862l0 0c-8.323425 0 -15.070923 -6.7474365 -15.070923 -15.070862z" fill-rule="nonzero"></path><path fill="#000000" d="m735.82697 590.95355l-1.65625 0.125q-0.21875 -0.984375 -0.640625 -1.421875q-0.671875 -0.71875 -1.65625 -0.71875q-0.8125 0 -1.40625 0.4375q-0.796875 0.578125 -1.25 1.6875q-0.453125 1.09375 -0.46875 3.140625q0.609375 -0.921875 1.46875 -1.359375q0.875 -0.453125 1.828125 -0.453125q1.671875 0 2.84375 1.234375q1.171875 1.234375 1.171875 3.171875q0 1.28125 -0.546875 2.390625q-0.546875 1.09375 -1.515625 1.6875q-0.96875 0.578125 -2.1875 0.578125q-2.09375 0 -3.40625 -1.53125q-1.3125 -1.546875 -1.3125 -5.0625q0 -3.953125 1.453125 -5.734375q1.265625 -1.5625 3.421875 -1.5625q1.609375 0 2.625 0.90625q1.03125 0.890625 1.234375 2.484375zm-6.8125 5.859375q0 0.859375 0.359375 1.65625q0.375 0.78125 1.03125 1.203125q0.65625 0.40625 1.375 0.40625q1.0625 0 1.8125 -0.84375q0.765625 -0.859375 0.765625 -2.328125q0 -1.40625 -0.75 -2.21875q-0.75 -0.8125 -1.890625 -0.8125q-1.125 0 -1.921875 0.8125q-0.78125 0.8125 -0.78125 2.125z" fill-rule="nonzero"></path><path fill="#cfe2f3" stroke="#000000" stroke-width="2.0" stroke-linejoin="round" stroke-linecap="butt" d="m247.13387 122.173225l0 0c0 -8.32341 6.747452 -15.070862 15.070847 -15.070862l0 0c3.9970703 0 7.8303833 1.5878143 10.656738 4.414154c2.8263245 2.826332 4.414154 6.659668 4.414154 10.656708l0 0c0 8.323418 -6.747467 15.070869 -15.070892 15.070869l0 0c-8.323395 0 -15.070847 -6.747452 -15.070847 -15.070869z" fill-rule="nonzero"></path><path fill="#000000" d="m257.48294 128.3373l0 -13.593758l9.84375 0l0 1.59375l-8.046875 0l0 4.171875l7.53125 0l0 1.59375l-7.53125 0l0 4.625l8.359375 0l0 1.6093826l-10.15625 0z" fill-rule="nonzero"></path><path fill="#cfe2f3" stroke="#000000" stroke-width="2.0" stroke-linejoin="round" stroke-linecap="butt" d="m613.23157 667.0802l0 0c0 -8.323425 6.7474976 -15.070862 15.070862 -15.070862l0 0c3.9970703 0 7.8303833 1.5877686 10.656738 4.4141235c2.826355 2.826355 4.4141235 6.659668 4.4141235 10.656738l0 0c0 8.323364 -6.7474365 15.070862 -15.070862 15.070862l0 0c-8.323364 0 -15.070862 -6.7474976 -15.070862 -15.070862z" fill-rule="nonzero"></path><path fill="#000000" d="m624.0209 661.43176l0 -1.609375l8.796875 0l0 1.296875q-1.296875 1.375 -2.578125 3.671875q-1.265625 2.296875 -1.96875 4.71875q-0.5 1.703125 -0.640625 3.734375l-1.71875 0q0.03125 -1.609375 0.625 -3.875q0.609375 -2.28125 1.734375 -4.390625q1.140625 -2.109375 2.40625 -3.546875l-6.65625 0z" fill-rule="nonzero"></path><path fill="#cfe2f3" stroke="#000000" stroke-width="2.0" stroke-linejoin="round" stroke-linecap="butt" d="m354.8708 54.729057l0 0c0 -8.32341 6.7474365 -15.070866 15.070862 -15.070866l0 0c3.9970398 0 7.8303833 1.5878181 10.656708 4.414154c2.8263245 2.826336 4.414154 6.659668 4.414154 10.656712l0 0c0 8.32341 -6.747467 15.070869 -15.070862 15.070869l0 0c-8.323425 0 -15.070862 -6.7474594 -15.070862 -15.070869z" fill-rule="nonzero"></path><path fill="#000000" d="m365.80615 60.89312l0 -13.59375l9.171875 0l0 1.59375l-7.375 0l0 4.21875l6.375 0l0 1.609375l-6.375 0l0 6.171875l-1.796875 0z" fill-rule="nonzero"></path><path fill="#cfe2f3" stroke="#000000" stroke-width="2.0" stroke-linejoin="round" stroke-linecap="butt" d="m718.47424 121.181496l0 0c0 -8.32341 6.7474365 -15.070869 15.070862 -15.070869l0 0c3.9970703 0 7.8303833 1.587822 10.656738 4.414154c2.826294 2.8263397 4.4141235 6.659668 4.4141235 10.656715l0 0c0 8.323402 -6.7474365 15.070869 -15.070862 15.070869l0 0c-8.323425 0 -15.070862 -6.747467 -15.070862 -15.070869z" fill-rule="nonzero"></path><path fill="#000000" d="m737.91974 125.73618l0 1.609375l-8.984375 0q-0.015625 -0.609375 0.1875 -1.15625q0.34375 -0.921875 1.09375 -1.8125q0.765625 -0.890625 2.1875 -2.0625q2.21875 -1.8125 3.0 -2.875q0.78125 -1.0625 0.78125 -2.015625q0 -0.984375 -0.71875 -1.671875q-0.703125 -0.6875 -1.84375 -0.6875q-1.203125 0 -1.9375 0.734375q-0.71875 0.71875 -0.71875 2.0l-1.71875 -0.171875q0.171875 -1.921875 1.328125 -2.921875q1.15625 -1.015625 3.09375 -1.015625q1.953125 0 3.09375 1.09375q1.140625 1.078125 1.140625 2.6875q0 0.8125 -0.34375 1.609375q-0.328125 0.78125 -1.109375 1.65625q-0.765625 0.859375 -2.5625 2.390625q-1.5 1.265625 -1.9375 1.71875q-0.421875 0.4375 -0.703125 0.890625l6.671875 0z" fill-rule="nonzero"></path><path fill="#cfe2f3" stroke="#000000" stroke-width="2.0" stroke-linejoin="round" stroke-linecap="butt" d="m613.23157 54.729057l0 0c0 -8.32341 6.7474976 -15.070866 15.070862 -15.070866l0 0c3.9970703 0 7.8303833 1.5878181 10.656738 4.414154c2.826355 2.826336 4.4141235 6.659668 4.4141235 10.656712l0 0c0 8.32341 -6.7474365 15.070869 -15.070862 15.070869l0 0c-8.323364 0 -15.070862 -6.7474594 -15.070862 -15.070869z" fill-rule="nonzero"></path><path fill="#000000" d="m630.19275 60.89312l-1.671875 0l0 -10.640625q-0.59375 0.578125 -1.578125 1.15625q-0.984375 0.5625 -1.765625 0.859375l0 -1.625q1.40625 -0.65625 2.453125 -1.59375q1.046875 -0.9375 1.484375 -1.8125l1.078125 0l0 13.65625z" fill-rule="nonzero"></path><path fill="#cfe2f3" stroke="#000000" stroke-width="2.0" stroke-linejoin="round" stroke-linecap="butt" d="m819.86615 350.70364l0 0c0 -8.323395 6.7474365 -15.070862 15.070862 -15.070862l0 0c3.9970093 0 7.8303833 1.5878296 10.656738 4.414154c2.826294 2.826355 4.4141235 6.659668 4.4141235 10.656708l0 0c0 8.323425 -6.7474365 15.070892 -15.070862 15.070892l0 0c-8.323425 0 -15.070862 -6.747467 -15.070862 -15.070892z" fill-rule="nonzero"></path><path fill="#000000" d="m835.8898 356.8677l0 -3.25l-5.90625 0l0 -1.53125l6.21875 -8.8125l1.359375 0l0 8.8125l1.84375 0l0 1.53125l-1.84375 0l0 3.25l-1.671875 0zm0 -4.78125l0 -6.140625l-4.25 6.140625l4.25 0z" fill-rule="nonzero"></path><path fill="#cfe2f3" stroke="#000000" stroke-width="2.0" stroke-linejoin="round" stroke-linecap="butt" d="m147.5643 369.28635l0 0c0 -8.323425 6.747467 -15.070892 15.070877 -15.070892l0 0c3.9970398 0 7.830368 1.5878296 10.656708 4.4141846c2.8263397 2.8263245 4.414154 6.659668 4.414154 10.656708l0 0c0 8.323395 -6.747452 15.070862 -15.070862 15.070862l0 0c-8.32341 0 -15.070877 -6.747467 -15.070877 -15.070862z" fill-rule="nonzero"></path><path fill="#000000" d="m167.07057 370.68478l1.796875 0.453125q-0.5625 2.21875 -2.03125 3.390625q-1.46875 1.15625 -3.59375 1.15625q-2.203125 0 -3.578125 -0.890625q-1.375 -0.90625 -2.09375 -2.59375q-0.71875 -1.703125 -0.71875 -3.65625q0 -2.125 0.796875 -3.703125q0.8125 -1.578125 2.3125 -2.390625q1.5 -0.828125 3.296875 -0.828125q2.046875 0 3.4375 1.046875q1.390625 1.03125 1.9375 2.90625l-1.765625 0.421875q-0.46875 -1.484375 -1.375 -2.15625q-0.90625 -0.6875 -2.265625 -0.6875q-1.5625 0 -2.625 0.75q-1.046875 0.75 -1.484375 2.03125q-0.421875 1.265625 -0.421875 2.609375q0 1.734375 0.5 3.03125q0.515625 1.28125 1.578125 1.921875q1.078125 0.640625 2.3125 0.640625q1.515625 0 2.5625 -0.859375q1.046875 -0.875 1.421875 -2.59375z" fill-rule="nonzero"></path></svg>

