<?xml version="1.0" standalone="yes"?>

<svg version="1.1" viewBox="0.0 0.0 960.0 720.0" fill="none" stroke="none" stroke-linecap="square" stroke-miterlimit="10" clip-path="url(#p.0)" xmlns="http://www.w3.org/2000/svg" xmlns:xlink="http://www.w3.org/1999/xlink"><clipPath id="p.0"><path d="m0 0l960.0 0l0 720.0l-960.0 0l0 -720.0z" clip-rule="nonzero"></path></clipPath><path stroke="#6aa84f" stroke-width="2.0" stroke-linejoin="round" stroke-linecap="butt" d="m693.6987 190.36276l118.760254 118.59561" fill-rule="evenodd"></path><path fill="#6aa84f" stroke="#6aa84f" stroke-width="2.0" stroke-linecap="butt" d="m810.1247 311.2959l8.756531 4.0758667l-4.0879517 -8.750916z" fill-rule="evenodd"></path><path stroke="#f1c232" stroke-width="2.0" stroke-linejoin="round" stroke-linecap="butt" d="m464.92914 32.125984l-403.8461 128.86136" fill-rule="evenodd"></path><path fill="#f1c232" stroke="#f1c232" stroke-width="2.0" stroke-linecap="butt" d="m60.078835 157.84021l-7.642475 5.9061737l9.650883 0.38809204z" fill-rule="evenodd"></path><path stroke="#3c78d8" stroke-width="2.0" stroke-linejoin="round" stroke-linecap="butt" d="m831.6069 343.16534l59.643433 109.264984" fill-rule="evenodd"></path><path fill="#3c78d8" stroke="#3c78d8" stroke-width="2.0" stroke-linecap="butt" d="m888.3507 454.0131l7.24823 6.3838196l-1.4490356 -9.549377z" fill-rule="evenodd"></path><path stroke="#a64d79" stroke-width="2.0" stroke-linejoin="round" stroke-linecap="butt" d="m896.9998 493.10498l0 126.0802" fill-rule="evenodd"></path><path fill="#a64d79" stroke="#a64d79" stroke-width="2.0" stroke-linecap="butt" d="m893.69635 619.1852l3.3034668 9.076172l3.3034668 -9.076172z" fill-rule="evenodd"></path><path fill="#000000" d="m92.83516 145.56143l-5.2441635 -16.564713l3.5010986 -1.1067886l0.41500854 1.3108749l-1.9218826 0.6075592l4.4094315 13.928055l1.9218826 -0.6075592l0.4197235 1.3257751l-3.5010986 1.1067963zm9.313324 -6.909897l-1.5941162 0.50393677l-3.2115707 -10.144394q-0.39164734 0.73013306 -1.1557465 1.5780182q-0.7688141 0.8329773 -1.4241257 1.3515015l-0.49046326 -1.5492249q1.1427765 -1.0495148 1.8580017 -2.25885q0.7152252 -1.2093353 0.86828613 -2.1753998l1.027977 -0.32497406l4.1217575 13.019386zm4.7532425 -1.5026245l-0.5753555 -1.8173523l1.8175964 -0.5746002l0.5753479 1.8173523q0.31597137 0.99806213 0.15176392 1.7218323q-0.15948486 0.73869324 -0.81555176 1.3066101l-0.6638794 -0.5439453q0.4405136 -0.36868286 0.5421295 -0.87602234q0.10160828 -0.50735474 -0.1232605 -1.3211823l-0.9087906 0.28730774zm11.965218 -5.470413l0.48574066 1.534317l-8.566513 2.7081146q-0.19882202 -0.57624817 -0.17020416 -1.1588593q0.0495224 -0.9824829 0.49583435 -2.0576477q0.46120453 -1.0798645 1.4632492 -2.6256866q1.5685043 -2.3967514 1.9927292 -3.6451874q0.42423248 -1.2484436 0.1365509 -2.1571121q-0.29710388 -0.93846893 -1.1899261 -1.3772583q-0.87792206 -0.44350433 -1.9654999 -0.09968567q-1.147171 0.362648 -1.62574 1.2841339q-0.4683838 0.90187836 -0.08167267 2.123375l-1.6906891 0.35421753q-0.41618347 -1.8840561 0.38446808 -3.1859436q0.7959366 -1.3167801 2.6433258 -1.900795q1.8622818 -0.5887146 3.279976 0.11021423q1.4129791 0.68403625 1.8987198 2.2183533q0.24523163 0.7746124 0.15798187 1.6379395q-0.077064514 0.8437195 -0.5578842 1.9133987q-0.47063446 1.0500793 -1.7217712 3.0515442q-1.0482407 1.6587372 -1.3286362 2.2225952q-0.27020264 0.54426575 -0.40161133 1.0610352l6.3615723 -2.0110626zm4.703171 4.396179l-1.1322708 0.35794067q1.2929459 -5.079071 -0.05582428 -9.3394165q-0.52347565 -1.6534958 -1.4146881 -3.174347q-0.7325821 -1.2268677 -1.655632 -2.2788086q-0.59732056 -0.69608307 -2.2547836 -2.2041245l1.1322708 -0.35794067q2.371292 1.6920624 3.8682938 3.6768951q1.2936783 1.7049713 1.9633484 3.8202515q0.75455475 2.3834152 0.5382614 4.9098587q-0.20611572 2.5068512 -0.9889755 4.589691z" fill-rule="nonzero"></path><path stroke="#f1c232" stroke-width="2.0" stroke-linejoin="round" stroke-linecap="butt" d="m490.6567 42.782696l182.24765 115.43153" fill-rule="evenodd"></path><path fill="#f1c232" stroke="#f1c232" stroke-width="2.0" stroke-linecap="butt" d="m671.1368 161.005l9.435181 2.0657043l-5.8999634 -7.6472626z" fill-rule="evenodd"></path><path fill="#000000" d="m782.6 275.0092l12.217468 -12.354126l2.6083984 2.5843506l-0.9667969 0.97766113l-1.4318848 -1.4186401l-10.272766 10.387665l1.4318237 1.4186401l-0.97784424 0.98876953l-2.6083984 -2.58432zm16.70697 4.5212097l0.9578247 1.5868835q-1.9597168 1.1816711 -3.8270874 0.9812012q-1.8564453 -0.21160889 -3.3659668 -1.7072449q-1.5650635 -1.5505981 -1.9155884 -3.1515808q-0.33953857 -1.6121216 0.33648682 -3.317871q0.6869507 -1.7168274 2.0603638 -3.1055603q1.4942017 -1.5109253 3.169983 -2.072174q1.6868286 -0.55023193 3.3237305 -0.07220459q1.6478882 0.46688843 2.9243774 1.7315674q1.4540405 1.4406128 1.7058105 3.1637268q0.2626953 1.7120056 -0.6672363 3.4300842l-1.5509033 -0.9427185q0.7107544 -1.3853455 0.5394287 -2.5009155q-0.16033936 -1.126648 -1.1260376 -2.0834045q-1.1099854 -1.0997314 -2.3921509 -1.3142395q-1.2710571 -0.20355225 -2.482727 0.39953613q-1.1896362 0.6029663 -2.1345215 1.5584106q-1.2195435 1.2331848 -1.7763062 2.5072021q-0.53460693 1.2739258 -0.23028564 2.477234q0.31536865 1.2142944 1.1922607 2.0830688q1.0766602 1.066742 2.4246216 1.1925049q1.3589478 0.11465454 2.8339233 -0.84350586zm-0.51763916 6.1957397l1.3404541 -1.3554077l1.354126 1.3416443l-1.3403931 1.3554077q-0.736145 0.74435425 -1.4530029 0.9359436q-0.72784424 0.20266724 -1.5356445 -0.11376953l0.17242432 -0.8409729q0.53125 0.21838379 1.0274658 0.072143555q0.49621582 -0.14624023 1.1116943 -0.7241821l-0.677124 -0.6708069zm7.75177 -1.7558594q1.7029419 -1.7220154 3.0909424 -2.4144287q1.3879395 -0.69241333 2.6364746 -0.57717896q1.2595825 0.1262207 2.314087 1.170929q0.77697754 0.7698059 1.0576172 1.6637268q0.28063965 0.8939209 0.0647583 1.8677673q-0.19384766 0.97372437 -0.8179321 2.027008q-0.6130371 1.0643005 -2.0413208 2.5085754q-1.6810303 1.6997986 -3.0689697 2.392212q-1.376831 0.70339966 -2.647461 0.58828735q-1.2485352 -0.11520386 -2.314087 -1.170929q-1.3985596 -1.3856506 -1.197815 -3.1663208q0.23187256 -2.1677246 2.923706 -4.8896484zm1.2209473 1.2096863q-2.3511963 2.3775024 -2.576294 3.716156q-0.21398926 1.3496704 0.5963135 2.1524353q0.8213501 0.81381226 2.156433 0.5748596q1.3460693 -0.25003052 3.6862793 -2.6164246q2.3621826 -2.3886108 2.5872803 -3.7272644q0.22503662 -1.3386536 -0.6074219 -2.1634521q-0.8213501 -0.81378174 -1.9908447 -0.5867615q-1.489563 0.26184082 -3.8517456 2.6504517zm-0.2662964 14.802856l-0.8436279 -0.8357544q5.0959473 -1.2198181 8.23822 -4.397217q1.2195435 -1.2331848 2.1506348 -2.730194q0.744751 -1.2197266 1.2460327 -2.5266113q0.3380127 -0.85287476 0.9012451 -3.0222778l0.8435669 0.8357849q-0.39385986 2.887024 -1.4536743 5.1363525q-0.90667725 1.9390259 -2.466858 3.516632q-1.7578735 1.7775574 -4.094116 2.762207q-2.314148 0.9845276 -4.5214233 1.2610779z" fill-rule="nonzero"></path><path fill="#000000" d="m872.7661 412.06256l14.944946 -8.862183l1.8701172 3.1599426l-1.1826782 0.70132446l-1.0266113 -1.7346191l-12.566101 7.4515686l1.0265503 1.7346191l-1.196106 0.70932007l-1.8701172 -3.1599731zm5.9957275 2.7068481l11.692566 -6.933563l5.013489 8.471405l-1.3708496 0.8128967l-4.0983276 -6.9250183l-3.58844 2.1278687l3.8357544 6.4812927l-1.3709106 0.8128967l-3.8356934 -6.4812927l-3.9781494 2.3590088l4.2575073 7.1939697l-1.3843384 0.8208618l-5.1726074 -8.740326zm6.4330444 10.870117l1.6396484 -0.97229004l0.97088623 1.6405029l-1.6396484 0.97229004q-0.90045166 0.53396606 -1.642456 0.5379944q-0.75549316 0.011993408 -1.4570312 -0.4984436l0.3795166 -0.77001953q0.45874023 0.34561157 0.97576904 0.32965088q0.51708984 -0.015960693 1.2587891 -0.4194336l-0.48547363 -0.82025146zm7.9439697 0.2618103q2.083191 -1.2352905 3.6011353 -1.5541382q1.5180054 -0.31884766 2.6968384 0.10839844q1.1867676 0.44070435 1.942749 1.7181396q0.5570679 0.94125366 0.60253906 1.8770752q0.045410156 0.93582153 -0.409729 1.8233643q-0.43377686 0.8930359 -1.3040161 1.7542114q-0.86224365 0.8746033 -2.609436 1.910675q-2.0562744 1.2193298 -3.5742798 1.5381775q-1.5100098 0.3323059 -2.710205 -0.10040283q-1.178833 -0.4272461 -1.94281 -1.7181396q-1.0026855 -1.6942749 -0.35809326 -3.3662415q0.772583 -2.0385437 4.0653076 -3.9911194zm0.8753662 1.4791565q-2.8760986 1.7054749 -3.432434 2.9436646q-0.54833984 1.2516174 0.032592773 2.2332153q0.5888672 0.99505615 1.940979 1.1015625q1.3655396 0.09851074 4.2282104 -1.5990295q2.8895264 -1.71344 3.4458618 -2.9516296q0.55633545 -1.2381592 -0.04046631 -2.2466736q-0.5889282 -0.99505615 -1.777832 -1.071167q-1.5073242 -0.123413086 -4.3969116 1.5900574zm-4.001404 14.253906l-0.60479736 -1.0219421q5.2388916 0.10870361 9.082642 -2.1705933q1.4918213 -0.88461304 2.7712402 -2.0974426q1.0290527 -0.9916687 1.8446045 -2.1292725q0.5427246 -0.739624 1.6362915 -2.6960144l0.60479736 1.0219421q-1.1112671 2.693512 -2.7054443 4.6016235q-1.3676758 1.6466064 -3.276123 2.7782898q-2.1503296 1.2751465 -4.659668 1.6369019q-2.487976 0.36721802 -4.6935425 0.07650757z" fill-rule="nonzero"></path><path fill="#000000" d="m893.0084 613.92584l-17.375 0l0.0031738281 -3.671875l1.375 0l-0.0017700195 2.015625l14.609375 0l0.0017700195 -2.015625l1.390625 0l-0.0031738281 3.671875zm-3.7764893 -5.4489136l-13.59375 0l0.0079956055 -9.171875l1.59375 0l-0.0064086914 7.375l4.21875 0l0.005554199 -6.375l1.609375 0l-0.005554199 6.375l6.171875 0l-0.0015869141 1.796875zm0.010070801 -11.520996l-1.90625 0l0.0016479492 -1.90625l1.90625 0q1.046875 0 1.6871948 0.375q0.6559448 0.375 0.9989624 1.171875l-0.7191162 0.46875q-0.21832275 -0.53125 -0.6712036 -0.78125q-0.4529419 -0.25 -1.2966309 -0.28125l-8.544922E-4 0.953125zm-6.699402 -4.2770386q-2.421875 0 -3.8901367 -0.5q-1.4683228 -0.5 -2.2643433 -1.46875q-0.7960205 -0.984375 -0.79473877 -2.46875q9.765625E-4 -1.09375 0.43920898 -1.921875q0.4381714 -0.828125 1.2824097 -1.359375q0.8286133 -0.546875 2.0163574 -0.84375q1.1878052 -0.3125 3.2190552 -0.3125q2.390625 0 3.8589478 0.5q1.4683228 0.484375 2.2799072 1.46875q0.79608154 0.96875 0.79473877 2.46875q-0.0017089844 1.96875 -1.4089355 3.078125q-1.7043457 1.359375 -5.5324707 1.359375zm0.0015258789 -1.71875q3.34375 0 4.4537964 -0.78125q1.1101074 -0.796875 1.111084 -1.9375q0.0010375977 -1.15625 -1.107666 -1.9375q-1.1243286 -0.78125 -4.4524536 -0.78125q-3.359375 0 -4.4694214 0.78125q-1.1100464 0.78125 -1.111084 1.953125q-0.0010375977 1.15625 0.9827881 1.828125q1.2335815 0.875 4.5929565 0.875zm10.712097 -10.219482l-0.0010375977 1.1875q-4.4507446 -2.765625 -8.919495 -2.765625q-1.734375 0 -3.4534302 0.390625q-1.3909302 0.328125 -2.6726685 0.890625q-0.8440552 0.359375 -2.7825317 1.484375l0.0010375977 -1.1875q2.3296509 -1.75 4.6741333 -2.578125q2.0162354 -0.71875 4.2349854 -0.71875q2.5 0 4.8428955 0.96875q2.3272705 0.953125 4.076111 2.328125z" fill-rule="nonzero"></path><path fill="#00ffff" stroke="#000000" stroke-width="2.0" stroke-linejoin="round" stroke-linecap="butt" d="m464.92914 32.125984l0 0c0 -8.32341 6.747467 -15.070866 15.070862 -15.070866l0 0c3.9970398 0 7.8303833 1.5878181 10.656708 4.414154c2.826355 2.826336 4.414154 6.65967 4.414154 10.656712l0 0c0 8.32341 -6.7474365 15.070866 -15.070862 15.070866l0 0c-8.323395 0 -15.070862 -6.7474556 -15.070862 -15.070866z" fill-rule="nonzero"></path><path fill="#000000" d="m475.59338 31.586922q0 -2.421875 0.5 -3.890625q0.5 -1.46875 1.46875 -2.265625q0.984375 -0.796875 2.46875 -0.796875q1.09375 0 1.921875 0.4375q0.828125 0.4375 1.359375 1.28125q0.546875 0.828125 0.84375 2.015625q0.3125 1.1875 0.3125 3.21875q0 2.390625 -0.5 3.859375q-0.484375 1.46875 -1.46875 2.28125q-0.96875 0.796875 -2.46875 0.796875q-1.96875 0 -3.078125 -1.40625q-1.359375 -1.703125 -1.359375 -5.53125zm1.71875 0q0 3.34375 0.78125 4.453125q0.796875 1.109375 1.9375 1.109375q1.15625 0 1.9375 -1.109375q0.78125 -1.125 0.78125 -4.453125q0 -3.359375 -0.78125 -4.46875q-0.78125 -1.109375 -1.953125 -1.109375q-1.15625 0 -1.828125 0.984375q-0.875 1.234375 -0.875 4.59375z" fill-rule="nonzero"></path><path fill="#cfe2f3" stroke="#000000" stroke-width="2.0" stroke-linejoin="round" stroke-linecap="butt" d="m881.92896 478.03412l0 0c0 -8.323395 6.7474976 -15.070862 15.070862 -15.070862l0 0c3.9970703 0 7.8303833 1.5878296 10.656738 4.414154c2.826355 2.8263245 4.4141235 6.659668 4.4141235 10.656708l0 0c0 8.323425 -6.7474365 15.070862 -15.070862 15.070862l0 0c-8.323364 0 -15.070862 -6.7474365 -15.070862 -15.070862z" fill-rule="nonzero"></path><path fill="#000000" d="m892.2781 484.19818l0 -13.59375l9.84375 0l0 1.59375l-8.046875 0l0 4.171875l7.53125 0l0 1.59375l-7.53125 0l0 4.625l8.359375 0l0 1.609375l-10.15625 0z" fill-rule="nonzero"></path><path fill="#cfe2f3" stroke="#000000" stroke-width="2.0" stroke-linejoin="round" stroke-linecap="butt" d="m881.92896 646.25604l0 0c0 -8.323425 6.7474976 -15.070862 15.070862 -15.070862l0 0c3.9970703 0 7.8303833 1.5878296 10.656738 4.4141235c2.826355 2.826355 4.4141235 6.659668 4.4141235 10.656738l0 0c0 8.323425 -6.7474365 15.070862 -15.070862 15.070862l0 0c-8.323364 0 -15.070862 -6.7474365 -15.070862 -15.070862z" fill-rule="nonzero"></path><path fill="#000000" d="m892.8643 652.4201l0 -13.59375l9.171875 0l0 1.59375l-7.375 0l0 4.21875l6.375 0l0 1.609375l-6.375 0l0 6.171875l-1.796875 0z" fill-rule="nonzero"></path><path fill="#cfe2f3" stroke="#000000" stroke-width="2.0" stroke-linejoin="round" stroke-linecap="butt" d="m34.58005 179.70604l0 0c0 -8.32341 6.7474594 -15.070862 15.070869 -15.070862l0 0c3.9970398 0 7.8303757 1.5878143 10.656712 4.414154c2.826336 2.8263245 4.414154 6.659668 4.414154 10.656708l0 0c0 8.32341 -6.7474594 15.070862 -15.070866 15.070862l0 0c-8.32341 0 -15.070869 -6.747452 -15.070869 -15.070862z" fill-rule="nonzero"></path><path fill="#000000" d="m51.541183 185.8701l-1.671875 0l0 -10.640625q-0.59375 0.578125 -1.578125 1.15625q-0.984375 0.5625 -1.7656212 0.859375l0 -1.625q1.4062462 -0.65625 2.4531212 -1.59375q1.046875 -0.9375 1.484375 -1.8125l1.078125 0l0 13.65625z" fill-rule="nonzero"></path><path fill="#cfe2f3" stroke="#000000" stroke-width="2.0" stroke-linejoin="round" stroke-linecap="butt" d="m805.8793 332.50864l0 0c0 -8.323425 6.7474365 -15.070862 15.070862 -15.070862l0 0c3.9970703 0 7.8303833 1.5877991 10.656738 4.414154c2.826294 2.8263245 4.4141235 6.659668 4.4141235 10.656708l0 0c0 8.323395 -6.7474365 15.070862 -15.070862 15.070862l0 0c-8.323425 0 -15.070862 -6.747467 -15.070862 -15.070862z" fill-rule="nonzero"></path><path fill="#000000" d="m825.38556 333.90707l1.796875 0.453125q-0.5625 2.21875 -2.03125 3.390625q-1.46875 1.15625 -3.59375 1.15625q-2.203125 0 -3.578125 -0.890625q-1.375 -0.90625 -2.09375 -2.59375q-0.71875 -1.703125 -0.71875 -3.65625q0 -2.125 0.796875 -3.703125q0.8125 -1.578125 2.3125 -2.390625q1.5 -0.828125 3.296875 -0.828125q2.046875 0 3.4375 1.046875q1.390625 1.03125 1.9375 2.90625l-1.765625 0.421875q-0.46875 -1.484375 -1.375 -2.15625q-0.90625 -0.6875 -2.265625 -0.6875q-1.5625 0 -2.625 0.75q-1.046875 0.75 -1.484375 2.03125q-0.421875 1.265625 -0.421875 2.609375q0 1.734375 0.5 3.03125q0.515625 1.28125 1.578125 1.921875q1.078125 0.640625 2.3125 0.640625q1.515625 0 2.5625 -0.859375q1.046875 -0.875 1.421875 -2.59375z" fill-rule="nonzero"></path><path fill="#cfe2f3" stroke="#000000" stroke-width="2.0" stroke-linejoin="round" stroke-linecap="butt" d="m371.81628 179.70604l0 0c0 -8.32341 6.7474365 -15.070862 15.070862 -15.070862l0 0c3.9970398 0 7.8303833 1.5878143 10.656708 4.414154c2.8263245 2.8263245 4.414154 6.659668 4.414154 10.656708l0 0c0 8.32341 -6.747467 15.070862 -15.070862 15.070862l0 0c-8.323425 0 -15.070862 -6.747452 -15.070862 -15.070862z" fill-rule="nonzero"></path><path fill="#000000" d="m387.8399 185.8701l0 -3.25l-5.90625 0l0 -1.53125l6.21875 -8.8125l1.359375 0l0 8.8125l1.84375 0l0 1.53125l-1.84375 0l0 3.25l-1.671875 0zm0 -4.78125l0 -6.140625l-4.25 6.140625l4.25 0z" fill-rule="nonzero"></path><path fill="#000000" d="m396.99908 146.86066l-13.541992 -10.886032l2.3031006 -2.859787l1.0716858 0.8614807l-1.2642517 1.5698395l11.386475 9.153275l1.2642517 -1.5698395l1.0838318 0.8712616l-2.3031006 2.8598022zm3.3421326 -10.178528l-2.53302 -2.0362244l-3.7045593 4.599991l-1.1934509 -0.95936584l-2.9678345 -10.364723l0.8526306 -1.0587311l6.868408 5.521324l1.1564636 -1.4359741l1.1934509 0.9593811l-1.1564636 1.4359741l2.53302 2.0362396l-1.048645 1.3021088zm-3.726471 -2.9956055l-4.78598 -3.8473053l2.1202698 7.1573486l2.6657104 -3.3100433zm7.441284 -1.6171265l-1.4857178 -1.1943207l1.1956482 -1.4846649l1.4857178 1.1943359q0.8159485 0.65589905 1.0800171 1.3493347q0.27627563 0.7032318 0.04437256 1.5392303l-0.854187 -0.085235596q0.16271973 -0.55081177 -0.03366089 -1.029419q-0.1963501 -0.47860718 -0.8343506 -1.0315857l-0.59783936 0.7423248zm-1.4482727 -9.959747q-0.9489136 0.58039093 -1.8105469 0.5292816q-0.8737793 -0.060905457 -1.6410217 -0.67765045q-1.1568909 -0.93000793 -1.269867 -2.384056q-0.115356445 -1.4760056 0.99209595 -2.851143q1.1172485 -1.3873062 2.597229 -1.5808716q1.4897766 -0.20574188 2.646698 0.72426605q0.7428589 0.59716797 0.9772644 1.4271164q0.24420166 0.81777954 -0.10055542 1.8437347q1.100647 -0.719017 2.2185974 -0.6623306q1.1179504 0.0566864 2.10437 0.8496399q1.3639526 1.0964355 1.5152283 2.8018188q0.15130615 1.7053909 -1.1129456 3.2752304q-1.2642517 1.5698471 -2.9640198 1.7872162q-1.7119446 0.20757294 -3.1002197 -0.90843964q-1.0351562 -0.8321152 -1.3078918 -1.9133987q-0.27270508 -1.0812912 0.25558472 -2.2604141zm-2.4100342 -1.516365q0.7550354 0.6069565 1.6121826 0.5141449q0.8669739 -0.10498047 1.4942017 -0.88381195q0.59780884 -0.74233246 0.50509644 -1.598732q-0.08294678 -0.8685608 -0.7648926 -1.4167786q-0.71850586 -0.57759094 -1.6074524 -0.4702301q-0.8791504 0.095191956 -1.4769592 0.8375168q-0.59783936 0.74233246 -0.5148926 1.6109009q0.08291626 0.8685684 0.75271606 1.40699zm4.5525513 4.3613434q0.56018066 0.450325 1.2896423 0.615715q0.7271118 0.14344025 1.4407959 -0.14488983q0.70150757 -0.2981186 1.1817322 -0.8944168q0.7546387 -0.93704224 0.6479187 -2.0251923q-0.11886597 -1.0979462 -1.0444031 -1.8419571q-0.9377136 -0.75379944 -2.056244 -0.61047363q-1.1209106 0.12136841 -1.8755188 1.058403q-0.7448425 0.92487335 -0.62594604 2.0228195q0.12866211 1.0857697 1.0420227 1.8199921zm12.593994 -3.0081482l-0.7448425 0.92487335q-1.7360535 -4.944008 -5.218994 -7.743828q-1.3517456 -1.086647 -2.9363403 -1.8592682q-1.2896729 -0.615715 -2.6410828 -0.98036957q-0.8830261 -0.24874115 -3.0987244 -0.5864563l0.7448425 -0.92487335q2.9121704 0.095687866 5.258301 0.9191513q2.0217896 0.70306396 3.751068 2.0931854q1.9484863 1.5663376 3.167572 3.7892761q1.2167053 2.2009735 1.7182007 4.368309z" fill-rule="nonzero"></path><path fill="#000000" d="m634.1472 129.5707l9.094727 -14.804619l3.1265259 1.9255447l-0.71972656 1.1715851l-1.7162476 -1.0569992l-7.6470947 12.448128l1.7161865 1.0569916l-0.7279053 1.184906l-3.1264648 -1.9255371zm12.009216 -5.7061234q-0.6951294 -0.8685074 -0.7528076 -1.7298203q-0.04949951 -0.87461853 0.46575928 -1.7133713q0.77697754 -1.2647858 2.2050781 -1.5596695q1.449646 -0.30000305 2.953003 0.62589264q1.5166626 0.93408966 1.8948975 2.378151q0.3914795 1.4522552 -0.38549805 2.717041q-0.49890137 0.81212616 -1.2926636 1.1490326q-0.7805176 0.3451004 -1.8415527 0.13202667q0.8516846 1.0016556 0.9360962 2.1179733q0.08441162 1.1163177 -0.57806396 2.1947174q-0.9160156 1.4911041 -2.588623 1.8556213q-1.6726074 0.3645172 -3.388855 -0.69247437q-1.7162476 -1.0569916 -2.145691 -2.7161407q-0.42126465 -1.6724396 0.5111084 -3.190178q0.6951904 -1.1316528 1.7334595 -1.5381851q1.038269 -0.40653992 2.274353 -0.03061676zm1.2009277 -2.5818176q-0.5070801 0.82543945 -0.30718994 1.6642227q0.2131958 0.84697723 1.0646973 1.3713837q0.81152344 0.4998169 1.6494141 0.300148q0.85113525 -0.19147491 1.3091431 -0.937027q0.48254395 -0.7854996 0.2642212 -1.6539841q-0.20501709 -0.8602905 -1.0166016 -1.360115q-0.8115845 -0.4998169 -1.6627197 -0.30834198q-0.85113525 0.19147491 -1.3009644 0.9237137zm-3.753479 5.0652466q-0.3762207 0.6124191 -0.44854736 1.3569717q-0.05078125 0.73942566 0.3250122 1.4112854q0.38397217 0.6585388 1.0358887 1.0600433q1.0244141 0.6309204 2.090393 0.38824463q1.0741577 -0.25598145 1.6957397 -1.267807q0.62976074 -1.0251465 0.3468628 -2.1168976q-0.26141357 -1.0968704 -1.2858276 -1.7277908q-1.0111084 -0.62272644 -2.085266 -0.36673737q-1.060852 0.26417542 -1.6742554 1.2626877zm6.1032104 8.364861l0.99780273 -1.6242523l1.623169 0.99964905l-0.99780273 1.6242371q-0.54797363 0.89201355 -1.2026367 1.2412109q-0.66278076 0.3625183 -1.5212402 0.23753357l-0.022888184 -0.8582306q0.5668335 0.0921936 1.0168457 -0.16279602q0.45007324 -0.25498962 0.91833496 -0.9575348l-0.8115845 -0.4998169zm7.1505127 -3.4685974q1.2677002 -2.0635986 2.4622192 -3.0528564q1.194519 -0.9892731 2.4365234 -1.1602478q1.255249 -0.16278076 2.519165 0.6156311q0.9312744 0.5735626 1.4074097 1.3806152q0.47613525 0.8070526 0.4868164 1.8045654q0.032165527 0.9924011 -0.3366089 2.159912q-0.3555298 1.175705 -1.4187622 2.9064484q-1.2513428 2.036972 -2.4458618 3.026245q-1.1812134 0.9974518 -2.4447021 1.1735535q-1.2420044 0.17097473 -2.519165 -0.6156311q-1.6763306 -1.0324249 -1.8848877 -2.8123932q-0.26593018 -2.164032 1.737854 -5.4258423zm1.46344 0.9013214q-1.7502441 2.8490906 -1.6657104 4.2040253q0.09777832 1.3631439 1.0690308 1.9612885q0.9844971 0.60635376 2.2304077 0.07078552q1.2540894 -0.54888916 2.9961548 -3.3846588q1.7584229 -2.8624115 1.6738892 -4.2173615q-0.08453369 -1.35495 -1.0823364 -1.9694824q-0.9844971 -0.6063385 -2.0718384 -0.11991882q-1.3911743 0.59291077 -3.1495972 3.4553223zm3.099121 14.478851l-1.0111084 -0.62272644q4.685791 -2.34404 7.0249023 -6.151703q0.9078369 -1.4777985 1.4749146 -3.1471252q0.44848633 -1.3569794 0.64019775 -2.7436523q0.13568115 -0.9073944 0.19195557 -3.1482239l1.0111084 0.62272644q0.27142334 2.9014282 -0.25024414 5.332718q-0.4430542 2.0943604 -1.6044312 3.9848785q-1.3085938 2.1301575 -3.3602905 3.6191711q-2.0302124 1.4838867 -4.1170044 2.2539368z" fill-rule="nonzero"></path><path fill="#cfe2f3" stroke="#000000" stroke-width="2.0" stroke-linejoin="round" stroke-linecap="butt" d="m667.9711 179.70604l0 0c0 -8.32341 6.7474365 -15.070862 15.070862 -15.070862l0 0c3.9970703 0 7.8303833 1.5878143 10.656738 4.414154c2.826294 2.8263245 4.4141235 6.659668 4.4141235 10.656708l0 0c0 8.32341 -6.7474365 15.070862 -15.070862 15.070862l0 0c-8.323425 0 -15.070862 -6.747452 -15.070862 -15.070862z" fill-rule="nonzero"></path><path fill="#000000" d="m681.2135 178.4951q-1.046875 -0.375 -1.546875 -1.078125q-0.5 -0.71875 -0.5 -1.703125q0 -1.484375 1.0625 -2.484375q1.078125 -1.015625 2.84375 -1.015625q1.78125 0 2.859375 1.03125q1.09375 1.03125 1.09375 2.515625q0 0.953125 -0.5 1.65625q-0.484375 0.703125 -1.5 1.078125q1.25 0.40625 1.90625 1.3125q0.65625 0.90625 0.65625 2.171875q0 1.75 -1.234375 2.9375q-1.234375 1.1875 -3.25 1.1875q-2.015625 0 -3.25 -1.1875q-1.234375 -1.203125 -1.234375 -2.984375q0 -1.328125 0.671875 -2.21875q0.671875 -0.890625 1.921875 -1.21875zm-0.328125 -2.828125q0 0.96875 0.609375 1.578125q0.625 0.609375 1.625 0.609375q0.953125 0 1.5625 -0.609375q0.625 -0.609375 0.625 -1.484375q0 -0.921875 -0.640625 -1.546875q-0.625 -0.625 -1.578125 -0.625q-0.953125 0 -1.578125 0.609375q-0.625 0.609375 -0.625 1.46875zm-0.546875 6.28125q0 0.71875 0.328125 1.390625q0.34375 0.65625 1.015625 1.03125q0.671875 0.359375 1.4375 0.359375q1.203125 0 1.984375 -0.765625q0.78125 -0.78125 0.78125 -1.96875q0 -1.203125 -0.8125 -1.984375q-0.796875 -0.796875 -2.0 -0.796875q-1.1875 0 -1.96875 0.78125q-0.765625 0.78125 -0.765625 1.953125z" fill-rule="nonzero"></path><path stroke="#6aa84f" stroke-width="2.0" stroke-linejoin="round" stroke-linecap="butt" d="m683.042 194.7769l0 110.66087" fill-rule="evenodd"></path><path fill="#6aa84f" stroke="#6aa84f" stroke-width="2.0" stroke-linecap="butt" d="m679.7385 305.43777l3.3034668 9.076202l3.3034668 -9.076202z" fill-rule="evenodd"></path><path fill="#000000" d="m679.6106 302.02716l-17.374634 0.11395264l-0.022460938 -3.671814l1.374939 -0.009033203l0.012390137 2.0155945l14.60907 -0.09579468l-0.012390137 -2.0155945l1.390625 -0.009094238l0.022460938 3.6717834zm-3.8047485 -3.8302917l-13.625549 -5.1451416l-0.01184082 -1.9374695l13.559387 -5.6515503l0.012512207 2.0468445l-4.1151123 1.6207886l0.03479004 5.687378l4.134033 1.4573059l0.011779785 1.9218445zm-5.602051 -3.8852234l-0.028198242 -4.609314l-3.772583 1.4310303q-1.6990967 0.66741943 -2.8065186 0.9871826q1.3140869 0.25701904 2.5982056 0.7173462l4.009094 1.4737549zm5.515259 -10.276855l-1.906189 0.012512207l-0.011657715 -1.9062195l1.906189 -0.012481689q1.046875 -0.006866455 1.6897583 0.36392212q0.65856934 0.3706665 1.0071411 1.1652832l-0.7158203 0.4734497q-0.2220459 -0.52978516 -0.67663574 -0.77682495q-0.45465088 -0.24700928 -1.298584 -0.2727356l0.00579834 0.9530945zm-4.8553467 -14.636139l0.44213867 -1.7998047q2.222107 0.5479431 3.402954 2.0089722q1.1652222 1.4611206 1.1782227 3.58609q0.013549805 2.2030945 -0.86865234 3.5838928q-0.89782715 1.3809204 -2.5808716 2.1107178q-1.6986694 0.72991943 -3.6517944 0.7427368q-2.124939 0.013916016 -3.7078857 -0.772583q-1.5830688 -0.80215454 -2.4047852 -2.2967834q-0.8372803 -1.4945374 -0.8482666 -3.2913818q-0.012573242 -2.0468445 1.0258179 -3.4443054q1.0227051 -1.3973694 2.894287 -1.9565125l0.43267822 1.7628174q-1.4814453 0.4784851 -2.147766 1.3890991q-0.6819458 0.9107666 -0.673645 2.270111q0.0095825195 1.5624695 0.7661133 2.6200256q0.75634766 1.0419312 2.0402832 1.4710388q1.2681885 0.4135437 2.6118774 0.40475464q1.734375 -0.011383057 3.0281372 -0.51986694q1.2780762 -0.52401733 1.9121704 -1.5906982q0.6340332 -1.0823059 0.62646484 -2.316681q-0.009277344 -1.5155945 -0.87506104 -2.5567932q-0.8814087 -1.0411377 -2.602417 -1.4048462zm8.7369995 -4.7022095l0.0072631836 1.1874695q-4.4699707 -2.7363586 -8.938599 -2.7070618q-1.734375 0.011352539 -3.4506836 0.41323853q-1.3886108 0.33724976 -2.6663818 0.9081421q-0.8414917 0.36489868 -2.7720947 1.502594l-0.0072631836 -1.1875q2.3173828 -1.7652283 4.656006 -2.6087036q2.0111694 -0.7319336 4.2298584 -0.7464905q2.499939 -0.01638794 4.8496094 0.9369507q2.3338623 0.9378662 4.092285 2.301361z" fill-rule="nonzero"></path><path fill="#cfe2f3" stroke="#000000" stroke-width="2.0" stroke-linejoin="round" stroke-linecap="butt" d="m667.9711 332.50864l0 0c0 -8.323425 6.7474365 -15.070862 15.070862 -15.070862l0 0c3.9970703 0 7.8303833 1.5877991 10.656738 4.414154c2.826294 2.8263245 4.4141235 6.659668 4.4141235 10.656708l0 0c0 8.323395 -6.7474365 15.070862 -15.070862 15.070862l0 0c-8.323425 0 -15.070862 -6.747467 -15.070862 -15.070862z" fill-rule="nonzero"></path><path fill="#000000" d="m676.78894 338.6727l5.234375 -13.59375l1.9375 0l5.5625 13.59375l-2.046875 0l-1.59375 -4.125l-5.6875 0l-1.484375 4.125l-1.921875 0zm3.921875 -5.578125l4.609375 0l-1.40625 -3.78125q-0.65625 -1.703125 -0.96875 -2.8125q-0.265625 1.3125 -0.734375 2.59375l-1.5 4.0z" fill-rule="nonzero"></path><path stroke="#3c78d8" stroke-width="2.0" stroke-linejoin="round" stroke-linecap="butt" d="m810.2934 343.16534l-65.20325 109.4877" fill-rule="evenodd"></path><path fill="#3c78d8" stroke="#3c78d8" stroke-width="2.0" stroke-linecap="butt" d="m742.2519 450.96277l-1.8057251 9.488403l7.4823 -6.1078186z" fill-rule="evenodd"></path><path fill="#000000" d="m745.1995 444.9864l-15.020142 -8.734192l1.8483887 -3.17276l1.1885986 0.6911926l-1.0145874 1.7416382l12.6293335 7.3439636l1.0145874 -1.7416077l1.2022095 0.69903564l-1.8483887 3.1727295zm-0.5730591 -6.5279846l-11.751343 -6.833435l2.359558 -4.0503235q0.7944336 -1.3635864 1.3812256 -1.9983826q0.8116455 -0.86553955 1.8363647 -1.2276611q1.3395996 -0.46813965 2.8362427 -0.21243286q1.4830322 0.24789429 3.0499268 1.1589966q1.3372192 0.7776184 2.19635 1.6929321q0.8456421 0.9074707 1.2514038 1.7940674q0.3922119 0.8787842 0.4456787 1.6871033q0.040039062 0.8004761 -0.23718262 1.7418518q-0.27716064 0.94137573 -0.89849854 2.007965l-2.4697266 4.239319zm-0.48675537 -2.3616333l1.4629517 -2.5112q0.67645264 -1.1610718 0.8457031 -1.9483032q0.16931152 -0.78723145 0.0056762695 -1.4065247q-0.23132324 -0.87557983 -0.9824219 -1.7280579q-0.75109863 -0.85250854 -2.0883179 -1.6300964q-1.8369751 -1.0682068 -3.177002 -1.0340576q-1.3534546 0.026306152 -2.194519 0.69403076q-0.60491943 0.47964478 -1.4150391 1.8702698l-1.4393921 2.4706726l8.982361 5.2232666zm7.3789062 -9.468903l-1.6478882 -0.95825195l0.9595337 -1.6470947l1.6478882 0.95825195q0.9050293 0.5262451 1.2700195 1.1723022q0.37854004 0.65390015 0.27459717 1.5152588l-0.8572998 0.04373169q0.078308105 -0.56900024 -0.18756104 -1.0128174q-0.26586914 -0.44378662 -0.9795532 -0.894928l-0.47973633 0.82354736zm2.5147705 -4.316681l-11.751343 -6.833435l4.955139 -8.505646l1.3777466 0.801178l-4.050659 6.953003l3.6064453 2.097168l3.7911377 -6.507477l1.3777466 0.80114746l-3.7911377 6.507477l3.998169 2.3249512l4.207947 -7.223053l1.3912964 0.809021l-5.112488 8.775665zm10.146484 -9.470337l-0.5977783 1.026062q-2.4574585 -4.6282043 -6.3204956 -6.8746033q-1.4993286 -0.8718567 -3.1817627 -1.3983154q-1.3673096 -0.41552734 -2.7580566 -0.5735779q-0.91033936 -0.11361694 -3.1515503 -0.11550903l0.5977783 -1.026062q2.8934937 -0.34179688 5.336487 0.12081909q2.104248 0.3921814 4.022278 1.5075378q2.1611328 1.2567139 3.699585 3.2719421q1.5328369 1.9938965 2.3535156 4.0617065z" fill-rule="nonzero"></path><path fill="#cfe2f3" stroke="#000000" stroke-width="2.0" stroke-linejoin="round" stroke-linecap="butt" d="m615.5748 478.03412l0 0c0 -8.323395 6.7474365 -15.070862 15.070862 -15.070862l0 0c3.9970093 0 7.8303833 1.5878296 10.656677 4.414154c2.826355 2.8263245 4.4141846 6.659668 4.4141846 10.656708l0 0c0 8.323425 -6.7474976 15.070862 -15.070862 15.070862l0 0c-8.323425 0 -15.070862 -6.7474365 -15.070862 -15.070862z" fill-rule="nonzero"></path><path fill="#000000" d="m625.8145 484.19818l0 -13.59375l5.109375 0q1.546875 0 2.484375 0.40625q0.953125 0.40625 1.484375 1.265625q0.53125 0.859375 0.53125 1.796875q0 0.875 -0.46875 1.65625q-0.46875 0.765625 -1.4375 1.234375q1.234375 0.359375 1.890625 1.234375q0.671875 0.875 0.671875 2.0625q0 0.953125 -0.40625 1.78125q-0.390625 0.8125 -0.984375 1.265625q-0.59375 0.4375 -1.5 0.671875q-0.890625 0.21875 -2.1875 0.21875l-5.1875 0zm1.796875 -7.890625l2.9375 0q1.203125 0 1.71875 -0.15625q0.6875 -0.203125 1.03125 -0.671875q0.359375 -0.46875 0.359375 -1.1875q0 -0.671875 -0.328125 -1.1875q-0.328125 -0.515625 -0.9375 -0.703125q-0.59375 -0.203125 -2.0625 -0.203125l-2.71875 0l0 4.109375zm0 6.28125l3.390625 0q0.875 0 1.21875 -0.0625q0.625 -0.109375 1.046875 -0.359375q0.421875 -0.265625 0.6875 -0.765625q0.265625 -0.5 0.265625 -1.140625q0 -0.765625 -0.390625 -1.328125q-0.390625 -0.5625 -1.078125 -0.78125q-0.6875 -0.234375 -1.984375 -0.234375l-3.15625 0l0 4.671875z" fill-rule="nonzero"></path><path fill="#cfe2f3" stroke="#000000" stroke-width="2.0" stroke-linejoin="round" stroke-linecap="butt" d="m723.8793 478.03412l0 0c0 -8.323395 6.7474365 -15.070862 15.070862 -15.070862l0 0c3.9970703 0 7.8303833 1.5878296 10.656738 4.414154c2.826294 2.8263245 4.4141235 6.659668 4.4141235 10.656708l0 0c0 8.323425 -6.7474365 15.070862 -15.070862 15.070862l0 0c-8.323425 0 -15.070862 -6.7474365 -15.070862 -15.070862z" fill-rule="nonzero"></path><path fill="#000000" d="m733.68243 484.19818l0 -13.59375l4.6875 0q1.578125 0 2.421875 0.1875q1.15625 0.265625 1.984375 0.96875q1.078125 0.921875 1.609375 2.34375q0.53125 1.40625 0.53125 3.21875q0 1.546875 -0.359375 2.75q-0.359375 1.1875 -0.921875 1.984375q-0.5625 0.78125 -1.234375 1.234375q-0.671875 0.4375 -1.625 0.671875q-0.953125 0.234375 -2.1875 0.234375l-4.90625 0zm1.796875 -1.609375l2.90625 0q1.34375 0 2.109375 -0.25q0.765625 -0.25 1.21875 -0.703125q0.640625 -0.640625 1.0 -1.71875q0.359375 -1.078125 0.359375 -2.625q0 -2.125 -0.703125 -3.265625q-0.703125 -1.15625 -1.703125 -1.546875q-0.71875 -0.28125 -2.328125 -0.28125l-2.859375 0l0 10.390625z" fill-rule="nonzero"></path><path fill="#cfe2f3" stroke="#000000" stroke-width="2.0" stroke-linejoin="round" stroke-linecap="butt" d="m449.85828 478.03412l0 0c0 -8.323395 6.7474365 -15.070862 15.070862 -15.070862l0 0c3.9970398 0 7.8303833 1.5878296 10.656708 4.414154c2.8263245 2.8263245 4.414154 6.659668 4.414154 10.656708l0 0c0 8.323425 -6.747467 15.070862 -15.070862 15.070862l0 0c-8.323425 0 -15.070862 -6.7474365 -15.070862 -15.070862z" fill-rule="nonzero"></path><path fill="#000000" d="m460.64752 472.38568l0 -1.609375l8.796875 0l0 1.296875q-1.296875 1.375 -2.578125 3.671875q-1.265625 2.296875 -1.96875 4.71875q-0.5 1.703125 -0.640625 3.734375l-1.71875 0q0.03125 -1.609375 0.625 -3.875q0.609375 -2.28125 1.734375 -4.390625q1.140625 -2.109375 2.40625 -3.546875l-6.65625 0z" fill-rule="nonzero"></path><path fill="#cfe2f3" stroke="#000000" stroke-width="2.0" stroke-linejoin="round" stroke-linecap="butt" d="m449.85828 332.50864l0 0c0 -8.323425 6.7474365 -15.070862 15.070862 -15.070862l0 0c3.9970398 0 7.8303833 1.5877991 10.656708 4.414154c2.8263245 2.8263245 4.414154 6.659668 4.414154 10.656708l0 0c0 8.323395 -6.747467 15.070862 -15.070862 15.070862l0 0c-8.323425 0 -15.070862 -6.747467 -15.070862 -15.070862z" fill-rule="nonzero"></path><path fill="#000000" d="m469.1944 328.40707l-1.65625 0.125q-0.21875 -0.984375 -0.640625 -1.421875q-0.671875 -0.71875 -1.65625 -0.71875q-0.8125 0 -1.40625 0.4375q-0.796875 0.578125 -1.25 1.6875q-0.453125 1.09375 -0.46875 3.140625q0.609375 -0.921875 1.46875 -1.359375q0.875 -0.453125 1.828125 -0.453125q1.671875 0 2.84375 1.234375q1.171875 1.234375 1.171875 3.171875q0 1.28125 -0.546875 2.390625q-0.546875 1.09375 -1.515625 1.6875q-0.96875 0.578125 -2.1875 0.578125q-2.09375 0 -3.40625 -1.53125q-1.3125 -1.546875 -1.3125 -5.0625q0 -3.953125 1.453125 -5.734375q1.265625 -1.5625 3.421875 -1.5625q1.609375 0 2.625 0.90625q1.03125 0.890625 1.234375 2.484375zm-6.8125 5.859375q0 0.859375 0.359375 1.65625q0.375 0.78125 1.03125 1.203125q0.65625 0.40625 1.375 0.40625q1.0625 0 1.8125 -0.84375q0.765625 -0.859375 0.765625 -2.328125q0 -1.40625 -0.75 -2.21875q-0.75 -0.8125 -1.890625 -0.8125q-1.125 0 -1.921875 0.8125q-0.78125 0.8125 -0.78125 2.125z" fill-rule="nonzero"></path><path stroke="#6aa84f" stroke-width="2.0" stroke-linejoin="round" stroke-linecap="butt" d="m672.3853 190.36276l-112.02362 118.35965" fill-rule="evenodd"></path><path fill="#6aa84f" stroke="#6aa84f" stroke-width="2.0" stroke-linecap="butt" d="m557.9624 306.45163l-3.8397217 8.86264l8.638245 -4.321045z" fill-rule="evenodd"></path><path stroke="#3c78d8" stroke-width="2.0" stroke-linejoin="round" stroke-linecap="butt" d="m464.92914 347.57953l0 103.38373" fill-rule="evenodd"></path><path fill="#3c78d8" stroke="#3c78d8" stroke-width="2.0" stroke-linecap="butt" d="m461.62567 450.96326l3.3034668 9.076202l3.3034668 -9.076202z" fill-rule="evenodd"></path><path stroke="#3c78d8" stroke-width="2.0" stroke-linejoin="round" stroke-linecap="butt" d="m683.042 347.57953l-47.434692 104.45749" fill-rule="evenodd"></path><path fill="#3c78d8" stroke="#3c78d8" stroke-width="2.0" stroke-linecap="butt" d="m632.5994 450.67117l-0.74487305 9.629913l6.76062 -6.898163z" fill-rule="evenodd"></path><path stroke="#6aa84f" stroke-width="2.0" stroke-linejoin="round" stroke-linecap="butt" d="m397.54385 190.36276l61.763428 116.47336" fill-rule="evenodd"></path><path fill="#6aa84f" stroke="#6aa84f" stroke-width="2.0" stroke-linecap="butt" d="m456.3888 308.38376l7.1705627 6.4709167l-1.3335571 -9.566193z" fill-rule="evenodd"></path><path fill="#000000" d="m441.18658 263.15924l15.351685 -8.137405l1.7184448 3.2449188l-1.2148743 0.6439514l-0.94332886 -1.78125l-12.908081 6.842163l0.94332886 1.78125l-1.2286987 0.65127563l-1.7184753 -3.2449036zm18.654144 5.209778l-0.8855896 -1.4051514q0.7673645 -0.6543274 0.95648193 -1.2320557q0.32058716 -0.9303589 -0.1401062 -1.8002625q-0.38024902 -0.7180481 -1.0446777 -1.0378418q-0.88375854 -0.43347168 -2.0759888 -0.31433105q-1.1784668 0.11178589 -2.9942932 1.0566101q1.0997314 0.106781006 1.8884583 0.66134644q0.8098755 0.56103516 1.2559509 1.4033203q0.7824402 1.477478 0.2402649 3.091217q-0.5421753 1.6137085 -2.2540588 2.5211182q-1.1320496 0.60006714 -2.368164 0.63635254q-1.2223206 0.028961182 -2.2003174 -0.54907227q-0.9642029 -0.58535767 -1.5345764 -1.662384q-0.9798889 -1.8503113 -0.24121094 -3.727356q0.7524719 -1.8843384 3.8587036 -3.5308533q3.4927673 -1.8514099 5.7466736 -1.4014587q1.9728699 0.3866577 2.9819946 2.2922058q0.75320435 1.4222412 0.42782593 2.7442017q-0.30429077 1.3284607 -1.6173706 2.2543945zm-8.365356 -3.2762146q-0.75930786 0.40249634 -1.2951965 1.0932922q-0.5147705 0.69729614 -0.5803833 1.4747925q-0.051818848 0.77023315 0.28457642 1.4053955q0.49725342 0.93896484 1.59375 1.206604q1.1176147 0.2741089 2.4153442 -0.41375732q1.2424927 -0.65859985 1.609375 -1.7019348q0.3668518 -1.0433044 -0.16696167 -2.0513q-0.5265198 -0.99420166 -1.6173401 -1.3179016q-1.0834961 -0.3098755 -2.243164 0.30480957zm0.51672363 10.3905945l1.6842651 -0.89276123l0.89212036 1.6846008l-1.6842651 0.89276123q-0.9249573 0.4902954 -1.6664734 0.45892334q-0.7553406 -0.024047852 -1.4320068 -0.56726074l0.41567993 -0.7508545q0.44189453 0.3670044 0.95925903 0.37573242q0.5173645 0.008728027 1.2774963 -0.35882568l-0.44607544 -0.8423157zm9.724426 2.6040955q-0.15859985 -1.100769 0.2286377 -1.8719482q0.401062 -0.7784729 1.2707825 -1.239502q1.3115234 -0.6951904 2.6923218 -0.22457886q1.401947 0.47711182 2.2282715 2.037445q0.8336487 1.5741272 0.42703247 3.0098572q-0.39926147 1.4495544 -1.7107849 2.1447449q-0.84213257 0.44638062 -1.6973877 0.3338318q-0.8479309 -0.09875488 -1.6545715 -0.8206482q0.22607422 1.2949219 -0.2675171 2.299286q-0.4935913 1.004364 -1.6118164 1.5971069q-1.5462341 0.8196106 -3.1731262 0.2849121q-1.6269226 -0.5346985 -2.5702515 -2.3159485q-0.94332886 -1.78125 -0.47180176 -3.4282532q0.48532104 -1.6543274 2.059143 -2.488556q1.1734619 -0.6220093 2.2748108 -0.44537354q1.1013489 0.17663574 1.9762573 1.1276245zm2.3452454 -1.614502q-0.85595703 0.45370483 -1.1091614 1.2776184q-0.24591064 0.83773804 0.22210693 1.7214355q0.44604492 0.8423157 1.2696533 1.0954285q0.8309326 0.26693726 1.6040344 -0.14285278q0.81451416 -0.4317627 1.066925 -1.2905884q0.2597046 -0.84506226 -0.18637085 -1.6873474q-0.44607544 -0.8423157 -1.2769775 -1.1092529q-0.8309326 -0.26690674 -1.59021 0.13555908zm-5.8057556 2.4584656q-0.6350403 0.3366394 -1.0751038 0.94125366q-0.4189453 0.611145 -0.43585205 1.3805237q-0.0030822754 0.76205444 0.35525513 1.4386597q0.56307983 1.0632324 1.6051636 1.3950806q1.0559082 0.3244934 2.105133 -0.23165894q1.0630188 -0.56347656 1.3730164 -1.6473694q0.33114624 -1.0774231 -0.2319336 -2.1406555q-0.5557556 -1.0494385 -1.6116638 -1.3739624q-1.048584 -0.31069946 -2.084015 0.23812866zm-2.2092285 12.755127l-0.5557556 -1.049408q5.228882 0.35845947 9.177246 -1.734436q1.5323792 -0.81225586 2.868164 -1.9624329q1.0751343 -0.94125366 1.9439087 -2.0384216q0.577301 -0.71273804 1.7626953 -2.6143494l0.5557556 1.0494385q-1.2380066 2.6368713 -2.9212646 4.4663696q-1.444519 1.5791626 -3.4048767 2.6183167q-2.2088928 1.1708374 -4.7330933 1.4124146q-2.5030823 0.24804688 -4.6927795 -0.14749146z" fill-rule="nonzero"></path><path fill="#000000" d="m563.62665 297.95358l-12.825989 -11.7211l2.477295 -2.710266l1.0150146 0.9275818l-1.3598633 1.4877625l10.784424 9.855408l1.3599243 -1.4877625l1.0265503 0.93811035l-2.477356 2.710266zm-1.78125 -8.310791l0.9598999 -1.2817993q0.97906494 0.61953735 1.7497559 0.5406494q0.75909424 -0.089416504 1.3705444 -0.7583313q0.5165405 -0.5651245 0.65283203 -1.2237549q0.12475586 -0.6691284 -0.060546875 -1.3464661q-0.18530273 -0.67733765 -0.7548218 -1.5364685q-0.56951904 -0.85913086 -1.3307495 -1.5548096q-0.08074951 -0.073791504 -0.26428223 -0.22036743q0.25091553 0.9066467 0.029663086 1.889801q-0.2107544 0.97161865 -0.89593506 1.7212524q-1.1384888 1.245575 -2.8287964 1.2883911q-1.7018433 0.032287598 -3.1782227 -1.316925q-1.5340576 -1.401886 -1.6345215 -3.1447144q-0.101501465 -1.7648926 1.131897 -3.1142578q0.8960571 -0.98031616 2.1645508 -1.3027649q1.2675171 -0.34451294 2.6274414 0.13623047q1.3704224 0.46923828 3.2158813 2.1557312q1.9262085 1.7602539 2.6780396 3.2304993q0.76239014 1.4587097 0.6031494 2.8371887q-0.16021729 1.3564148 -1.1721802 2.4635925q-1.0752563 1.1763916 -2.4179688 1.3252258q-1.3320923 0.13729858 -2.64563 -0.78790283zm0.1776123 -9.087524q-1.0610962 -0.96972656 -2.2005005 -0.9738159q-1.15094 -0.01461792 -1.8783569 0.78118896q-0.7484131 0.81884766 -0.62664795 2.0519714q0.11029053 1.2226257 1.1714478 2.1923523q0.9688721 0.8854065 2.0957031 0.85684204q1.1259155 -0.050598145 1.8954468 -0.8925171q0.7906494 -0.86499023 0.69781494 -1.9446106q-0.09375 -1.1016846 -1.1549072 -2.0714111zm9.573181 3.074829l-1.4071655 -1.2859497l1.2861328 -1.4070435l1.4071655 1.2859497q0.7727661 0.7062378 0.9926758 1.4151917q0.23144531 0.7194824 -0.0524292 1.5395508l-0.8468628 -0.13885498q0.19696045 -0.53970337 0.03112793 -1.0299072q-0.16583252 -0.49020386 -0.7675781 -1.0824585l-0.6430664 0.7035217zm2.3374634 -2.557251l-6.503235 -13.033844l1.30719 -1.4301147l13.787598 5.064514l-1.3809814 1.5108337l-4.1203003 -1.6063232l-3.8372192 4.1980286l2.043579 3.878357l-1.2966309 1.4185486zm-1.4717407 -6.657776l3.1098633 -3.4022522l-3.7400513 -1.5128479q-1.6999512 -0.66452026 -2.7297363 -1.182251q0.78967285 1.0814819 1.4191895 2.291809l1.9407349 3.805542zm14.42218 -1.581665l-0.80114746 0.8765259q-1.4213867 -5.04541 -4.720154 -8.060028q-1.2802734 -1.1699829 -2.812561 -2.0411377q-1.2479248 -0.69589233 -2.5732422 -1.14505q-0.8652954 -0.30392456 -3.0545654 -0.7805786l0.8012085 -0.87649536q2.899231 0.2788391 5.1881104 1.2486572q1.9727783 0.82922363 3.6106567 2.3259888q1.845459 1.6864929 2.921997 3.982605q1.0755615 2.2740784 1.4396973 4.469513z" fill-rule="nonzero"></path><path fill="#000000" d="m462.19592 444.4742l-17.3732 0.25045776l-0.048217773 -3.6715698l1.3748474 -0.019805908l0.026489258 2.015442l14.607849 -0.2106018l-0.02645874 -2.015442l1.3904724 -0.020050049l0.048217773 3.6715698zm-15.65506 -4.567505l-1.6092224 0.023223877l-0.115478516 -8.796112l1.2967529 -0.018707275q1.3918762 1.276947 3.7053223 2.5249634q2.313263 1.2324219 4.74411 1.9005737q1.7095337 0.47540283 3.7424011 0.58673096l0.022583008 1.7185974q-1.6096191 -0.008056641 -3.8828125 -0.5690918q-2.2890015 -0.57644653 -4.4129333 -1.670929q-2.1241455 -1.1101074 -3.5780945 -2.3549194l0.087371826 6.65567zm11.664825 -11.326263l-1.9060669 0.02746582l-0.025024414 -1.9060669l1.9060669 -0.027496338q1.0467529 -0.015075684 1.6922302 0.35064697q0.6611023 0.36550903 1.0152893 1.1573486l-0.7125244 0.47909546q-0.22570801 -0.5280762 -0.6820679 -0.7715149q-0.45635986 -0.24343872 -1.300415 -0.2625122l0.012512207 0.95303345zm-7.4642334 -6.748291q-0.36123657 1.0522156 -1.0577087 1.5622864q-0.7121277 0.51031494 -1.6964111 0.5245056q-1.4842224 0.021392822 -2.4980469 -1.0265808q-1.0296936 -1.063385 -1.0528564 -2.8288574q-0.023376465 -1.7810974 0.9935913 -2.873993q1.0167847 -1.1085205 2.501007 -1.1299438q0.95303345 -0.01373291 1.6626587 0.47610474q0.7094116 0.47418213 1.0977173 1.484314q0.3897705 -1.2557373 1.287323 -1.9249878q0.8975525 -0.669281 2.163025 -0.6875305q1.7498169 -0.02520752 2.9533997 1.191925q1.2035828 1.2171631 1.230072 3.232605q0.02645874 2.0154724 -1.1447144 3.2668457q-1.1867981 1.2516174 -2.967865 1.2772827q-1.3280029 0.019165039 -2.227356 -0.63983154q-0.899353 -0.65896606 -1.2438354 -1.9041443zm-2.8235474 0.36886597q0.96865845 -0.013946533 1.5699768 -0.63204956q0.60110474 -0.633728 0.5879822 -1.633667q-0.012512207 -0.95303345 -0.6298218 -1.5535583q-0.6175232 -0.6161804 -1.4924316 -0.60354614q-0.92178345 0.0132751465 -1.5382996 0.6628418q-0.61672974 0.63397217 -0.6042175 1.5870056q0.012512207 0.95303345 0.6300049 1.5692139q0.6175232 0.6161499 1.4768066 0.60375977zm6.287781 0.45629883q0.71868896 -0.010375977 1.3861694 -0.34814453q0.65167236 -0.35317993 1.0178223 -1.0303955q0.3505249 -0.67700195 0.3404541 -1.4425659q-0.015777588 -1.2030334 -0.79159546 -1.973175q-0.79141235 -0.769928 -1.9787903 -0.7528076q-1.2030029 0.017364502 -1.9735107 0.84103394q-0.7863159 0.8082886 -0.77053833 2.011322q0.015594482 1.1874084 0.80703735 1.9573059q0.79119873 0.754303 1.9629517 0.73742676zm7.7867126 -10.348419l0.015563965 1.1874084q-4.4889526 -2.7012024 -8.957245 -2.6367798q-1.7341919 0.024993896 -3.4476318 0.44036865q-1.3862 0.34814453 -2.659912 0.92907715q-0.83895874 0.37149048 -2.7614746 1.5243225l-0.015594482 -1.1874084q2.3049011 -1.7833862 4.6375427 -2.6452332q2.0059814 -0.7477417 4.224518 -0.7797241q2.4997253 -0.03604126 4.855957 0.8988342q2.340393 0.9194946 4.1082764 2.2691345z" fill-rule="nonzero"></path><path fill="#000000" d="m634.3842 444.31848l-15.457886 -7.933838l1.6809082 -3.264557l1.2232666 0.62786865l-0.92266846 1.7920227l12.9973755 6.67099l0.92266846 -1.7920532l1.2371826 0.63500977l-1.6808472 3.264557zm-0.94836426 -6.418274l-12.093811 -6.207245l2.3389282 -4.542572q0.7081299 -1.3752747 1.4987183 -2.023285q0.7977295 -0.66189575 1.805481 -0.7417908q1.0077515 -0.07992554 1.8417969 0.34817505q0.7784424 0.39953613 1.2589111 1.1730347q0.46655273 0.7663574 0.4401245 1.8416748q0.8847656 -0.9333496 1.9636841 -1.1172485q1.0859985 -0.19781494 2.142456 0.3444519q0.8479614 0.43521118 1.3987427 1.17453q0.5440674 0.71829224 0.675354 1.4530945q0.11743164 0.72766113 -0.08892822 1.6403809q-0.21307373 0.89172363 -0.8067627 2.0447388l-2.3746948 4.6120605zm-6.1973877 -5.200592l1.3446655 -2.6116333q0.55078125 -1.0696716 0.64782715 -1.5994568q0.13397217 -0.7039795 -0.12567139 -1.2236328q-0.25250244 -0.53356934 -0.8919678 -0.8617554q-0.5977173 -0.3067932 -1.206665 -0.2505188q-0.60894775 0.056274414 -1.0547485 0.5124512q-0.45251465 0.43511963 -1.1248169 1.7409363l-1.2445679 2.4171753l3.6559448 1.8764343zm5.588196 2.868164l1.552124 -3.0144958q0.4005127 -0.7779541 0.50231934 -1.1120911q0.18878174 -0.60562134 0.15948486 -1.0948486q-0.04321289 -0.4963684 -0.36645508 -0.96084595q-0.32318115 -0.46447754 -0.89312744 -0.7569885q-0.68115234 -0.34960938 -1.3604126 -0.25915527q-0.67926025 0.090423584 -1.1885986 0.6017761q-0.5232544 0.5042114 -1.1168823 1.6572266l-1.4448853 2.8061218l4.156433 2.1333008zm6.4414673 -8.99472l-1.6959229 -0.8704529l0.8726196 -1.6947632l1.6959229 0.87042236q0.93133545 0.47802734 1.3296509 1.1039429q0.4121704 0.63305664 0.35321045 1.4985046l-0.85406494 0.08856201q0.048583984 -0.5722046 -0.2401123 -1.0013733q-0.28863525 -0.4291687 -1.0250244 -0.84225464l-0.4362793 0.8474121zm2.4746704 -15.216675l1.225647 -1.3906555q1.7164917 1.5132446 2.08667 3.354187q0.35632324 1.8337708 -0.6164551 3.723053q-1.0085449 1.9587402 -2.4302979 2.7745056q-1.43573 0.8086548 -3.2660522 0.677124q-1.8442383 -0.13867188 -3.5818481 -1.0304871q-1.8905029 -0.9703369 -2.9297485 -2.399414q-1.0320435 -1.4429932 -1.0682373 -3.147583q-0.050048828 -1.7117615 0.772522 -3.3092957q0.9369507 -1.8198242 2.5049438 -2.5781555q1.5540161 -0.7654724 3.4724731 -0.3955078l-0.43292236 1.7623901q-1.5351562 -0.26104736 -2.5477295 0.23788452q-1.0265503 0.49179077 -1.6488037 1.7003784q-0.715271 1.3891602 -0.5344238 2.6762695q0.18804932 1.2731934 1.1276245 2.247223q0.9328613 0.9530029 2.128357 1.5665894q1.5429688 0.79193115 2.9256592 0.9395752q1.3759155 0.12664795 2.432251 -0.5254822q1.0634766 -0.6659851 1.62854 -1.7634277q0.6937866 -1.3475037 0.4085083 -2.6706543q-0.29925537 -1.3302917 -1.6566772 -2.4485168zm9.924683 -0.12698364l-0.5435791 1.0557556q-2.6957397 -4.492218 -6.6714478 -6.5327454q-1.5429688 -0.79196167 -3.2509155 -1.2294922q-1.3873901 -0.34326172 -2.78479 -0.42822266q-0.91516113 -0.06576538 -3.1538696 0.049743652l0.54364014 -1.0557556q2.8723145 -0.49279785 5.336548 -0.15887451q2.1222534 0.28137207 4.0961914 1.2944946q2.2241821 1.141571 3.8658447 3.073059q1.6349487 1.910492 2.562378 3.9320374z" fill-rule="nonzero"></path><path fill="#cfe2f3" stroke="#000000" stroke-width="2.0" stroke-linejoin="round" stroke-linecap="butt" d="m537.042 332.50864l0 0c0 -8.323425 6.7474365 -15.070862 15.070862 -15.070862l0 0c3.9970703 0 7.8303833 1.5877991 10.656738 4.414154c2.826294 2.8263245 4.4141235 6.659668 4.4141235 10.656708l0 0c0 8.323395 -6.7474365 15.070862 -15.070862 15.070862l0 0c-8.323425 0 -15.070862 -6.747467 -15.070862 -15.070862z" fill-rule="nonzero"></path><path fill="#000000" d="m547.97186 335.53207l1.59375 -0.15625q0.203125 1.140625 0.78125 1.65625q0.578125 0.5 1.484375 0.5q0.765625 0 1.34375 -0.34375q0.578125 -0.359375 0.953125 -0.953125q0.375 -0.59375 0.625 -1.59375q0.25 -1.0 0.25 -2.03125q0 -0.109375 -0.015625 -0.34375q-0.5 0.796875 -1.375 1.296875q-0.859375 0.5 -1.875 0.5q-1.6875 0 -2.859375 -1.21875q-1.171875 -1.234375 -1.171875 -3.234375q0 -2.078125 1.21875 -3.328125q1.234375 -1.265625 3.0625 -1.265625q1.328125 0 2.421875 0.71875q1.109375 0.703125 1.671875 2.03125q0.578125 1.328125 0.578125 3.828125q0 2.609375 -0.578125 4.15625q-0.5625 1.546875 -1.6875 2.359375q-1.109375 0.796875 -2.609375 0.796875q-1.59375 0 -2.609375 -0.890625q-1.0 -0.890625 -1.203125 -2.484375zm6.828125 -6.0q0 -1.4375 -0.765625 -2.28125q-0.765625 -0.859375 -1.84375 -0.859375q-1.109375 0 -1.9375 0.921875q-0.828125 0.90625 -0.828125 2.34375q0 1.3125 0.78125 2.125q0.796875 0.796875 1.9375 0.796875q1.171875 0 1.90625 -0.796875q0.75 -0.8125 0.75 -2.25z" fill-rule="nonzero"></path><path stroke="#6aa84f" stroke-width="2.0" stroke-linejoin="round" stroke-linecap="butt" d="m376.23044 190.36276l-67.3226 116.599945" fill-rule="evenodd"></path><path fill="#6aa84f" stroke="#6aa84f" stroke-width="2.0" stroke-linecap="butt" d="m306.04697 305.3109l-1.6774292 9.511902l7.3991394 -6.2082825z" fill-rule="evenodd"></path><path fill="#000000" d="m308.49213 299.04172l-14.9887085 -8.788055l1.8588257 -3.1665955l1.1861572 0.6954651l-1.0203552 1.7382507l12.602905 7.389221l1.0203552 -1.7382507l1.199646 0.70336914l-1.8588257 3.1665955zm-3.9721985 -7.739746l0.7590332 -1.6017151q1.2001953 0.48635864 2.1222534 0.21191406q0.9165039 -0.2958374 1.4227295 -1.1582336q0.6090698 -1.0375671 0.246521 -2.2101135q-0.35464478 -1.1860046 -1.6621094 -1.9526062q-1.226593 -0.7191467 -2.3523254 -0.4373169q-1.1177979 0.26837158 -1.7743225 1.3867798q-0.40338135 0.68722534 -0.41210938 1.4428406q-0.014282227 0.7342529 0.30807495 1.3579407l-0.9741211 1.2582397l-5.366272 -4.6858826l3.4249878 -5.8346252l1.3883362 0.81399536l-2.752655 4.68927l2.7688599 2.474701q-0.102996826 -1.491272 0.5772705 -2.650116q0.9017334 -1.5361328 2.5835571 -1.9628601q1.6897278 -0.44018555 3.3611145 0.5397644q1.5905457 0.93255615 2.203949 2.5419617q0.76434326 1.9696045 -0.38259888 3.9234924q-0.9412842 1.6035156 -2.4241333 2.0925293q-1.4963379 0.48114014 -3.06604 -0.23995972zm8.784546 -7.9276733l-1.6444397 -0.96414185l0.96499634 -1.6439514l1.6444702 0.96417236q0.9030762 0.52948 1.2658691 1.1769104q0.37631226 0.6553345 0.2694397 1.5164185l-0.8573303 0.04071045q0.08023071 -0.5687866 -0.18411255 -1.0135803q-0.26434326 -0.4447937 -0.9763794 -0.89849854l-0.48251343 0.82196045zm-2.3005066 -16.359283l-0.73062134 1.4915466q-0.9599304 -0.30923462 -1.5509033 -0.16668701q-0.96017456 0.21588135 -1.4584961 1.0648193q-0.41131592 0.7006836 -0.33447266 1.434021q0.0953064 0.97961426 0.822937 1.931488q0.71414185 0.94400024 2.4719849 1.9927368q-0.4867859 -0.9917908 -0.42913818 -1.9541931q0.05206299 -0.98376465 0.5345764 -1.8057556q0.846344 -1.441803 2.5044556 -1.8280945q1.658081 -0.3862915 3.3294678 0.59368896q1.1052856 0.64801025 1.7854614 1.6807556q0.666687 1.0248108 0.68847656 2.1605835q0.008300781 1.1278381 -0.6086731 2.178894q-1.0599365 1.8056335 -3.0453186 2.1630554q-1.9988708 0.3494873 -5.0316467 -1.4286499q-3.4101868 -1.9994507 -4.2111816 -4.1535645q-0.70718384 -1.8817444 0.3843689 -3.741272q0.8147278 -1.3879395 2.1106567 -1.8054199q1.2903748 -0.4389038 2.7680664 0.19204712zm1.605896 8.838654q0.7413635 0.43466187 1.6107178 0.527771q0.86376953 0.071746826 1.5599365 -0.28082275q0.6826782 -0.36044312 1.0465393 -0.98031616q0.5378723 -0.9162903 0.18966675 -1.9898376q-0.35375977 -1.0949402 -1.6207886 -1.8377991q-1.2131042 -0.7112732 -2.2937012 -0.47543335q-1.0805969 0.23583984 -1.65802 1.2195129q-0.56951904 0.97021484 -0.27200317 2.06839q0.30541992 1.0846863 1.4376526 1.7485352zm12.354004 -4.4401855l-0.6011658 1.0241089q-2.4414673 -4.63739 -6.2964783 -6.897644q-1.4961548 -0.8772278 -3.1766052 -1.409668q-1.3657532 -0.42037964 -2.7557983 -0.583313q-0.90979004 -0.11685181 -3.1506958 -0.12661743l0.6011658 -1.0240784q2.894287 -0.33166504 5.3353577 0.1395874q2.1026611 0.3996277 4.016693 1.5218506q2.1566467 1.2644653 3.6880798 3.2853699q1.5258789 1.9994812 2.339447 4.070404z" fill-rule="nonzero"></path><path fill="#cfe2f3" stroke="#000000" stroke-width="2.0" stroke-linejoin="round" stroke-linecap="butt" d="m283.03937 332.50864l0 0c0 -8.323425 6.747467 -15.070862 15.070862 -15.070862l0 0c3.9970398 0 7.8303833 1.5877991 10.656708 4.414154c2.826355 2.8263245 4.414154 6.659668 4.414154 10.656708l0 0c0 8.323395 -6.7474365 15.070862 -15.070862 15.070862l0 0c-8.323395 0 -15.070862 -6.747467 -15.070862 -15.070862z" fill-rule="nonzero"></path><path fill="#000000" d="m293.7036 335.1102l1.765625 -0.15625q0.1875 1.28125 0.890625 1.9375q0.71875 0.640625 1.71875 0.640625q1.203125 0 2.03125 -0.90625q0.84375 -0.90625 0.84375 -2.421875q0 -1.421875 -0.8125 -2.25q-0.796875 -0.828125 -2.09375 -0.828125q-0.796875 0 -1.453125 0.375q-0.640625 0.359375 -1.015625 0.953125l-1.578125 -0.203125l1.328125 -7.0l6.765625 0l0 1.609375l-5.4375 0l-0.734375 3.640625q1.234375 -0.84375 2.578125 -0.84375q1.78125 0 3.0 1.234375q1.234375 1.234375 1.234375 3.171875q0 1.84375 -1.078125 3.1875q-1.3125 1.65625 -3.578125 1.65625q-1.859375 0 -3.03125 -1.03125q-1.171875 -1.046875 -1.34375 -2.765625z" fill-rule="nonzero"></path><path stroke="#6aa84f" stroke-width="2.0" stroke-linejoin="round" stroke-linecap="butt" d="m213.4614 190.36276l-85.73364 117.38446" fill-rule="evenodd"></path><path fill="#6aa84f" stroke="#6aa84f" stroke-width="2.0" stroke-linecap="butt" d="m125.06005 305.79883l-2.6854782 9.277832l8.020874 -5.3810425z" fill-rule="evenodd"></path><path fill="#000000" d="m128.91568 298.15945l-13.930046 -10.384827l2.196312 -2.9425964l1.1023712 0.82180786l-1.2056274 1.6152954l11.712753 8.731873l1.2056274 -1.6153259l1.114914 0.83117676l-2.1963043 2.9425964zm-3.111473 -8.161102l0.824646 -1.4705505q1.3081818 0.62442017 2.2204819 0.44702148q0.9216614 -0.18991089 1.5104523 -0.9787903q0.71029663 -0.95162964 0.5448761 -2.088379q-0.17793274 -1.1460876 -1.1425171 -1.8651733q-0.9144745 -0.6817627 -1.9737167 -0.516449q-1.0499039 0.152771 -1.7415085 1.0793762q-0.28038025 0.37564087 -0.55062103 1.051178l-1.0653915 -1.0281067q0.10598755 -0.115875244 0.1714096 -0.20352173q0.63552856 -0.85147095 0.70175934 -1.8545227q0.063056946 -1.0248718 -0.8639374 -1.7159424q-0.7390976 -0.5509949 -1.5889587 -0.4050293q-0.85305023 0.12414551 -1.4418411 0.9129944q-0.5794525 0.7763672 -0.48342896 1.6664734q0.10536194 0.8776245 0.9828491 1.7656555l-1.2380371 1.162384q-1.1753464 -1.246521 -1.2695618 -2.661499q-0.084877014 -1.4275208 0.88710785 -2.7297668q0.66355896 -0.8890381 1.6126556 -1.3508606q0.9365692 -0.47113037 1.8902283 -0.36434937q0.96300507 0.0942688 1.702095 0.6452637q0.71404266 0.5323181 1.009903 1.3375549q0.29586792 0.8052368 0.085861206 1.8180542q0.94194794 -0.8179321 2.0485153 -0.81155396q1.1033936 -0.0154418945 2.1556702 0.76901245q1.4280701 1.0646362 1.641983 2.8417053q0.21392822 1.7770691 -0.9730072 3.36734q-1.0747986 1.4400024 -2.6369324 1.7565918q-1.5527802 0.30410767 -3.0210342 -0.57611084zm9.620094 -6.880768l-1.5282898 -1.1393433l1.140213 -1.5276489l1.5282898 1.1393433q0.8393097 0.6257019 1.1286163 1.3091125q0.3018341 0.692749 0.1007843 1.5368042l-0.8566284 -0.05392456q0.14237976 -0.55648804 -0.07136536 -1.0276489q-0.21374512 -0.4711914 -0.87150574 -1.0005188l-0.57011414 0.76382446zm5.763962 -7.722534l-2.605606 -1.9425049l-3.5327911 4.7332153l-1.2276459 -0.91519165l-3.3455353 -10.250793l0.81311035 -1.089386l7.0652313 5.267151l1.102829 -1.4775696l1.2276459 0.91519165l-1.102829 1.4775696l2.6056213 1.9425049l-1.0000305 1.3398132zm-3.833252 -2.8576965l-4.923126 -3.6701965l2.381012 7.076111l2.5421143 -3.4059143zm10.9752655 -0.023773193l-0.71029663 0.95166016q-1.9159546 -4.8779297 -5.4986877 -7.5488586q-1.3905029 -1.0365906 -3.002121 -1.750824q-1.3111725 -0.5682068 -2.6748352 -0.88323975q-0.89141846 -0.21627808 -3.1176758 -0.4727478l0.71029663 -0.95166016q2.913269 -0.010925293 5.2876587 0.7262573q2.0458984 0.62872314 3.8247375 1.954834q2.0043182 1.4942322 3.3039246 3.6713867q1.2964172 2.1553345 1.8769989 4.303192z" fill-rule="nonzero"></path><path fill="#cfe2f3" stroke="#000000" stroke-width="2.0" stroke-linejoin="round" stroke-linecap="butt" d="m105.57923 332.50864l0 0c0 -8.323425 6.7474594 -15.070862 15.070869 -15.070862l0 0c3.9970398 0 7.830368 1.5877991 10.656708 4.414154c2.8263397 2.8263245 4.414154 6.659668 4.414154 10.656708l0 0c0 8.323395 -6.747452 15.070862 -15.070862 15.070862l0 0c-8.32341 0 -15.070869 -6.747467 -15.070869 -15.070862z" fill-rule="nonzero"></path><path fill="#000000" d="m116.25912 335.07895l1.671875 -0.21875q0.28125 1.421875 0.96875 2.046875q0.703125 0.625 1.6875 0.625q1.1875 0 2.0 -0.8125q0.8125 -0.828125 0.8125 -2.03125q0 -1.140625 -0.765625 -1.890625q-0.75 -0.75 -1.90625 -0.75q-0.46875 0 -1.171875 0.1875l0.1875 -1.46875q0.15625 0.015625 0.265625 0.015625q1.0625 0 1.90625 -0.546875q0.859375 -0.5625 0.859375 -1.71875q0 -0.921875 -0.625 -1.515625q-0.609375 -0.609375 -1.59375 -0.609375q-0.96875 0 -1.625 0.609375q-0.640625 0.609375 -0.828125 1.84375l-1.671875 -0.296875q0.296875 -1.6875 1.375 -2.609375q1.09375 -0.921875 2.71875 -0.921875q1.109375 0 2.046875 0.484375q0.9375 0.46875 1.421875 1.296875q0.5 0.828125 0.5 1.75q0 0.890625 -0.46875 1.609375q-0.46875 0.71875 -1.40625 1.15625q1.21875 0.265625 1.875 1.15625q0.671875 0.875 0.671875 2.1875q0 1.78125 -1.296875 3.015625q-1.296875 1.234375 -3.28125 1.234375q-1.796875 0 -2.984375 -1.0625q-1.171875 -1.0625 -1.34375 -2.765625z" fill-rule="nonzero"></path><path fill="#cfe2f3" stroke="#000000" stroke-width="2.0" stroke-linejoin="round" stroke-linecap="butt" d="m209.04724 179.70604l0 0c0 -8.32341 6.747467 -15.070862 15.070877 -15.070862l0 0c3.9970398 0 7.830368 1.5878143 10.656708 4.414154c2.8263397 2.8263245 4.414154 6.659668 4.414154 10.656708l0 0c0 8.32341 -6.747467 15.070862 -15.070862 15.070862l0 0c-8.32341 0 -15.070877 -6.747452 -15.070877 -15.070862z" fill-rule="nonzero"></path><path fill="#000000" d="m228.49275 184.26073l0 1.609375l-8.984375 0q-0.015625 -0.609375 0.1875 -1.15625q0.34375 -0.921875 1.09375 -1.8125q0.765625 -0.890625 2.1875 -2.0625q2.21875 -1.8125 3.0 -2.875q0.78125 -1.0625 0.78125 -2.015625q0 -0.984375 -0.71875 -1.671875q-0.703125 -0.6875 -1.84375 -0.6875q-1.203125 0 -1.9375 0.734375q-0.71875 0.71875 -0.71875 2.0l-1.71875 -0.171875q0.171875 -1.921875 1.328125 -2.921875q1.15625 -1.015625 3.09375 -1.015625q1.953125 0 3.09375 1.09375q1.140625 1.078125 1.140625 2.6875q0 0.8125 -0.34375 1.609375q-0.328125 0.78125 -1.109375 1.65625q-0.765625 0.859375 -2.5625 2.390625q-1.5 1.265625 -1.9375 1.71875q-0.421875 0.4375 -0.703125 0.890625l6.671875 0z" fill-rule="nonzero"></path><path stroke="#f1c232" stroke-width="2.0" stroke-linejoin="round" stroke-linecap="butt" d="m469.3433 42.782696l-234.47878 116.51257" fill-rule="evenodd"></path><path fill="#f1c232" stroke="#f1c232" stroke-width="2.0" stroke-linecap="butt" d="m233.39452 156.3369l-6.6580353 6.9972076l9.598053 -1.0804596z" fill-rule="evenodd"></path><path stroke="#f1c232" stroke-width="2.0" stroke-linejoin="round" stroke-linecap="butt" d="m480.0 47.19685l-85.65747 108.03526" fill-rule="evenodd"></path><path fill="#f1c232" stroke="#f1c232" stroke-width="2.0" stroke-linecap="butt" d="m391.75394 153.17973l-3.050293 9.164383l8.227417 -5.0596313z" fill-rule="evenodd"></path><path fill="#000000" d="m247.4266 147.5877l-7.888672 -15.480942l3.2725677 -1.6652069l0.62428284 1.2251129l-1.7964325 0.914093l6.633011 13.0168l1.7964325 -0.914093l0.6313782 1.2390289l-3.2725677 1.6652069zm9.53894 -10.902115l0.7306824 1.4339294l-8.007355 4.0744476q-0.29058838 -0.53585815 -0.35784912 -1.1152344q-0.11218262 -0.97727966 0.15188599 -2.1109467q0.27799988 -1.1407471 1.0131989 -2.8296967q1.154541 -2.6211243 1.3684387 -3.922104q0.2138977 -1.3009796 -0.21884155 -2.1502075q-0.44692993 -0.87705994 -1.3996735 -1.1636658q-0.938797 -0.2936859 -1.9553833 0.22358704q-1.0722961 0.5456238 -1.3933868 1.5329895q-0.31425476 0.96635437 0.26745605 2.1079254l-1.6098785 0.6263275q-0.71939087 -1.7903137 -0.14289856 -3.2056732q0.569397 -1.4292755 2.2962036 -2.3079376q1.7407227 -0.8857422 3.2539062 -0.4284973q1.506073 0.44332123 2.2367706 1.8772583q0.36889648 0.7239227 0.42433167 1.5898285q0.06225586 0.8448944 -0.23675537 1.9788055q-0.29219055 1.1128998 -1.1984406 3.2921143q-0.7622528 1.8079224 -0.9464569 2.4100494q-0.1773529 0.581131 -0.22229004 1.1124115l5.946335 -3.025711zm2.9594727 0.29985046l-0.8654785 -1.6984406l1.6989441 -0.86450195l0.8654785 1.6984558q0.47531128 0.9327545 0.4319458 1.6736145q-0.036254883 0.75476074 -0.59039307 1.4224243l-0.7441101 -0.42781067q0.3741455 -0.4358368 0.39123535 -0.9529419q0.017089844 -0.5171051 -0.33813477 -1.2830353l-0.8494873 0.43223572zm8.588501 -4.3701477l-1.4755554 -2.8957214l-5.263977 2.6785126l-0.69522095 -1.3643341l1.5413818 -10.672066l1.2115479 -0.61647797l4.0010986 7.851845l1.6432495 -0.8361511l0.69522095 1.3643265l-1.6432495 0.8361511l1.4755859 2.8957214l-1.4900818 0.75819397zm-2.170807 -4.2600403l-2.7879639 -5.471237l-0.9998474 7.3986206l3.7878113 -1.9273834zm9.850342 4.8404694l-1.0583801 0.5385437q0.4430542 -5.2219086 -1.585846 -9.203522q-0.7874756 -1.545311 -1.9159546 -2.8995514q-0.9238281 -1.0902252 -2.0068665 -1.9767075q-0.70339966 -0.5887985 -2.5857239 -1.8048935l1.0583801 -0.5385361q2.6166992 1.2807007 4.4188843 2.9934006q1.5557556 1.4699478 2.5631104 3.4468307q1.1350708 2.2274704 1.3357849 4.7550583q0.20755005 2.5065765 -0.22338867 4.689377z" fill-rule="nonzero"></path></svg>

