<?xml version="1.0" standalone="yes"?>

<svg version="1.1" viewBox="0.0 0.0 960.0 720.0" fill="none" stroke="none" stroke-linecap="square" stroke-miterlimit="10" clip-path="url(#p.0)" xmlns="http://www.w3.org/2000/svg" xmlns:xlink="http://www.w3.org/1999/xlink"><clipPath id="p.0"><path d="m0 0l960.0 0l0 720.0l-960.0 0l0 -720.0z" clip-rule="nonzero"></path></clipPath><path stroke="#000000" stroke-width="2.0" stroke-linejoin="round" stroke-linecap="butt" d="m807.296 232.62767l0 0c70.34454 169.94716 -10.399292 364.74207 -180.34644 435.0866l0 0c-81.61151 33.78064 -173.29974 33.75769 -254.89432 -0.06384277c-81.59454 -33.821533 -146.41168 -98.67114 -180.19232 -180.28262l0 0c-70.34455 -169.94717 10.399307 -364.74207 180.34647 -435.0866l0 0c169.94714 -70.34455 364.74207 10.399307 435.0866 180.34647z" fill-rule="nonzero"></path><path fill="#cfe2f3" stroke="#000000" stroke-width="2.0" stroke-linejoin="round" stroke-linecap="butt" d="m484.4908 26.17323l0 0c0 -8.32341 6.747467 -15.070867 15.070862 -15.070867l0 0c3.9970398 0 7.8303833 1.5878181 10.656708 4.414154c2.826355 2.8263369 4.4141846 6.659669 4.4141846 10.656713l0 0c0 8.32341 -6.747467 15.070866 -15.070892 15.070866l0 0c-8.323395 0 -15.070862 -6.7474556 -15.070862 -15.070866z" fill-rule="nonzero"></path><path fill="#000000" d="m495.15506 25.634167q0 -2.421875 0.5 -3.890625q0.5 -1.46875 1.46875 -2.265625q0.984375 -0.796875 2.46875 -0.796875q1.09375 0 1.921875 0.4375q0.828125 0.4375 1.359375 1.28125q0.546875 0.828125 0.84375 2.015625q0.3125 1.1875 0.3125 3.21875q0 2.390625 -0.5 3.859375q-0.484375 1.46875 -1.46875 2.28125q-0.96875 0.796875 -2.46875 0.796875q-1.96875 0 -3.078125 -1.40625q-1.359375 -1.703125 -1.359375 -5.53125zm1.71875 0q0 3.34375 0.78125 4.453125q0.796875 1.109375 1.9375 1.109375q1.15625 0 1.9375 -1.109375q0.78125 -1.125 0.78125 -4.453125q0 -3.359375 -0.78125 -4.46875q-0.78125 -1.109375 -1.953125 -1.109375q-1.15625 0 -1.828125 0.984375q-0.875 1.234375 -0.875 4.59375z" fill-rule="nonzero"></path><path fill="#cfe2f3" stroke="#000000" stroke-width="2.0" stroke-linejoin="round" stroke-linecap="butt" d="m484.4908 692.3937l0 0c0 -8.323364 6.747467 -15.070862 15.070862 -15.070862l0 0c3.9970398 0 7.8303833 1.5878296 10.656708 4.4141846c2.826355 2.826355 4.4141846 6.659668 4.4141846 10.656677l0 0c0 8.323425 -6.747467 15.070862 -15.070892 15.070862l0 0c-8.323395 0 -15.070862 -6.7474365 -15.070862 -15.070862z" fill-rule="nonzero"></path><path fill="#000000" d="m497.7332 691.18274q-1.046875 -0.375 -1.546875 -1.078125q-0.5 -0.71875 -0.5 -1.703125q0 -1.484375 1.0625 -2.484375q1.078125 -1.015625 2.84375 -1.015625q1.78125 0 2.859375 1.03125q1.09375 1.03125 1.09375 2.515625q0 0.953125 -0.5 1.65625q-0.484375 0.703125 -1.5 1.078125q1.25 0.40625 1.90625 1.3125q0.65625 0.90625 0.65625 2.171875q0 1.75 -1.234375 2.9375q-1.234375 1.1875 -3.25 1.1875q-2.015625 0 -3.25 -1.1875q-1.234375 -1.203125 -1.234375 -2.984375q0 -1.328125 0.671875 -2.21875q0.671875 -0.890625 1.921875 -1.21875zm-0.328125 -2.828125q0 0.96875 0.609375 1.578125q0.625 0.609375 1.625 0.609375q0.953125 0 1.5625 -0.609375q0.625 -0.609375 0.625 -1.484375q0 -0.921875 -0.640625 -1.546875q-0.625 -0.625 -1.578125 -0.625q-0.953125 0 -1.578125 0.609375q-0.625 0.609375 -0.625 1.46875zm-0.546875 6.28125q0 0.71875 0.328125 1.390625q0.34375 0.65625 1.015625 1.03125q0.671875 0.359375 1.4375 0.359375q1.203125 0 1.984375 -0.765625q0.78125 -0.78125 0.78125 -1.96875q0 -1.203125 -0.8125 -1.984375q-0.796875 -0.796875 -2.0 -0.796875q-1.1875 0 -1.96875 0.78125q-0.765625 0.78125 -0.765625 1.953125z" fill-rule="nonzero"></path><path fill="#cfe2f3" stroke="#000000" stroke-width="2.0" stroke-linejoin="round" stroke-linecap="butt" d="m613.23157 54.729057l0 0c0 -8.32341 6.7474976 -15.070866 15.070862 -15.070866l0 0c3.9970703 0 7.8303833 1.5878181 10.656738 4.414154c2.826355 2.826336 4.4141235 6.659668 4.4141235 10.656712l0 0c0 8.32341 -6.7474365 15.070869 -15.070862 15.070869l0 0c-8.323364 0 -15.070862 -6.7474594 -15.070862 -15.070869z" fill-rule="nonzero"></path><path fill="#000000" d="m630.19275 60.89312l-1.671875 0l0 -10.640625q-0.59375 0.578125 -1.578125 1.15625q-0.984375 0.5625 -1.765625 0.859375l0 -1.625q1.40625 -0.65625 2.453125 -1.59375q1.046875 -0.9375 1.484375 -1.8125l1.078125 0l0 13.65625z" fill-rule="nonzero"></path><path fill="#cfe2f3" stroke="#000000" stroke-width="2.0" stroke-linejoin="round" stroke-linecap="butt" d="m354.8708 667.0802l0 0c0 -8.323425 6.7474365 -15.070862 15.070862 -15.070862l0 0c3.9970398 0 7.8303833 1.5877686 10.656708 4.4141235c2.8263245 2.826355 4.414154 6.659668 4.414154 10.656738l0 0c0 8.323364 -6.747467 15.070862 -15.070862 15.070862l0 0c-8.323425 0 -15.070862 -6.7474976 -15.070862 -15.070862z" fill-rule="nonzero"></path><path fill="#000000" d="m365.80066 670.10364l1.59375 -0.15625q0.203125 1.140625 0.78125 1.65625q0.578125 0.5 1.484375 0.5q0.765625 0 1.34375 -0.34375q0.578125 -0.359375 0.953125 -0.953125q0.375 -0.59375 0.625 -1.59375q0.25 -1.0 0.25 -2.03125q0 -0.109375 -0.015625 -0.34375q-0.5 0.796875 -1.375 1.296875q-0.859375 0.5 -1.875 0.5q-1.6875 0 -2.859375 -1.21875q-1.171875 -1.234375 -1.171875 -3.234375q0 -2.078125 1.21875 -3.328125q1.234375 -1.265625 3.0625 -1.265625q1.328125 0 2.421875 0.71875q1.109375 0.703125 1.671875 2.03125q0.578125 1.328125 0.578125 3.828125q0 2.609375 -0.578125 4.15625q-0.5625 1.546875 -1.6875 2.359375q-1.109375 0.796875 -2.609375 0.796875q-1.59375 0 -2.609375 -0.890625q-1.0 -0.890625 -1.203125 -2.484375zm6.828125 -6.0q0 -1.4375 -0.765625 -2.28125q-0.765625 -0.859375 -1.84375 -0.859375q-1.109375 0 -1.9375 0.921875q-0.828125 0.90625 -0.828125 2.34375q0 1.3125 0.78125 2.125q0.796875 0.796875 1.9375 0.796875q1.171875 0 1.90625 -0.796875q0.75 -0.8125 0.75 -2.25z" fill-rule="nonzero"></path><path fill="#cfe2f3" stroke="#000000" stroke-width="2.0" stroke-linejoin="round" stroke-linecap="butt" d="m718.47424 121.181496l0 0c0 -8.32341 6.7474365 -15.070869 15.070862 -15.070869l0 0c3.9970703 0 7.8303833 1.587822 10.656738 4.414154c2.826294 2.8263397 4.4141235 6.659668 4.4141235 10.656715l0 0c0 8.323402 -6.7474365 15.070869 -15.070862 15.070869l0 0c-8.323425 0 -15.070862 -6.747467 -15.070862 -15.070869z" fill-rule="nonzero"></path><path fill="#000000" d="m737.91974 125.73618l0 1.609375l-8.984375 0q-0.015625 -0.609375 0.1875 -1.15625q0.34375 -0.921875 1.09375 -1.8125q0.765625 -0.890625 2.1875 -2.0625q2.21875 -1.8125 3.0 -2.875q0.78125 -1.0625 0.78125 -2.015625q0 -0.984375 -0.71875 -1.671875q-0.703125 -0.6875 -1.84375 -0.6875q-1.203125 0 -1.9375 0.734375q-0.71875 0.71875 -0.71875 2.0l-1.71875 -0.171875q0.171875 -1.921875 1.328125 -2.921875q1.15625 -1.015625 3.09375 -1.015625q1.953125 0 3.09375 1.09375q1.140625 1.078125 1.140625 2.6875q0 0.8125 -0.34375 1.609375q-0.328125 0.78125 -1.109375 1.65625q-0.765625 0.859375 -2.5625 2.390625q-1.5 1.265625 -1.9375 1.71875q-0.421875 0.4375 -0.703125 0.890625l6.671875 0z" fill-rule="nonzero"></path><path fill="#cfe2f3" stroke="#000000" stroke-width="2.0" stroke-linejoin="round" stroke-linecap="butt" d="m247.13387 595.0551l0 0c0 -8.323425 6.747452 -15.070862 15.070847 -15.070862l0 0c3.9970703 0 7.8303833 1.5878296 10.656738 4.4141235c2.8263245 2.826355 4.414154 6.659729 4.414154 10.656738l0 0c0 8.323425 -6.747467 15.070862 -15.070892 15.070862l0 0c-8.323395 0 -15.070847 -6.7474365 -15.070847 -15.070862z" fill-rule="nonzero"></path><path fill="#000000" d="m255.95169 601.2192l5.234375 -13.59375l1.9375 0l5.5625 13.59375l-2.046875 0l-1.59375 -4.125l-5.6875 0l-1.484375 4.125l-1.921875 0zm3.921875 -5.578125l4.609375 0l-1.40625 -3.78125q-0.65625 -1.703125 -0.96875 -2.8125q-0.265625 1.3125 -0.734375 2.59375l-1.5 4.0z" fill-rule="nonzero"></path><path fill="#cfe2f3" stroke="#000000" stroke-width="2.0" stroke-linejoin="round" stroke-linecap="butt" d="m789.7244 230.29659l0 0c0 -8.32341 6.7474365 -15.070862 15.070862 -15.070862l0 0c3.9970093 0 7.8303833 1.5878143 10.656677 4.414154c2.826355 2.8263397 4.4141846 6.659668 4.4141846 10.656708l0 0c0 8.32341 -6.7474365 15.070877 -15.070862 15.070877l0 0c-8.323425 0 -15.070862 -6.747467 -15.070862 -15.070877z" fill-rule="nonzero"></path><path fill="#000000" d="m800.4043 232.8669l1.671875 -0.21875q0.28125 1.421875 0.96875 2.046875q0.703125 0.625 1.6875 0.625q1.1875 0 2.0 -0.8125q0.8125 -0.828125 0.8125 -2.03125q0 -1.140625 -0.765625 -1.890625q-0.75 -0.75 -1.90625 -0.75q-0.46875 0 -1.171875 0.1875l0.1875 -1.46875q0.15625 0.015625 0.265625 0.015625q1.0625 0 1.90625 -0.546875q0.859375 -0.5625 0.859375 -1.71875q0 -0.921875 -0.625 -1.515625q-0.609375 -0.609375 -1.59375 -0.609375q-0.96875 0 -1.625 0.609375q-0.640625 0.609375 -0.828125 1.84375l-1.671875 -0.296875q0.296875 -1.6875 1.375 -2.609375q1.09375 -0.921875 2.71875 -0.921875q1.109375 0 2.046875 0.484375q0.9375 0.46875 1.421875 1.296875q0.5 0.828125 0.5 1.75q0 0.890625 -0.46875 1.609375q-0.46875 0.71875 -1.40625 1.15625q1.21875 0.265625 1.875 1.15625q0.671875 0.875 0.671875 2.1875q0 1.78125 -1.296875 3.015625q-1.296875 1.234375 -3.28125 1.234375q-1.796875 0 -2.984375 -1.0625q-1.171875 -1.0625 -1.34375 -2.765625z" fill-rule="nonzero"></path><path fill="#cfe2f3" stroke="#000000" stroke-width="2.0" stroke-linejoin="round" stroke-linecap="butt" d="m177.70604 488.93964l0 0c0 -8.323425 6.747452 -15.070862 15.070862 -15.070862l0 0c3.9970398 0 7.8303833 1.5877991 10.656708 4.414154c2.8263397 2.8263245 4.414154 6.659668 4.414154 10.656708l0 0c0 8.323395 -6.747452 15.070862 -15.070862 15.070862l0 0c-8.32341 0 -15.070862 -6.747467 -15.070862 -15.070862z" fill-rule="nonzero"></path><path fill="#000000" d="m187.94574 495.1037l0 -13.59375l5.109375 0q1.546875 0 2.484375 0.40625q0.953125 0.40625 1.484375 1.265625q0.53125 0.859375 0.53125 1.796875q0 0.875 -0.46875 1.65625q-0.46875 0.765625 -1.4375 1.234375q1.234375 0.359375 1.890625 1.234375q0.671875 0.875 0.671875 2.0625q0 0.953125 -0.40625 1.78125q-0.390625 0.8125 -0.984375 1.265625q-0.59375 0.4375 -1.5 0.671875q-0.890625 0.21875 -2.1875 0.21875l-5.1875 0zm1.796875 -7.890625l2.9375 0q1.203125 0 1.71875 -0.15625q0.6875 -0.203125 1.03125 -0.671875q0.359375 -0.46875 0.359375 -1.1875q0 -0.671875 -0.328125 -1.1875q-0.328125 -0.515625 -0.9375 -0.703125q-0.59375 -0.203125 -2.0625 -0.203125l-2.71875 0l0 4.109375zm0 6.28125l3.390625 0q0.875 0 1.21875 -0.0625q0.625 -0.109375 1.046875 -0.359375q0.421875 -0.265625 0.6875 -0.765625q0.265625 -0.5 0.265625 -1.140625q0 -0.765625 -0.390625 -1.328125q-0.390625 -0.5625 -1.078125 -0.78125q-0.6875 -0.234375 -1.984375 -0.234375l-3.15625 0l0 4.671875z" fill-rule="nonzero"></path><path fill="#cfe2f3" stroke="#000000" stroke-width="2.0" stroke-linejoin="round" stroke-linecap="butt" d="m819.86615 350.70364l0 0c0 -8.323395 6.7474365 -15.070862 15.070862 -15.070862l0 0c3.9970093 0 7.8303833 1.5878296 10.656738 4.414154c2.826294 2.826355 4.4141235 6.659668 4.4141235 10.656708l0 0c0 8.323425 -6.7474365 15.070892 -15.070862 15.070892l0 0c-8.323425 0 -15.070862 -6.747467 -15.070862 -15.070892z" fill-rule="nonzero"></path><path fill="#000000" d="m835.8898 356.8677l0 -3.25l-5.90625 0l0 -1.53125l6.21875 -8.8125l1.359375 0l0 8.8125l1.84375 0l0 1.53125l-1.84375 0l0 3.25l-1.671875 0zm0 -4.78125l0 -6.140625l-4.25 6.140625l4.25 0z" fill-rule="nonzero"></path><path fill="#cfe2f3" stroke="#000000" stroke-width="2.0" stroke-linejoin="round" stroke-linecap="butt" d="m147.5643 369.28635l0 0c0 -8.323425 6.747467 -15.070892 15.070877 -15.070892l0 0c3.9970398 0 7.830368 1.5878296 10.656708 4.4141846c2.8263397 2.8263245 4.414154 6.659668 4.414154 10.656708l0 0c0 8.323395 -6.747452 15.070862 -15.070862 15.070862l0 0c-8.32341 0 -15.070877 -6.747467 -15.070877 -15.070862z" fill-rule="nonzero"></path><path fill="#000000" d="m167.07057 370.68478l1.796875 0.453125q-0.5625 2.21875 -2.03125 3.390625q-1.46875 1.15625 -3.59375 1.15625q-2.203125 0 -3.578125 -0.890625q-1.375 -0.90625 -2.09375 -2.59375q-0.71875 -1.703125 -0.71875 -3.65625q0 -2.125 0.796875 -3.703125q0.8125 -1.578125 2.3125 -2.390625q1.5 -0.828125 3.296875 -0.828125q2.046875 0 3.4375 1.046875q1.390625 1.03125 1.9375 2.90625l-1.765625 0.421875q-0.46875 -1.484375 -1.375 -2.15625q-0.90625 -0.6875 -2.265625 -0.6875q-1.5625 0 -2.625 0.75q-1.046875 0.75 -1.484375 2.03125q-0.421875 1.265625 -0.421875 2.609375q0 1.734375 0.5 3.03125q0.515625 1.28125 1.578125 1.921875q1.078125 0.640625 2.3125 0.640625q1.515625 0 2.5625 -0.859375q1.046875 -0.875 1.421875 -2.59375z" fill-rule="nonzero"></path><path fill="#cfe2f3" stroke="#000000" stroke-width="2.0" stroke-linejoin="round" stroke-linecap="butt" d="m789.7244 481.43307l0 0c0 -8.323425 6.7474365 -15.070862 15.070862 -15.070862l0 0c3.9970093 0 7.8303833 1.5877991 10.656677 4.414154c2.826355 2.8263245 4.4141846 6.659668 4.4141846 10.656708l0 0c0 8.323395 -6.7474365 15.070862 -15.070862 15.070862l0 0c-8.323425 0 -15.070862 -6.747467 -15.070862 -15.070862z" fill-rule="nonzero"></path><path fill="#000000" d="m800.3887 484.03464l1.765625 -0.15625q0.1875 1.28125 0.890625 1.9375q0.71875 0.640625 1.71875 0.640625q1.203125 0 2.03125 -0.90625q0.84375 -0.90625 0.84375 -2.421875q0 -1.421875 -0.8125 -2.25q-0.796875 -0.828125 -2.09375 -0.828125q-0.796875 0 -1.453125 0.375q-0.640625 0.359375 -1.015625 0.953125l-1.578125 -0.203125l1.328125 -7.0l6.765625 0l0 1.609375l-5.4375 0l-0.734375 3.640625q1.234375 -0.84375 2.578125 -0.84375q1.78125 0 3.0 1.234375q1.234375 1.234375 1.234375 3.171875q0 1.84375 -1.078125 3.1875q-1.3125 1.65625 -3.578125 1.65625q-1.859375 0 -3.03125 -1.03125q-1.171875 -1.046875 -1.34375 -2.765625z" fill-rule="nonzero"></path><path fill="#cfe2f3" stroke="#000000" stroke-width="2.0" stroke-linejoin="round" stroke-linecap="butt" d="m177.70604 230.29659l0 0c0 -8.32341 6.747452 -15.070862 15.070862 -15.070862l0 0c3.9970398 0 7.8303833 1.5878143 10.656708 4.414154c2.8263397 2.8263397 4.414154 6.659668 4.414154 10.656708l0 0c0 8.32341 -6.747452 15.070877 -15.070862 15.070877l0 0c-8.32341 0 -15.070862 -6.747467 -15.070862 -15.070877z" fill-rule="nonzero"></path><path fill="#000000" d="m187.50919 236.46065l0 -13.59375l4.6875 0q1.578125 0 2.421875 0.1875q1.15625 0.265625 1.984375 0.96875q1.078125 0.921875 1.609375 2.34375q0.53125 1.40625 0.53125 3.21875q0 1.546875 -0.359375 2.75q-0.359375 1.1875 -0.921875 1.984375q-0.5625 0.78125 -1.234375 1.234375q-0.671875 0.4375 -1.625 0.671875q-0.953125 0.234375 -2.1875 0.234375l-4.90625 0zm1.796875 -1.609375l2.90625 0q1.34375 0 2.109375 -0.25q0.765625 -0.25 1.21875 -0.703125q0.640625 -0.640625 1.0 -1.71875q0.359375 -1.078125 0.359375 -2.625q0 -2.125 -0.703125 -3.265625q-0.703125 -1.15625 -1.703125 -1.546875q-0.71875 -0.28125 -2.328125 -0.28125l-2.859375 0l0 10.390625z" fill-rule="nonzero"></path><path fill="#cfe2f3" stroke="#000000" stroke-width="2.0" stroke-linejoin="round" stroke-linecap="butt" d="m716.4908 595.0551l0 0c0 -8.323425 6.7474976 -15.070862 15.070923 -15.070862l0 0c3.9970093 0 7.8303223 1.5878296 10.656677 4.4141235c2.826355 2.826355 4.4141846 6.659729 4.4141846 10.656738l0 0c0 8.323425 -6.7474976 15.070862 -15.070862 15.070862l0 0c-8.323425 0 -15.070923 -6.7474365 -15.070923 -15.070862z" fill-rule="nonzero"></path><path fill="#000000" d="m735.82697 590.95355l-1.65625 0.125q-0.21875 -0.984375 -0.640625 -1.421875q-0.671875 -0.71875 -1.65625 -0.71875q-0.8125 0 -1.40625 0.4375q-0.796875 0.578125 -1.25 1.6875q-0.453125 1.09375 -0.46875 3.140625q0.609375 -0.921875 1.46875 -1.359375q0.875 -0.453125 1.828125 -0.453125q1.671875 0 2.84375 1.234375q1.171875 1.234375 1.171875 3.171875q0 1.28125 -0.546875 2.390625q-0.546875 1.09375 -1.515625 1.6875q-0.96875 0.578125 -2.1875 0.578125q-2.09375 0 -3.40625 -1.53125q-1.3125 -1.546875 -1.3125 -5.0625q0 -3.953125 1.453125 -5.734375q1.265625 -1.5625 3.421875 -1.5625q1.609375 0 2.625 0.90625q1.03125 0.890625 1.234375 2.484375zm-6.8125 5.859375q0 0.859375 0.359375 1.65625q0.375 0.78125 1.03125 1.203125q0.65625 0.40625 1.375 0.40625q1.0625 0 1.8125 -0.84375q0.765625 -0.859375 0.765625 -2.328125q0 -1.40625 -0.75 -2.21875q-0.75 -0.8125 -1.890625 -0.8125q-1.125 0 -1.921875 0.8125q-0.78125 0.8125 -0.78125 2.125z" fill-rule="nonzero"></path><path fill="#cfe2f3" stroke="#000000" stroke-width="2.0" stroke-linejoin="round" stroke-linecap="butt" d="m247.13387 122.173225l0 0c0 -8.32341 6.747452 -15.070862 15.070847 -15.070862l0 0c3.9970703 0 7.8303833 1.5878143 10.656738 4.414154c2.8263245 2.826332 4.414154 6.659668 4.414154 10.656708l0 0c0 8.323418 -6.747467 15.070869 -15.070892 15.070869l0 0c-8.323395 0 -15.070847 -6.747452 -15.070847 -15.070869z" fill-rule="nonzero"></path><path fill="#000000" d="m257.48294 128.3373l0 -13.593758l9.84375 0l0 1.59375l-8.046875 0l0 4.171875l7.53125 0l0 1.59375l-7.53125 0l0 4.625l8.359375 0l0 1.6093826l-10.15625 0z" fill-rule="nonzero"></path><path fill="#cfe2f3" stroke="#000000" stroke-width="2.0" stroke-linejoin="round" stroke-linecap="butt" d="m613.23157 667.0802l0 0c0 -8.323425 6.7474976 -15.070862 15.070862 -15.070862l0 0c3.9970703 0 7.8303833 1.5877686 10.656738 4.4141235c2.826355 2.826355 4.4141235 6.659668 4.4141235 10.656738l0 0c0 8.323364 -6.7474365 15.070862 -15.070862 15.070862l0 0c-8.323364 0 -15.070862 -6.7474976 -15.070862 -15.070862z" fill-rule="nonzero"></path><path fill="#000000" d="m624.0209 661.43176l0 -1.609375l8.796875 0l0 1.296875q-1.296875 1.375 -2.578125 3.671875q-1.265625 2.296875 -1.96875 4.71875q-0.5 1.703125 -0.640625 3.734375l-1.71875 0q0.03125 -1.609375 0.625 -3.875q0.609375 -2.28125 1.734375 -4.390625q1.140625 -2.109375 2.40625 -3.546875l-6.65625 0z" fill-rule="nonzero"></path><path fill="#cfe2f3" stroke="#000000" stroke-width="2.0" stroke-linejoin="round" stroke-linecap="butt" d="m354.8708 54.729057l0 0c0 -8.32341 6.7474365 -15.070866 15.070862 -15.070866l0 0c3.9970398 0 7.8303833 1.5878181 10.656708 4.414154c2.8263245 2.826336 4.414154 6.659668 4.414154 10.656712l0 0c0 8.32341 -6.747467 15.070869 -15.070862 15.070869l0 0c-8.323425 0 -15.070862 -6.7474594 -15.070862 -15.070869z" fill-rule="nonzero"></path><path fill="#000000" d="m365.80615 60.89312l0 -13.59375l9.171875 0l0 1.59375l-7.375 0l0 4.21875l6.375 0l0 1.609375l-6.375 0l0 6.171875l-1.796875 0z" fill-rule="nonzero"></path><path stroke="#d9d9d9" stroke-width="2.0" stroke-linejoin="round" stroke-linecap="butt" d="m714.42694 140.34726l-433.10406 435.54208" fill-rule="evenodd"></path><path fill="#d9d9d9" stroke="#d9d9d9" stroke-width="2.0" stroke-linecap="butt" d="m716.7694 142.6766l4.057312 -8.765167l-8.742249 4.106491z" fill-rule="evenodd"></path><path fill="#d9d9d9" stroke="#d9d9d9" stroke-width="2.0" stroke-linecap="butt" d="m278.98044 573.56l-4.057373 8.765198l8.742249 -4.1065063z" fill-rule="evenodd"></path><path stroke="#d9d9d9" stroke-width="2.0" stroke-linejoin="round" stroke-linecap="butt" d="m722.88837 131.8382l92.116455 207.89423" fill-rule="evenodd"></path><path fill="#d9d9d9" stroke="#d9d9d9" stroke-width="2.0" stroke-linecap="butt" d="m811.9846 341.07068l6.6970825 6.959839l-0.6565552 -9.636353z" fill-rule="evenodd"></path><path stroke="#d9d9d9" stroke-width="2.0" stroke-linejoin="round" stroke-linecap="butt" d="m733.5451 136.25237l53.539307 73.67978" fill-rule="evenodd"></path><path fill="#d9d9d9" stroke="#d9d9d9" stroke-width="2.0" stroke-linecap="butt" d="m784.412 211.87407l8.0078125 5.4005127l-2.6629639 -9.284348z" fill-rule="evenodd"></path><path stroke="#d9d9d9" stroke-width="2.0" stroke-linejoin="round" stroke-linecap="butt" d="m804.7953 245.36745l17.066101 82.92583" fill-rule="evenodd"></path><path fill="#d9d9d9" stroke="#d9d9d9" stroke-width="2.0" stroke-linecap="butt" d="m818.62573 328.95917l5.0651855 8.2239685l1.4061279 -9.555786z" fill-rule="evenodd"></path><path stroke="#d9d9d9" stroke-width="2.0" stroke-linejoin="round" stroke-linecap="butt" d="m824.2803 361.36035l-17.295532 93.20331" fill-rule="evenodd"></path><path fill="#d9d9d9" stroke="#d9d9d9" stroke-width="2.0" stroke-linecap="butt" d="m803.7367 453.9609l1.592041 9.526581l4.9039917 -8.321136z" fill-rule="evenodd"></path><path stroke="#d9d9d9" stroke-width="2.0" stroke-linejoin="round" stroke-linecap="butt" d="m794.13855 492.08978l-55.617126 78.1189" fill-rule="evenodd"></path><path fill="#d9d9d9" stroke="#d9d9d9" stroke-width="2.0" stroke-linecap="butt" d="m735.8303 568.2927l-2.572876 9.309692l7.955078 -5.477783z" fill-rule="evenodd"></path><path stroke="#d9d9d9" stroke-width="2.0" stroke-linejoin="round" stroke-linecap="butt" d="m716.4908 595.0551l-68.12244 53.920715" fill-rule="evenodd"></path><path fill="#d9d9d9" stroke="#d9d9d9" stroke-width="2.0" stroke-linecap="butt" d="m646.3181 646.3856l-5.0664062 8.223267l9.16687 -3.0427856z" fill-rule="evenodd"></path><path stroke="#d9d9d9" stroke-width="2.0" stroke-linejoin="round" stroke-linecap="butt" d="m613.23157 667.0802l-91.13287 12.966492" fill-rule="evenodd"></path><path fill="#d9d9d9" stroke="#d9d9d9" stroke-width="2.0" stroke-linecap="butt" d="m521.6334 676.7761l-8.520386 4.549011l9.45105 1.9920654z" fill-rule="evenodd"></path><path stroke="#d9d9d9" stroke-width="2.0" stroke-linejoin="round" stroke-linecap="butt" d="m488.90497 681.737l-92.01013 -12.98053" fill-rule="evenodd"></path><path fill="#d9d9d9" stroke="#d9d9d9" stroke-width="2.0" stroke-linecap="butt" d="m397.35632 665.4854l-9.448669 2.0031738l8.525726 4.5390015z" fill-rule="evenodd"></path><path stroke="#d9d9d9" stroke-width="2.0" stroke-linejoin="round" stroke-linecap="butt" d="m359.28494 656.42346l-72.40155 -54.178772" fill-rule="evenodd"></path><path fill="#d9d9d9" stroke="#d9d9d9" stroke-width="2.0" stroke-linecap="butt" d="m288.8626 599.5998l-9.246063 -2.7929077l5.287628 8.082764z" fill-rule="evenodd"></path><path stroke="#d9d9d9" stroke-width="2.0" stroke-linejoin="round" stroke-linecap="butt" d="m262.2047 579.98425l-51.688843 -70.700714" fill-rule="evenodd"></path><path fill="#d9d9d9" stroke="#d9d9d9" stroke-width="2.0" stroke-linecap="butt" d="m213.18265 507.33386l-8.0234375 -5.377228l2.6898804 9.27655z" fill-rule="evenodd"></path><path stroke="#d9d9d9" stroke-width="2.0" stroke-linejoin="round" stroke-linecap="butt" d="m192.7769 473.86877l-17.047485 -82.1759" fill-rule="evenodd"></path><path fill="#d9d9d9" stroke="#d9d9d9" stroke-width="2.0" stroke-linecap="butt" d="m178.964 391.02185l-5.0782166 -8.215973l-1.390976 9.558014z" fill-rule="evenodd"></path><path stroke="#d9d9d9" stroke-width="2.0" stroke-linejoin="round" stroke-linecap="butt" d="m173.29189 358.62964l17.450485 -101.43591" fill-rule="evenodd"></path><path fill="#d9d9d9" stroke="#d9d9d9" stroke-width="2.0" stroke-linecap="butt" d="m193.99802 257.7538l-1.7168274 -9.504883l-4.794449 8.384705z" fill-rule="evenodd"></path><path stroke="#d9d9d9" stroke-width="2.0" stroke-linejoin="round" stroke-linecap="butt" d="m203.43362 219.63986l51.802765 -72.62631" fill-rule="evenodd"></path><path fill="#d9d9d9" stroke="#d9d9d9" stroke-width="2.0" stroke-linecap="butt" d="m257.9258 148.93185l2.5810852 -9.307434l-7.9599304 5.470825z" fill-rule="evenodd"></path><path stroke="#d9d9d9" stroke-width="2.0" stroke-linejoin="round" stroke-linecap="butt" d="m277.2756 122.173225l72.14368 -49.95598" fill-rule="evenodd"></path><path fill="#d9d9d9" stroke="#d9d9d9" stroke-width="2.0" stroke-linecap="butt" d="m351.29993 74.93314l5.581238 -7.882881l-9.342499 2.4510803z" fill-rule="evenodd"></path><path stroke="#d9d9d9" stroke-width="2.0" stroke-linejoin="round" stroke-linecap="butt" d="m385.0125 54.729057l92.06668 -15.861713" fill-rule="evenodd"></path><path fill="#d9d9d9" stroke="#d9d9d9" stroke-width="2.0" stroke-linecap="butt" d="m477.64008 42.12285l8.383545 -4.7964935l-9.50528 -1.7145157z" fill-rule="evenodd"></path><path stroke="#d9d9d9" stroke-width="2.0" stroke-linejoin="round" stroke-linecap="butt" d="m510.21838 36.82994l91.19037 15.84483" fill-rule="evenodd"></path><path fill="#d9d9d9" stroke="#d9d9d9" stroke-width="2.0" stroke-linecap="butt" d="m600.8432 55.92947l9.507751 -1.7009392l-8.376709 -4.8084564z" fill-rule="evenodd"></path><path stroke="#d9d9d9" stroke-width="2.0" stroke-linejoin="round" stroke-linecap="butt" d="m794.13855 240.95331l0 217.82306" fill-rule="evenodd"></path><path fill="#d9d9d9" stroke="#d9d9d9" stroke-width="2.0" stroke-linecap="butt" d="m790.8351 458.77637l3.3034668 9.076202l3.3034668 -9.076202z" fill-rule="evenodd"></path><path stroke="#d9d9d9" stroke-width="2.0" stroke-linejoin="round" stroke-linecap="butt" d="m789.7244 481.43307l-153.17377 161.86032" fill-rule="evenodd"></path><path fill="#d9d9d9" stroke="#d9d9d9" stroke-width="2.0" stroke-linecap="butt" d="m634.15125 641.02277l-3.8391113 8.862915l8.637878 -4.3216553z" fill-rule="evenodd"></path><path stroke="#d9d9d9" stroke-width="2.0" stroke-linejoin="round" stroke-linecap="butt" d="m819.86615 350.70364l-94.28192 222.64468" fill-rule="evenodd"></path><path fill="#d9d9d9" stroke="#d9d9d9" stroke-width="2.0" stroke-linecap="butt" d="m722.5423 572.0602l-0.49725342 9.645874l6.5811768 -7.06958z" fill-rule="evenodd"></path><path stroke="#d9d9d9" stroke-width="2.0" stroke-linejoin="round" stroke-linecap="butt" d="m720.9049 584.39844l-210.27872 88.2793" fill-rule="evenodd"></path><path fill="#d9d9d9" stroke="#d9d9d9" stroke-width="2.0" stroke-linecap="butt" d="m509.34744 669.6318l-7.089905 6.559265l9.647369 -0.4673462z" fill-rule="evenodd"></path><path stroke="#d9d9d9" stroke-width="2.0" stroke-linejoin="round" stroke-linecap="butt" d="m499.56168 677.3228l-215.59683 -88.37311" fill-rule="evenodd"></path><path fill="#d9d9d9" stroke="#d9d9d9" stroke-width="2.0" stroke-linecap="butt" d="m285.21777 585.89307l-9.65097 -0.3857422l7.1451416 6.4990234z" fill-rule="evenodd"></path><path stroke="#d9d9d9" stroke-width="2.0" stroke-linejoin="round" stroke-linecap="butt" d="m617.64575 656.42346l-225.0474 0" fill-rule="evenodd"></path><path fill="#d9d9d9" stroke="#d9d9d9" stroke-width="2.0" stroke-linecap="butt" d="m392.59833 653.12l-9.076172 3.3034668l9.076172 3.3034668z" fill-rule="evenodd"></path><path stroke="#d9d9d9" stroke-width="2.0" stroke-linejoin="round" stroke-linecap="butt" d="m369.94165 652.00934l-153.63411 -154.55899" fill-rule="evenodd"></path><path fill="#d9d9d9" stroke="#d9d9d9" stroke-width="2.0" stroke-linecap="butt" d="m218.65045 495.12146l-8.741455 -4.108185l4.055649 8.765961z" fill-rule="evenodd"></path><path stroke="#d9d9d9" stroke-width="2.0" stroke-linejoin="round" stroke-linecap="butt" d="m272.86145 584.39844l-90.30092 -204.13785" fill-rule="evenodd"></path><path fill="#d9d9d9" stroke="#d9d9d9" stroke-width="2.0" stroke-linecap="butt" d="m185.5816 378.9242l-6.6927643 -6.9639893l0.65060425 9.636749z" fill-rule="evenodd"></path><path stroke="#d9d9d9" stroke-width="2.0" stroke-linejoin="round" stroke-linecap="butt" d="m177.70604 369.28635l90.67549 -225.32402" fill-rule="evenodd"></path><path fill="#d9d9d9" stroke="#d9d9d9" stroke-width="2.0" stroke-linecap="butt" d="m271.44614 145.1956l0.323761 -9.653244l-6.453003 7.1867065z" fill-rule="evenodd"></path><path stroke="#d9d9d9" stroke-width="2.0" stroke-linejoin="round" stroke-linecap="butt" d="m203.43362 478.28293l0 -225.32962" fill-rule="evenodd"></path><path fill="#d9d9d9" stroke="#d9d9d9" stroke-width="2.0" stroke-linecap="butt" d="m206.73709 252.95331l-3.3034668 -9.076187l-3.3034668 9.076187z" fill-rule="evenodd"></path><path stroke="#d9d9d9" stroke-width="2.0" stroke-linejoin="round" stroke-linecap="butt" d="m207.84776 230.29659l153.5667 -152.0535" fill-rule="evenodd"></path><path fill="#d9d9d9" stroke="#d9d9d9" stroke-width="2.0" stroke-linecap="butt" d="m363.73877 80.59053l4.1252136 -8.733421l-8.773834 4.0385437z" fill-rule="evenodd"></path><path stroke="#d9d9d9" stroke-width="2.0" stroke-linejoin="round" stroke-linecap="butt" d="m272.86145 132.82994l215.57391 -87.090866" fill-rule="evenodd"></path><path fill="#d9d9d9" stroke="#d9d9d9" stroke-width="2.0" stroke-linecap="butt" d="m489.67276 48.80203l7.1779785 -6.4627304l-9.6528015 0.33682632z" fill-rule="evenodd"></path><path stroke="#d9d9d9" stroke-width="2.0" stroke-linejoin="round" stroke-linecap="butt" d="m380.59836 65.38577l225.0474 0" fill-rule="evenodd"></path><path fill="#d9d9d9" stroke="#d9d9d9" stroke-width="2.0" stroke-linecap="butt" d="m605.64575 68.68923l9.076172 -3.3034592l-9.076172 -3.3034668z" fill-rule="evenodd"></path><path stroke="#d9d9d9" stroke-width="2.0" stroke-linejoin="round" stroke-linecap="butt" d="m783.0036 245.42702l-568.43506 228.38219" fill-rule="evenodd"></path><path fill="#d9d9d9" stroke="#d9d9d9" stroke-width="2.0" stroke-linecap="butt" d="m784.23517 248.49232l7.1903687 -6.44899l-9.653442 0.31837463z" fill-rule="evenodd"></path><path fill="#d9d9d9" stroke="#d9d9d9" stroke-width="2.0" stroke-linecap="butt" d="m213.33696 470.74393l-7.1903076 6.4489746l9.653427 -0.31835938z" fill-rule="evenodd"></path><path stroke="#d9d9d9" stroke-width="2.0" stroke-linejoin="round" stroke-linecap="butt" d="m805.2075 350.43408l-615.5069 18.491882" fill-rule="evenodd"></path><path fill="#d9d9d9" stroke="#d9d9d9" stroke-width="2.0" stroke-linecap="butt" d="m805.3067 353.73608l8.9729 -3.5745544l-9.171265 -3.029419z" fill-rule="evenodd"></path><path fill="#d9d9d9" stroke="#d9d9d9" stroke-width="2.0" stroke-linecap="butt" d="m189.60143 365.624l-8.9729 3.5745544l9.171295 3.029419z" fill-rule="evenodd"></path><path stroke="#d9d9d9" stroke-width="2.0" stroke-linejoin="round" stroke-linecap="butt" d="m778.6221 476.87918l-564.08606 -231.37201" fill-rule="evenodd"></path><path fill="#d9d9d9" stroke="#d9d9d9" stroke-width="2.0" stroke-linecap="butt" d="m777.3684 479.93555l9.650879 0.38796997l-7.1436157 -6.5006714z" fill-rule="evenodd"></path><path fill="#d9d9d9" stroke="#d9d9d9" stroke-width="2.0" stroke-linecap="butt" d="m215.78961 242.45082l-9.650894 -0.3879547l7.143631 6.5006714z" fill-rule="evenodd"></path><path stroke="#d9d9d9" stroke-width="2.0" stroke-linejoin="round" stroke-linecap="butt" d="m712.453 575.87994l-431.1396 -434.53156" fill-rule="evenodd"></path><path fill="#d9d9d9" stroke="#d9d9d9" stroke-width="2.0" stroke-linecap="butt" d="m710.1079 578.20667l8.737732 4.116211l-4.0476074 -8.769653z" fill-rule="evenodd"></path><path fill="#d9d9d9" stroke="#d9d9d9" stroke-width="2.0" stroke-linecap="butt" d="m283.65845 139.02167l-8.737671 -4.1161957l4.0476074 8.769669z" fill-rule="evenodd"></path><path stroke="#d9d9d9" stroke-width="2.0" stroke-linejoin="round" stroke-linecap="butt" d="m613.17883 645.2859l-228.11356 -568.7625" fill-rule="evenodd"></path><path fill="#d9d9d9" stroke="#d9d9d9" stroke-width="2.0" stroke-linecap="butt" d="m610.11273 646.51556l6.444641 7.194214l-0.3125 -9.6536255z" fill-rule="evenodd"></path><path fill="#d9d9d9" stroke="#d9d9d9" stroke-width="2.0" stroke-linecap="butt" d="m388.13135 75.29367l-6.444641 -7.1942215l0.31253052 9.653633z" fill-rule="evenodd"></path><path stroke="#d9d9d9" stroke-width="2.0" stroke-linejoin="round" stroke-linecap="butt" d="m499.56168 665.3228l0 -612.07874" fill-rule="evenodd"></path><path fill="#d9d9d9" stroke="#d9d9d9" stroke-width="2.0" stroke-linecap="butt" d="m496.2582 665.3228l3.3034668 9.076233l3.3034668 -9.076233z" fill-rule="evenodd"></path><path fill="#d9d9d9" stroke="#d9d9d9" stroke-width="2.0" stroke-linecap="butt" d="m502.86514 53.244095l-3.3034668 -9.076195l-3.3034668 9.076195z" fill-rule="evenodd"></path><path stroke="#d9d9d9" stroke-width="2.0" stroke-linejoin="round" stroke-linecap="butt" d="m380.59836 656.42346l232.7565 -574.8928" fill-rule="evenodd"></path><path fill="#d9d9d9" stroke="#d9d9d9" stroke-width="2.0" stroke-linecap="butt" d="m616.4169 82.77038l0.34405518 -9.65255l-6.4680786 7.173111z" fill-rule="evenodd"></path><path stroke="#d9d9d9" stroke-width="2.0" stroke-linejoin="round" stroke-linecap="butt" d="m722.88837 131.8382l-1.9308472 440.56036" fill-rule="evenodd"></path><path fill="#d9d9d9" stroke="#d9d9d9" stroke-width="2.0" stroke-linecap="butt" d="m717.6541 572.38403l3.2636108 9.090637l3.3432617 -9.0616455z" fill-rule="evenodd"></path><path stroke="#d9d9d9" stroke-width="2.0" stroke-linejoin="round" stroke-linecap="butt" d="m794.13855 240.95331l-171.80096 404.4254" fill-rule="evenodd"></path><path fill="#d9d9d9" stroke="#d9d9d9" stroke-width="2.0" stroke-linecap="butt" d="m619.2971 644.0871l-0.5081787 9.645325l6.5891724 -7.0620728z" fill-rule="evenodd"></path><path stroke="#d9d9d9" stroke-width="2.0" stroke-linejoin="round" stroke-linecap="butt" d="m819.86615 350.70364l-311.9024 318.05148" fill-rule="evenodd"></path><path fill="#d9d9d9" stroke="#d9d9d9" stroke-width="2.0" stroke-linecap="butt" d="m505.60513 666.44214l-3.9962769 8.793152l8.71347 -4.1671753z" fill-rule="evenodd"></path><path stroke="#d9d9d9" stroke-width="2.0" stroke-linejoin="round" stroke-linecap="butt" d="m790.4251 481.9983l-398.78522 169.72583" fill-rule="evenodd"></path><path fill="#d9d9d9" stroke="#d9d9d9" stroke-width="2.0" stroke-linecap="butt" d="m390.34622 648.6845l-7.0575867 6.593933l9.6449585 -0.5147095z" fill-rule="evenodd"></path><path stroke="#d9d9d9" stroke-width="2.0" stroke-linejoin="round" stroke-linecap="butt" d="m720.98737 586.1307l-436.126 -1.685852" fill-rule="evenodd"></path><path fill="#d9d9d9" stroke="#d9d9d9" stroke-width="2.0" stroke-linecap="butt" d="m284.8741 581.14136l-9.088898 3.2683716l9.0633545 3.338501z" fill-rule="evenodd"></path><path stroke="#d9d9d9" stroke-width="2.0" stroke-linejoin="round" stroke-linecap="butt" d="m618.8399 659.4908l-399.90857 -165.95175" fill-rule="evenodd"></path><path fill="#d9d9d9" stroke="#d9d9d9" stroke-width="2.0" stroke-linecap="butt" d="m220.1975 490.48785l-9.649216 -0.4275818l7.1168976 6.5299377z" fill-rule="evenodd"></path><path stroke="#d9d9d9" stroke-width="2.0" stroke-linejoin="round" stroke-linecap="butt" d="m498.8399 677.3493l-312.47418 -299.75577" fill-rule="evenodd"></path><path fill="#d9d9d9" stroke="#d9d9d9" stroke-width="2.0" stroke-linecap="butt" d="m188.6526 375.20963l-8.836624 -3.899231l4.262863 8.667084z" fill-rule="evenodd"></path><path stroke="#d9d9d9" stroke-width="2.0" stroke-linejoin="round" stroke-linecap="butt" d="m380.59836 656.42346l-172.45778 -404.43182" fill-rule="evenodd"></path><path fill="#d9d9d9" stroke="#d9d9d9" stroke-width="2.0" stroke-linecap="butt" d="m211.1793 250.69586l-6.598831 -7.053055l0.52137756 9.644592z" fill-rule="evenodd"></path><path stroke="#d9d9d9" stroke-width="2.0" stroke-linejoin="round" stroke-linecap="butt" d="m273.73227 585.1181l-11.2187805 -435.878" fill-rule="evenodd"></path><path fill="#d9d9d9" stroke="#d9d9d9" stroke-width="2.0" stroke-linecap="butt" d="m265.81586 149.15512l-3.5358887 -8.98819l-3.0688477 9.158188z" fill-rule="evenodd"></path><path stroke="#d9d9d9" stroke-width="2.0" stroke-linejoin="round" stroke-linecap="butt" d="m203.43362 478.28293l159.98691 -393.76453" fill-rule="evenodd"></path><path fill="#d9d9d9" stroke="#d9d9d9" stroke-width="2.0" stroke-linecap="butt" d="m366.48102 85.7619l0.35595703 -9.65213l-6.4769287 7.165161z" fill-rule="evenodd"></path><path stroke="#d9d9d9" stroke-width="2.0" stroke-linejoin="round" stroke-linecap="butt" d="m177.70604 369.28635l302.99835 -323.69568" fill-rule="evenodd"></path><path fill="#d9d9d9" stroke="#d9d9d9" stroke-width="2.0" stroke-linecap="butt" d="m483.11615 47.848206l3.790741 -8.883709l-8.614227 4.368656z" fill-rule="evenodd"></path><path stroke="#d9d9d9" stroke-width="2.0" stroke-linejoin="round" stroke-linecap="butt" d="m207.84776 230.29659l398.66553 -160.43091" fill-rule="evenodd"></path><path fill="#d9d9d9" stroke="#d9d9d9" stroke-width="2.0" stroke-linecap="butt" d="m607.7466 72.9303l7.1867676 -6.4529953l-9.653259 0.32374573z" fill-rule="evenodd"></path><path stroke="#d9d9d9" stroke-width="2.0" stroke-linejoin="round" stroke-linecap="butt" d="m277.2756 122.173225l429.19864 -0.9647598" fill-rule="evenodd"></path><path fill="#d9d9d9" stroke="#d9d9d9" stroke-width="2.0" stroke-linecap="butt" d="m706.4817 124.511925l9.068787 -3.3238602l-9.083618 -3.2830582z" fill-rule="evenodd"></path><path stroke="#d9d9d9" stroke-width="2.0" stroke-linejoin="round" stroke-linecap="butt" d="m382.82678 66.45406l395.76617 159.36029" fill-rule="evenodd"></path><path fill="#d9d9d9" stroke="#d9d9d9" stroke-width="2.0" stroke-linecap="butt" d="m777.359 228.87872l9.653198 0.32577515l-7.185364 -6.4545135z" fill-rule="evenodd"></path><path stroke="#d9d9d9" stroke-width="2.0" stroke-linejoin="round" stroke-linecap="butt" d="m510.21838 36.82994l197.13354 79.846596" fill-rule="evenodd"></path><path fill="#d9d9d9" stroke="#d9d9d9" stroke-width="2.0" stroke-linecap="butt" d="m706.1118 119.73838l9.652466 0.34548187l-7.17218 -6.469162z" fill-rule="evenodd"></path><path stroke="#d9d9d9" stroke-width="2.0" stroke-linejoin="round" stroke-linecap="butt" d="m510.21838 36.82994l301.22015 305.33112" fill-rule="evenodd"></path><path fill="#d9d9d9" stroke="#d9d9d9" stroke-width="2.0" stroke-linecap="butt" d="m809.0869 344.48108l8.72583 4.1411743l-4.022522 -8.7812195z" fill-rule="evenodd"></path><path stroke="#000000" stroke-width="2.0" stroke-linejoin="round" stroke-linecap="butt" d="m617.64575 65.38577l-232.58047 579.90015" fill-rule="evenodd"></path><path fill="#000000" stroke="#000000" stroke-width="2.0" stroke-linecap="butt" d="m381.99924 644.05615l-0.31253052 9.6536255l6.444641 -7.194214z" fill-rule="evenodd"></path><path stroke="#000000" stroke-width="2.0" stroke-linejoin="round" stroke-linecap="butt" d="m638.95917 65.38577l69.69214 48.90297" fill-rule="evenodd"></path><path fill="#000000" stroke="#000000" stroke-width="2.0" stroke-linecap="butt" d="m706.75385 116.99288l9.327026 2.5091858l-5.5320435 -7.917465z" fill-rule="evenodd"></path><path stroke="#000000" stroke-width="2.0" stroke-linejoin="round" stroke-linecap="butt" d="m628.3024 69.79993l152.91235 152.03581" fill-rule="evenodd"></path><path fill="#000000" stroke="#000000" stroke-width="2.0" stroke-linecap="butt" d="m778.8856 224.17834l8.765442 4.0567474l-4.1071167 -8.741974z" fill-rule="evenodd"></path><path stroke="#000000" stroke-width="2.0" stroke-linejoin="round" stroke-linecap="butt" d="m628.3024 69.79993l161.24988 389.88742" fill-rule="evenodd"></path><path fill="#000000" stroke="#000000" stroke-width="2.0" stroke-linecap="butt" d="m786.49963 460.94986l6.5214844 7.1246643l-0.4161377 -9.649719z" fill-rule="evenodd"></path></svg>

